<?xml version="1.0" encoding="utf-8"?>
<!-- Generator: Adobe Illustrator 26.0.2, SVG Export Plug-In . SVG Version: 6.00 Build 0)  -->
<svg version="1.1" id="Layer_1" xmlns="http://www.w3.org/2000/svg" xmlns:xlink="http://www.w3.org/1999/xlink" x="0px" y="0px"
	 viewBox="0 0 16 16" style="enable-background:new 0 0 16 16;" xml:space="preserve">
<style type="text/css">
	.st0{fill:#CB6526;}
</style>
<path class="st0" d="M8,0C3.6,0,0,3.6,0,8s3.6,8,8,8s8-3.6,8-8S12.4,0,8,0z M10.9,8.3l-5.1,5.5c-0.2,0.2-0.4,0.2-0.6,0
	c-0.2-0.2-0.2-0.5,0-0.6L10,8L5.1,2.8C5,2.6,5,2.3,5.1,2.1C5.3,2,5.6,2,5.7,2.1c0,0,0,0,0,0l5.1,5.5C11,7.8,11,8.2,10.9,8.3z"/>
</svg>
