<?xml version="1.0" encoding="utf-8"?>
<!-- Generator: Adobe Illustrator 26.0.2, SVG Export Plug-In . SVG Version: 6.00 Build 0)  -->
<svg version="1.1" id="Layer_1" xmlns="http://www.w3.org/2000/svg" xmlns:xlink="http://www.w3.org/1999/xlink" x="0px" y="0px"
	 viewBox="0 0 312 312" style="enable-background:new 0 0 312 312;" xml:space="preserve">
<style type="text/css">
	.st0{fill:#495163;}
</style>
<g>
	<path class="st0" d="M311,120.97c-1.03,0.28-3.46,0.98-5.06,1.17c3.04-2.95,4.87-6.6,4.87-9.59c-1.45,0.47-4.07,1.45-6.46,1.97
		c4.73-4.02,7.3-8.66,6.18-14.88c-1.45,0.75-3.46,1.92-5.52,2.76c4.12-6.36,4.07-11.98,2.39-15.26c-1.83,1.73-4.07,3.74-6.46,5.19
		c1.5-7.35,1.45-12.07-1.64-15.4c-3.14,5.9-5.85,10.34-10.25,15.58c0.33-4.87-0.19-10.9-3.37-14.09c0,0-0.89,6.79-3.28,8.94
		c-0.56-6.65-2.62-10.25-5.66-13.81c0,0-0.19,6.93-2.06,11.18c-1.59-5.76-4.59-10.25-8.38-14.55c0.28,12.78-3.28,36.83-13.53,52.97
		c-1.22,9.59-2.25,24.01-17.88,32.52c-2.25-1.59-6.23-3.6-11.8-3.28c-1.45-7.25,8.01-13.81,16.15-19.09
		c8.24-5.33,11.84-9.87,11.66-16.94c-0.19-7.77-5.48-10.95-10.91-11.18c-7.68-0.33-13.95,6.65-15.4,9.5
		c-2.2,1.08-8.8,3.09-11.52,3.84c-3,0.8-6.37,2.01-8.47,3.84c1.26,0.8,4.87,1.08,6.27,0.84c2.62-0.37,10.91-1.92,18.87-2.85
		c2.9,1.54,7.58,4.16,2.62,7.63c-6.74,4.35-9.64,5.43-19.19,10.44c-15.07,7.91-10.21,27.75-6.51,29.2c0,6.69,5.99,18.81,10.07,23.02
		c1.83,8.42-0.61,20.96-3.14,26.16c-2.11-5.1-5.71-16.94-8.1-23.87c2.43-13.06-1.5-18.81-4.26-21.06s-7.12-1.64-9.93,2.9
		c4.35-0.47,5.81,5.1,5.71,10.86c-0.09,6.93-1.87,12.45-6.69,12.49c0.37,5.9,6.74,7.58,9.93,4.73c0.51,1.31,3.09,9.08,5.48,16
		c1.45,4.12,2.81,7.86,3.75,9.83c0.98,2.2,8.33,2.53,9.22,0c1.17-3.37,2.06-5.9,3.89-9.83c1.4-2.99,3.32-6.79,6.27-12.45
		c1.97,3.42,4.59,8.8,6.13,12.45c0.7,1.68,1.22,3.04,1.26,3.65c0.61,5.62,0.28,25.64-1.26,37.62c-16.43-4.49-21.11,3.56-19.66,9.5
		c2.34-2.62,5.43-2.29,7.35-0.89c-0.47,4.4,0.7,7.53,5.2,8.89c4.73-12.49,21.68-9.73,23.27-8.66c0.09-2.43,2.34-8.47-6.37-9.73
		c0.33-10.76,1.45-24.01,1.83-26.77c0.42-2.76,0.7-4.49-0.61-8.8c-0.37-1.31-0.84-2.9-1.36-4.77c-1.12-4.35-2.29-10.06-2.39-16.24
		c1.54,1.5,5.15,2.71,7.63,2.15c1.92,8.14,4.68,5.8,6.13,9.22c0.75,1.78,0.89,3.42,1.12,4.87c0.19,1.45,0.42,2.67,1.22,3.74
		c5.81,0.19,10.77-1.22,14.33-3.74c1.08-0.75,2.06-1.64,2.86-2.57c-1.45-8.66-3.89-12.96-8.43-18.2
		c-1.17-7.11-4.49-13.62-9.08-19.37c5.76-1.87,11.56-6.55,14.61-9.78c2.76-0.19,5.9-2.48,6.13-6.97c1.59-0.19,2.95-0.28,4.21-0.51
		c-0.14-1.22-0.47-3.09-0.66-4.21c2.11,0,4.12-0.09,6.09-0.28c-0.56-1.64-1.31-3.32-1.92-4.59c2.11,0,4.73-0.14,6.84-0.28
		c-1.12-2.11-1.97-3.93-2.62-5.8c2.43-0.23,6.18-0.84,9.27-1.59c-0.98-1.03-2.11-2.11-3.79-3.74c8.01-2.34,11.52-7.96,11.89-10.39
		c-1.17,0-3.6,0.51-5.06,0.42C307.49,128.41,310.49,124.81,311,120.97"/>
	<path class="st0" d="M198.83,138.94H97.52v37.39c0.47,0.28,0.89,0.61,1.36,1.03v-36.83h100.8v34.26c0.37,0.37,0.7,0.84,1.03,1.45
		v-37.3L198.83,138.94"/>
	<path class="st0" d="M148.97,267.87c-44.71-16.66-50.37-53.3-50.56-69.91l-0.14-0.05l0.14-1.22c0-3.6,0.28-6.04,0.42-6.93
		c-0.14-2.39-0.47-4.26-0.89-5.62l-0.42-0.89v17.27c0,19.33,7.07,35.99,21.07,49.51c12.22,11.84,25.98,17.36,29.92,18.77l0.61,0.23
		l0.66-0.23c3.93-1.4,17.7-6.93,29.92-18.77c13.95-13.52,21.07-30.18,21.07-49.51v-3.14c-0.37,0.56-0.7,0.94-1.08,1.36
		c-0.42,8.66-2.01,22.13-7.77,32.29C184.92,245.22,174.3,256.92,148.97,267.87"/>
	<path class="st0" d="M68.68,37.86c6.37,3.09,8.43-2.62,20.32,5.05c-7.87,2.48-13.95,12.26-22.85,9.73
		c6.37-3.18,5.71-7.82,9.41-10.15C73.22,42.21,68.58,41.14,68.68,37.86z M91.57,101.18c-3.79-1.54-9.69-2.57-12.97,2.06
		c-1.78-3.09,0.84-7.77,2.53-9.13c-8.38,0.14-13.11-2.39-14.33-4.96c3.09-1.68,10.91-4.54,17.28,0.14c4.4,3.23,6.65,4.77,11.84,6.5
		c1.87-1.87,1.17-1.03,1.78-1.59c-4.26-2.95-6.18-25.69-14.56-26.58c1.22-2.85,5.52-2.62,9.04-1.68c0.23-5.1-1.87-13.48-5.01-18.34
		c4.87-2.57,8.19,0.23,9.93,6.27c1.78,6.41-0.33,22.46,3.89,36.97l2.62-2.43c-1.31-8.42,7.96-11.56,9.97-15.72
		c0.8,5.66-0.37,8.19-1.97,10.25c3.37,0.37,4.87,3.7,4.35,5.99c-8.1-1.17-12.78,6.93-10.96,13.34
		C98.97,103.52,94.85,102.53,91.57,101.18L91.57,101.18z M131.08,105.86c-6.98,0.37-13.81,9.45-10.91,19.8
		c-1.03,0.37-4.07,0.33-5.06-1.78c-0.75,3.37-7.58,7.21-12.55,6.69c2.76-2.95,4.63-9.69,9.97-13.2c5.38-3.56,7.82-5.99,9.74-12.03
		c-2.48,1.17-15.54,4.54-19.19,0.51c8.57-1.26,18.68-6.08,23.69-9.22l-1.97-2.11c-5.38,3.04-12.55,5.52-16.2,6.65
		c-1.31-10.72,8.9-10.3,9.69-7.39c4.21-5.01,1.26-12.17-1.87-12.96c3.18-8.56,0-13.81-2.72-16.94c-0.66,9.08-10.77,10.53-11.99,17.5
		c-0.37-5.52-0.75-20.5-1.17-27.75c-0.8-13.52-17.88-18.3-20.51-18.3c-11.19,0.51-12.22-0.94-11.94-6.08
		c-5.66,6.46-3.75,12.17,1.08,14.93c-0.66,3.88-6.88,6.88-10.67,7.72c9.08,8.42,19.62,3.42,24.67-1.36l1.08-0.98
		c1.83,3.23,3.14,9.08,3.14,12.4c-8.47-0.47-10.02,6.13-10.02,8.47c10.77-4.49,11.99,16.19,14.79,19.51
		c-2.76-0.19-7.63-6.6-14.79-7.02c-8.66-0.56-11.7,4.07-15.22,3.88c0.66,6.13,8.1,9.55,12.87,10.25
		c-2.43,6.22-0.28,10.48,4.78,12.03c0-5.71,7.21-7.49,14.98-2.95c9.32,5.43,14.09,5.9,21.58,3.6c-1.22,2.71-4.59,2.99-8.75,7.02
		c-5.81,5.71-5.99,13.15-12.45,15.86c7.58,3.6,19.01-1.45,20.65-4.35c3.18,1.97,7.26,0.8,8.33-1.17
		c-5.15-11.37,3.56-18.16,6.98-18.02C131.22,109.13,132.72,105.72,131.08,105.86"/>
	<path class="st0" d="M209.83,44.04c3.84-2.76,6.23-3.93,8.24-5.15c3.28,0.14,8.94-0.28,12.36-1.97c-3.56,4.35-3.93,5.94-9.74,6.55
		c7.49,0.66,10.67,7.39,14.37,8.42C222.52,55.74,221.25,43.29,209.83,44.04z M225.28,81.48c3.75,3.09,2.53,7.44,1.64,8.42
		c-3.28-5.66-13.81-3.7-24.16,7.96c-0.7,0.89-1.69,1.87-2.86,2.9c0.8-13.95-10.58-14.18-13.95-12.78c0.37-4.02,2.86-6.79,4.21-7.16
		c-3.37-3.88-4.07-8.8-4.49-12.35c5.57,2.43,13.86,8.94,15.26,20.22l3.6-2.43c-1.08-19.65-0.84-19.56-0.98-32.94
		c0-1.87,0.09-6.22,5.99-5.76c0.23,4.96,1.03,18.16,0.75,36.45h2.11c1.92-5.1,8.66-11.14,16.57-10.58
		c5.38,0.37,7.26,0.23,10.35-1.12C236.84,78.34,227.67,81.05,225.28,81.48L225.28,81.48z M213.9,74.6c0-12.68-0.47-23.12-0.61-26.39
		l1.54,0.47c9.08,3.18,11.19,14.13,29.96,1.73c-10.07,1.17-10.58-7.35-15.17-7.53c6.98-3.93,7.44-13.01,7.44-13.01
		c-5.85,4.73-19.38,5.01-22.05,6.55c-3.51,2.11-7.91,4.68-10.91,6.32c-7.82,4.26-2.39,27.42-3.14,35.89
		c-4.21-12.64-12.73-10.72-17.23-17.92c-3.37,6.04,0.19,16.14,1.59,19.05c-4.87,3.93-3.56,11.23-2.39,13.2
		c4.17-2.99,10.58-2.2,12.55,2.76c-5.48,3.32-14.61,3.93-20.83-2.11l-2.25,2.48c4.4,5.8,15.45,8.1,23.64,3.37
		c-0.05,1.31-0.33,2.81-0.89,4.45c-4.26,2.25-9.78,3.46-16.06,1.31c0.84,6.36,8.15,11.09,15.12,13.01
		c-2.34,1.83-5.24,2.57-7.35,2.29c1.31,3.65,2.06,8.61-0.7,12.49c-3.46-2.29-5.34-4.59-6.65-13.52
		c-1.36-8.94-7.77-18.02-12.78-19.89c-0.28,3.18-0.28,1.78,0.28,3.84c13.3,9.73,5.76,27.28,19.57,33.6
		c5.06-5.76,5.15-7.82,4.35-13.24c5.01-1.31,8.71-5.52,10.07-8.75c-4.73,2.25-12.22-1.68-14.33-4.77c8.24-0.28,15.82-6.46,23.6-14.6
		c6.98-7.3,16.25-6.18,15.54-0.47c4.82-0.7,6.69-7.3,5.1-11.51c7.07-2.2,12.59-7.44,13.34-15.58C234.83,72.82,222.84,65,213.9,74.6"
		/>
	<path class="st0" d="M162.73,117.79c-0.66,0-1.22,0.33-1.59,0.8l-2.25-0.33l0.05-4.07c0.75-0.33,1.22-1.03,1.22-1.87
		c0-1.12-0.89-2.06-2.01-2.06c-1.12,0-2.01,0.94-2.01,2.06c0,0.8,0.42,1.45,1.03,1.78l-0.05,3.93l-2.15-0.19
		c-0.28-0.75-1.03-1.22-1.83-1.22c-1.12,0-2.01,0.89-2.01,2.01s0.89,2.01,2.01,2.01c0.7,0,1.36-0.37,1.69-0.94l2.29,0.23l-0.05,5.94
		c-0.66,0.33-1.08,1.03-1.08,1.78c0,1.12,0.89,2.06,2.01,2.06c1.12,0,2.06-0.94,2.06-2.06c0-0.8-0.51-1.54-1.22-1.83l0.05-5.66
		l1.92,0.28c0.28,0.8,1.03,1.36,1.92,1.36c1.12,0,2.06-0.89,2.06-2.01C164.75,118.73,163.86,117.79,162.73,117.79"/>
	<path class="st0" d="M145.08,116.62c-0.84,0-1.54,0.47-1.87,1.22l-2.11,0.19l-0.05-3.93c0.61-0.33,1.08-1.03,1.08-1.78
		c0-1.12-0.94-2.06-2.01-2.06c-1.12,0-2.06,0.94-2.06,2.06c0,0.84,0.51,1.54,1.22,1.87l0.05,4.07l-2.25,0.33
		c-0.37-0.47-0.94-0.8-1.59-0.8c-1.12,0-2.01,0.89-2.01,2.06c0,1.12,0.89,2.01,2.01,2.01c0.89,0,1.64-0.56,1.92-1.36l1.92-0.28
		l0.05,5.66c-0.7,0.33-1.17,1.03-1.17,1.83c0,1.12,0.89,2.06,2.01,2.06s2.06-0.94,2.06-2.06c0-0.8-0.47-1.45-1.12-1.78l-0.05-5.94
		l2.25-0.23c0.37,0.56,0.98,0.94,1.73,0.94c1.12,0,2.06-0.94,2.06-2.01C147.14,117.56,146.21,116.62,145.08,116.62"/>
	<path class="st0" d="M149.11,133.84c-3.04,5.8-8.66,5.62-13.58,2.39c-1.97-1.31-3.98-2.15-5.85-2.43
		c0.84-5.71,2.25-16.43,3.28-25.5c6.37-2.85,14.19-3.56,16.15,3.79c1.92-7.35,9.78-6.65,16.1-3.79c1.03,9.08,2.43,19.8,3.28,25.5
		c-1.83,0.28-3.89,1.17-5.85,2.43C157.77,139.46,152.1,139.64,149.11,133.84z M172.1,134.03c-1.22-8.19-4.17-31.12-4.54-38.79
		l-3.51,0.14c0.05,1.31,0.19,3.04,0.37,5.05c-4.21-1.26-9.69-2.11-15.31-2.11s-11.14,0.84-15.31,2.11c0.19-2.01,0.33-3.74,0.37-5.05
		l-3.51-0.14c-0.33,7.67-3.28,30.61-4.54,38.79c-2.11,0.8-3.46,2.9-3.46,6.65c0,0,19.05,0.28,26.45,0.28s26.4-0.28,26.4-0.28
		C175.56,136.93,174.16,134.87,172.1,134.03"/>
	<path class="st0" d="M252.01,297.68H46.21c-0.94-6.55-2.15-10.76-3.28-14.27h212.31C254.16,286.91,252.9,291.13,252.01,297.68z
		 M112.55,253.64c1.92,2.81,3.7,4.87,4.59,7.11c0.89,2.34,0.33,3.79-1.4,6.18c-3.89,5.48-10.67,10.15-16.01,13.06h-20.6
		C92.04,276.34,109.55,265.25,112.55,253.64L112.55,253.64z M100.05,249.8c1.69-3.14,5.76-4.12,8.57-0.42
		c1.17,1.59,0.66,5.8-4.21,11.09C100.84,257.29,98.22,253.17,100.05,249.8L100.05,249.8z M182.25,266.93
		c-1.73-2.43-2.29-3.84-1.4-6.18c0.89-2.25,2.67-4.31,4.59-7.11c3,11.61,20.51,22.7,33.47,26.39h-20.65
		C192.93,277.09,186.19,272.41,182.25,266.93L182.25,266.93z M189.37,249.43c2.81-3.7,6.88-2.71,8.57,0.42
		c1.78,3.32-0.8,7.44-4.35,10.67C188.72,255.23,188.2,251.02,189.37,249.43L189.37,249.43z M256.08,278.96
		c-2.2,0.66-4.87,1.03-8.9,1.03h-4.96c-17.09-0.33-34.74-5.43-45.51-16.47c14.89-15.02-2.62-27.38-12.08-14.65
		c-2.95,3.98-5.29,6.83-7.35,10.67c-1.64,3.14-0.42,6.22,3.28,11.04c2.01,2.62,7.07,6.74,11.19,9.41h-85.53
		c4.12-2.67,9.13-6.74,11.19-9.41c3.65-4.77,4.96-7.91,3.28-11.04c-2.06-3.88-4.45-6.69-7.4-10.67
		c-9.46-12.73-26.97-0.37-12.08,14.65c-10.77,11.04-28.37,16.14-45.51,16.47h-4.73c-4.03,0-6.69-0.42-8.9-1.03
		c-3.56-0.84-4.35,0.66-2.43,6.79c1.31,4.07,2.34,10.72,2.81,15.26h213.25c0.47-4.59,1.5-11.23,2.81-15.26
		C260.39,279.61,259.64,278.12,256.08,278.96"/>
	<path class="st0" d="M70.83,292.39l-0.05-0.09l1.54-4.07l0.09-0.09l0.05,0.09l1.5,4.07l-0.05,0.09H70.83L70.83,292.39z M74.11,293
		l0.14,0.09l0.56,1.5l-0.09,0.28l-0.19,0.09l0.37,0.09h2.29l0.56-0.09l-0.14-0.09l-0.51-0.05c-0.28-0.09-0.61-0.23-1.08-1.31
		c-0.8-1.87-2.76-6.83-3-7.49l-0.33-0.37l-0.33,0.51l-3.04,7.63c-0.23,0.61-0.47,1.03-1.03,1.08h-0.42l-0.14,0.09l0.23,0.09h1.45
		h1.31l0.19-0.09l-0.19-0.09h-0.19c-0.37,0-0.47-0.14-0.47-0.37l0.19-0.7l0.23-0.7L70.6,293H74.11"/>
	<path class="st0" d="M80.19,291.22c0,1.78,0.47,2.67,1.08,3.23c0.89,0.8,2.06,0.84,2.72,0.84c0.8,0,1.69-0.09,2.53-0.89
		c1.03-0.84,1.17-2.29,1.17-3.65v-1.31v-2.57c0.05-0.42,0.09-0.66,0.42-0.7l0.37-0.05l0.23-0.09l-0.23-0.09h-1.4h-1.36l-0.28,0.09
		l0.23,0.09l0.42,0.05c0.42,0.09,0.51,0.28,0.51,0.7v2.57v1.54c0,1.26-0.05,2.34-0.7,3.04c-0.51,0.47-1.17,0.66-1.69,0.66
		c-0.42,0-0.98-0.09-1.54-0.51c-0.61-0.51-0.94-1.22-0.94-2.99v-1.73v-2.57c0.05-0.42,0.14-0.66,0.47-0.7l0.37-0.05l0.19-0.09
		l-0.28-0.09h-1.5h-1.78l-0.28,0.09l0.23,0.09l0.47,0.05c0.42,0.09,0.51,0.28,0.51,0.7l0.05,2.57L80.19,291.22"/>
	<path class="st0" d="M94.38,289.21v-2.43l0.14-0.23l0.8-0.09c0.98,0,2.34,0.14,3.46,1.22c0.51,0.51,1.17,1.5,1.17,3.04
		c0,1.26-0.23,2.39-1.03,3.04c-0.75,0.61-1.54,0.89-2.81,0.89c-0.98,0-1.45-0.28-1.59-0.47l-0.14-0.94v-2.48V289.21L94.38,289.21z
		 M92.84,291.55c0,1.12,0,2.11-0.05,2.62c-0.05,0.37-0.09,0.61-0.33,0.7l-0.42,0.05l-0.19,0.09l0.23,0.09h1.54l2.62,0.14
		c2.25,0,3.51-0.84,4.07-1.45c0.7-0.7,1.31-1.87,1.31-3.37c0-1.45-0.56-2.48-1.17-3.09c-1.31-1.36-3.37-1.36-4.87-1.36h-1.87h-1.78
		l-0.28,0.09l0.19,0.09l0.51,0.05c0.37,0.09,0.47,0.28,0.51,0.7l0.05,2.57L92.84,291.55"/>
	<path class="st0" d="M106.32,292.39l-0.05-0.09l1.5-4.07l0.05-0.09l0.05,0.09l1.5,4.07l-0.05,0.09
		C109.36,292.39,106.32,292.39,106.32,292.39z M109.6,293l0.09,0.09l0.56,1.5l-0.14,0.28l-0.19,0.09l0.37,0.09h2.29l0.56-0.09
		l-0.19-0.09l-0.51-0.05c-0.28-0.09-0.61-0.23-1.03-1.31c-0.8-1.87-2.76-6.83-3.04-7.49l-0.28-0.37l-0.33,0.51l-3.09,7.63
		c-0.23,0.61-0.47,1.03-1.03,1.08h-0.37l-0.14,0.09l0.23,0.09h1.45h1.26l0.19-0.09l-0.19-0.09h-0.19c-0.37,0-0.47-0.14-0.47-0.37
		l0.19-0.7l0.28-0.7l0.14-0.09H109.6"/>
	<path class="st0" d="M121.53,287.15c0.37-0.56,0.61-0.89,0.89-0.98l0.42-0.05l0.19-0.09l-0.23-0.09h-1.22h-1.22l-0.23,0.09
		l0.14,0.09l0.42,0.05l0.19,0.19l-0.14,0.47l-1.69,2.57l-1.54-2.71l-0.14-0.33l0.14-0.19l0.33-0.05l0.19-0.09l-0.23-0.09h-1.31
		h-1.87l-0.23,0.09l0.09,0.14l0.51,0.09c0.42,0.14,0.7,0.42,0.98,0.89l2.11,3.46l-2.34,3.32c-0.42,0.61-0.66,0.84-0.98,0.94
		l-0.47,0.05l-0.19,0.09l0.19,0.09h0.23h1.03h1.17h0.23l0.23-0.09l-0.14-0.09h-0.28l-0.23-0.19l0.19-0.51l1.83-2.9l1.92,3.32
		l-0.05,0.28l-0.19,0.14l0.42,0.14h2.15h0.37l0.23-0.09l-0.14-0.09l-0.47-0.05c-0.33-0.09-0.51-0.23-0.7-0.51
		c-0.28-0.37-2.29-3.7-2.67-4.26L121.53,287.15"/>
	<path class="st0" d="M138.15,292.39l-0.05-0.09l1.5-4.07l0.09-0.09l0.05,0.09l1.54,4.07l-0.05,0.09H138.15L138.15,292.39z
		 M141.43,293l0.09,0.09l0.56,1.5l-0.09,0.28l-0.19,0.09l0.37,0.09h2.29l0.56-0.09l-0.14-0.09l-0.51-0.05
		c-0.23-0.09-0.61-0.23-1.08-1.31c-0.8-1.87-2.72-6.83-3-7.49l-0.33-0.37l-0.33,0.51l-3.04,7.63c-0.23,0.61-0.47,1.03-1.03,1.08
		h-0.37l-0.14,0.09l0.23,0.09h1.45h1.26l0.19-0.09l-0.19-0.09h-0.19c-0.37,0-0.47-0.14-0.47-0.37l0.19-0.7l0.23-0.7l0.09-0.09
		H141.43"/>
	<path class="st0" d="M148.92,291.55c0,1.12,0,2.11-0.05,2.62c-0.05,0.37-0.09,0.61-0.33,0.7l-0.42,0.05l-0.19,0.09l0.23,0.09h1.54
		h1.92l0.19-0.09l-0.19-0.09l-0.61-0.05c-0.37-0.05-0.47-0.33-0.47-0.66c-0.05-0.51-0.05-1.5-0.05-2.62v-4.96l1.54,0.05
		c1.08,0.05,1.4,0.37,1.45,0.7v0.14l0.14,0.23l0.09-0.19l0.05-1.4l-0.09-0.23l-1.17,0.09h-4.82l-1.22-0.05l-0.51-0.14l-0.14,0.23
		l-0.23,1.4l0.09,0.19l0.14-0.14l0.19-0.47c0.19-0.28,0.47-0.33,1.17-0.33l1.83-0.05L148.92,291.55"/>
	<path class="st0" d="M170.13,290.61l0.09-0.09l1.78,0.05c0.37,0.05,0.56,0.28,0.61,0.42l0.05,0.37l0.09,0.14l0.09-0.23l0.05-0.89
		l0.09-0.75l-0.09-0.09l-0.14,0.14l-0.56,0.19h-0.51h-1.54l-0.09-0.14v-3.04l0.14-0.19l1.87,0.05c0.47,0,0.7,0.19,0.8,0.37
		l0.05,0.47l0.14,0.19l0.14-0.14l0.05-0.98l0.09-0.56l-0.09-0.09l-0.19,0.09l-0.51,0.05h-3.23h-1.73l-0.28,0.09l0.19,0.09l0.47,0.05
		c0.37,0.09,0.47,0.28,0.51,0.7l0.05,2.57v2.15c0,1.17,0,2.11-0.05,2.62c-0.05,0.37-0.09,0.61-0.37,0.7l-0.42,0.05l-0.19,0.09
		l0.28,0.09h1.54h1.87l0.28-0.09l-0.19-0.09l-0.61-0.05c-0.37-0.05-0.47-0.33-0.47-0.7c-0.05-0.51-0.05-1.4-0.05-2.62L170.13,290.61
		"/>
	<path class="st0" d="M177.95,291.55l-0.05,2.67c-0.05,0.33-0.14,0.56-0.37,0.61l-0.42,0.05l-0.19,0.09l0.23,0.09h1.54h1.92
		l0.23-0.09l-0.19-0.09l-0.66-0.05c-0.37-0.05-0.47-0.28-0.47-0.61l-0.05-2.67v-2.15v-2.57c0.05-0.42,0.09-0.66,0.47-0.7l0.37-0.05
		l0.19-0.14l-0.28-0.09h-1.5h-1.54l-0.28,0.09l0.19,0.14l0.42,0.05c0.28,0.09,0.37,0.28,0.42,0.7v2.57V291.55"/>
	<path class="st0" d="M186.75,289.21v-2.43l0.19-0.23l0.8-0.09c0.98,0,2.34,0.14,3.46,1.22c0.51,0.51,1.17,1.5,1.17,3.04
		c0,1.26-0.23,2.39-1.03,3.04c-0.75,0.61-1.54,0.89-2.81,0.89c-0.98,0-1.45-0.28-1.59-0.47l-0.14-0.94l-0.05-2.48L186.75,289.21
		L186.75,289.21z M185.25,291.55c0,1.12,0,2.11-0.09,2.62c-0.05,0.37-0.09,0.61-0.33,0.7l-0.47,0.05l-0.19,0.09l0.28,0.09H186
		l2.57,0.14c2.25,0,3.51-0.84,4.07-1.45c0.7-0.7,1.36-1.87,1.36-3.37c0-1.45-0.56-2.48-1.22-3.09c-1.31-1.36-3.37-1.36-4.87-1.36
		h-1.87h-1.78l-0.28,0.09l0.23,0.09l0.47,0.05c0.37,0.09,0.47,0.28,0.51,0.7l0.05,2.57L185.25,291.55"/>
	<path class="st0" d="M198.27,291.55l-0.05,2.62c-0.05,0.37-0.09,0.61-0.37,0.7l-0.47,0.05l-0.19,0.09l0.23,0.09h1.54l3.37,0.05
		c0.47,0,0.56,0,0.66-0.33l0.19-1.36l-0.09-0.23l-0.14,0.19c-0.09,0.47-0.23,0.75-0.56,0.89s-0.8,0.14-1.12,0.14
		c-1.22,0-1.45-0.19-1.45-1.03v-2.85l0.09-0.14l1.73,0.05c0.47,0.05,0.61,0.23,0.7,0.47v0.51l0.09,0.09l0.09-0.23l0.05-0.8
		l0.09-0.89l-0.09-0.09l-0.19,0.14l-0.61,0.19l-1.97,0.05l-0.09-0.14v-3.09l0.09-0.09l1.73,0.05c0.61,0.05,0.75,0.19,0.8,0.42
		l0.09,0.42l0.09,0.19l0.09-0.14l0.05-0.8l0.09-0.8l-0.09-0.09l-0.19,0.05l-0.51,0.09h-3.04h-1.73l-0.28,0.09l0.19,0.09l0.47,0.05
		c0.42,0.09,0.51,0.28,0.51,0.7v2.57L198.27,291.55"/>
	<path class="st0" d="M209.27,289.44v-2.57c0.05-0.42,0.14-0.66,0.47-0.7l0.47-0.05l0.19-0.09l-0.23-0.09h-1.64h-1.64l-0.23,0.09
		l0.19,0.09l0.42,0.05c0.37,0.09,0.47,0.28,0.51,0.7l0.05,2.57v2.15c0,1.12,0,2.11-0.05,2.62c-0.05,0.37-0.09,0.61-0.37,0.7
		l-0.42,0.05l-0.19,0.09l0.23,0.09h1.54l3.56,0.05c0.61,0,0.7-0.05,0.75-0.33l0.19-1.4l-0.09-0.19l-0.14,0.19l-0.33,0.75
		c-0.28,0.33-0.8,0.33-1.45,0.33c-0.94,0-1.26-0.09-1.45-0.28c-0.23-0.23-0.23-1.08-0.23-2.62L209.27,289.44"/>
	<path class="st0" d="M216.85,291.55l-0.05,2.67c-0.05,0.33-0.14,0.56-0.37,0.61l-0.47,0.05l-0.19,0.09l0.23,0.09h1.54h1.92
		l0.23-0.09l-0.23-0.09l-0.61-0.05c-0.37-0.05-0.47-0.28-0.47-0.61c-0.05-0.51-0.05-1.5-0.05-2.67v-2.15l0.05-2.57
		c0.05-0.42,0.14-0.66,0.47-0.7l0.37-0.05l0.19-0.14l-0.23-0.09h-1.5h-1.59l-0.28,0.09l0.19,0.14l0.47,0.05
		c0.28,0.09,0.37,0.28,0.42,0.7v2.57v2.15"/>
	<path class="st0" d="M225.23,295.29c0.66,0,1.36-0.09,1.97-0.51c0.89-0.56,1.12-1.4,1.12-2.11c0-1.12-0.56-1.97-2.01-3.09
		l-0.33-0.28c-0.98-0.75-1.26-1.17-1.26-1.73c0-0.75,0.56-1.26,1.45-1.26c0.8,0,1.12,0.37,1.31,0.61c0.28,0.33,0.33,0.7,0.33,0.8
		l0.14,0.19l0.14-0.37l0.05-1.45l-0.19-0.14c-0.33-0.09-0.84-0.19-1.64-0.19c-1.69,0-2.81,0.98-2.81,2.29c0,0.98,0.47,1.87,1.78,2.9
		l0.56,0.42c1.03,0.8,1.17,1.36,1.17,1.97c0,0.61-0.51,1.36-1.64,1.36c-0.75,0-1.45-0.33-1.73-1.22l-0.14-0.61l-0.09-0.23
		l-0.14,0.33l-0.05,1.59l0.23,0.42C223.97,295.2,224.53,295.29,225.23,295.29"/>
	<path class="st0" d="M149.11,82.51c-6.37,0-13.58,1.5-19.1,3.93c0.09-1.22,0.51-2.29,1.31-3.23c3.23-3.88,11.61-5.24,17.79-5.24
		c6.23,0,14.61,1.4,17.79,5.24c0.8,0.94,1.22,2.01,1.31,3.23C162.69,84,155.57,82.51,149.11,82.51z M159.97,91.49L158,86.95
		c3,0.56,5.9,1.45,8.38,2.53l1.17,4.68C165.68,93.41,163.11,92.33,159.97,91.49z M141.29,90.79l-3.37-3.32
		c2.76-0.7,5.71-1.17,8.57-1.36l2.01,3.93C145.88,90.09,143.49,90.37,141.29,90.79L141.29,90.79z M130.24,94.35l-0.98,0.42
		c-1.36,0.51-2.29,0.09-2.62-0.56c-0.37-0.7-0.14-1.87,1.54-2.9l0.7-0.37l3.23,2.62L130.24,94.35L130.24,94.35z M149.11,70.39
		l4.59,3.32c-1.97-0.19-3.6-0.23-4.59-0.23s-2.62,0.05-4.59,0.23L149.11,70.39z M143.87,58.22c-1.87-4.07-2.39-9.41,3.37-6.83
		l0.47,6.83H143.87z M148.27,43.48l0.84,0.61l0.84-0.61l3.32-2.43l-1.92,6.46l-0.19,0.05c-0.33-0.8-1.12-1.36-2.06-1.36
		c-0.94,0-1.69,0.51-2.06,1.36l-0.19-0.05l-1.92-6.46L148.27,43.48L148.27,43.48z M153.18,69.82l-3.28-2.39l-0.84-0.61l-0.84,0.61
		l-3.28,2.39l2.11-6.88h3.98L153.18,69.82z M154.35,58.22h-3.84l0.47-6.83C156.74,48.81,156.22,54.15,154.35,58.22z M135.02,59.81
		l2.39-3.28l0.61-0.84l-0.61-0.84l-2.39-3.28l4.87,1.5c0.28,2.11,0.75,3.51,1.26,4.82L135.02,59.81L135.02,59.81z M158.38,53.12
		l4.87-1.5l-2.39,3.28l-0.61,0.84l0.61,0.84l2.39,3.28l-6.13-1.87C157.63,56.63,158.1,55.22,158.38,53.12L158.38,53.12z
		 M188.62,44.74c0.09-1.83-3.28-3.23-4.12-3.28c-1.4-0.09-3.23,2.9-5.06,4.73c-1.64-8.75-0.8-12.49,0.14-16.38
		c3.7,6.69,8.66,8.14,11.33,7.82c-8.9-7.07-7.35-13.52-10.07-13.9c-1.54-0.14-2.67-0.05-3.42-0.05c-3.14,0-3.56,6.04-3.93,8.8
		c-2.01-3.74-4.03-6.93-7.44-11.23c-3.28-8.42-7.3-6.32-11.38-10.11c3.18,4.82,0.61,7.77,7.96,11.23c1.92,1.83,4.17,4.68,5.66,6.97
		c-1.22,1.64-2.06,2.57-3.23,3.7c-0.89,1.36-1.36,6.6-4.21,10.53c4.21-1.83,5.85-4.4,7.35-6.93c13.3,10.01,2.48,35.61-0.56,41.23
		c-2.9-1.97-6.65-3.09-10.07-3.7l-0.37-1.12l-3.14-10.11h1.45c1.64,0,2.06-1.12,1.78-2.01l9.18,2.85l4.07,1.26l-2.48-3.42l-4.26-5.9
		l4.26-5.85l2.48-3.46l-4.07,1.26l-8.24,2.53c-0.56-1.87-2.11-2.76-3.79-2.99l2.76-9.36l1.17-4.02l-3.37,2.48l-5.9,4.21l-5.9-4.26
		l-3.37-2.48l1.17,4.02l2.76,9.36c-1.64,0.23-3.23,1.12-3.79,2.99l-8.24-2.53l-4.03-1.26l2.48,3.46l4.26,5.85l-4.26,5.9L127.71,65
		l4.03-1.26l9.22-2.85c-0.28,0.89,0.05,2.01,1.78,2.01h1.45l-3.14,10.11l-0.37,1.12c-3.51,0.61-7.35,1.78-10.3,3.84
		c-8.94-17.36-6.46-34.91,1.08-40.71c-0.14,3.7,3.09,8.7,4.59,9.73c-0.94-3.79,0.75-10.58-1.22-12.26c-1.4-1.17-3.46-1.78-5.71-1.68
		c1.5-2.48,3.6-5.66,7.16-10.34c5.29-2.48,6.79-8.61,8.1-11.7c-5.76,2.11-9.93,5.05-10.86,9.87c-2.01,2.71-4.26,5.85-6.79,9.59
		c0.14-4.54-2.39-6.13-5.66-6.36c-9.64,2.01-8.94,8.98-17.23,13.81c5.66,1.97,14.51-10.44,17.56-9.03
		c0.47,7.63-1.26,13.62-1.26,17.74c-1.45-1.59-2.2-2.67-3.42-2.9c-1.17-0.19-4.4,0.05-6.65,2.48c-0.61,3.84-0.47,11.14-4.07,19.8
		c5.38-4.91,7.96-14.6,8.8-17.41c1.36,1.87,2.86,6.08,3.23,9.64c0.66,6.93,4.92,18.48,8.52,24.05c-0.98,1.92-1.31,4.12-0.94,6.5
		c-2.81,2.11-3.14,5.01-2.15,6.97c1.03,2.11,3.84,3.56,7.07,2.25l1.03-0.42c3.42-1.4,9.78-4.07,17.51-4.07
		c7.72,0,14.09,2.67,17.56,4.07l1.03,0.42c3.23,1.31,5.99-0.14,7.07-2.25c0.98-1.97,0.66-4.91-2.15-6.97
		c0.37-2.57-0.05-4.91-1.22-6.97l0.09,0.09c6.6-9.41,7.07-27.38,12.5-32.48c0.47,6.32,3.79,11.51,7.12,12.21
		C188.43,57.28,188.43,48.67,188.62,44.74"/>
	<path class="st0" d="M105.19,191.12l-4.07,0.05c-0.61,7.07-0.33,13.48,0.66,19.37c2.53-4.16,5.06-8.33,4.92-11.23
		C106.55,196.27,105.85,193.55,105.19,191.12"/>
	<path class="st0" d="M119.66,203.34c1.4,3.88,3.14,10.06,4.54,14.37c-1.22,0.09-2.39,0.14-3.51,0.33
		c-0.61-1.54-2.62-6.65-4.73-11.61C114,201.84,118.68,200.62,119.66,203.34L119.66,203.34z M128.18,199.17
		c0.33-2.29,6.79-2.71,5.57,2.29c-1.22,5.1-2.76,11.04-3.93,16.14h-1.64h-1.64c-1.17-5.1-2.72-11.04-3.93-16.14
		C121.39,196.46,127.85,196.92,128.18,199.17L128.18,199.17z M140.45,206.47c-2.11,4.96-4.12,10.06-4.73,11.61
		c-1.08-0.19-2.29-0.28-3.46-0.33c1.4-4.35,3.09-10.48,4.54-14.37C137.73,200.62,142.37,201.84,140.45,206.47L140.45,206.47z
		 M119.66,220.88c1.4-0.51,6.88-0.75,8.52-0.75c1.64,0,7.07,0.28,8.52,0.75c0.14,0.75,0.14,1.78,0.05,2.53
		c-2.11,0.61-5.81,0.94-8.57,0.94c-2.76,0-6.46-0.33-8.57-0.94C119.52,222.66,119.52,221.63,119.66,220.88z M134.97,236.94
		c-1.83,0.42-4.78,0.61-6.74,0.61c-1.97,0-4.92-0.19-6.79-0.61l0.7-3.04c-1.4-0.14-2.81-0.66-3.93-1.08
		c0.56-1.97,1.45-3.98,2.2-6.69c2.53,0.56,4.96,0.8,7.77,0.8c2.81,0,5.24-0.23,7.77-0.8c0.75,2.71,1.64,4.73,2.25,6.69
		c-1.12,0.37-2.57,0.94-3.93,1.08C134.27,233.94,134.97,236.94,134.97,236.94z M106.97,191.07c0.7,2.43,1.31,5.15,1.45,8.1
		c0.14,3.46-2.43,7.72-5.15,12.26l-0.94,1.54c7.82,38.61,45.18,51.48,45.18,51.48v-73.28C147.52,191.17,119.38,191.07,106.97,191.07
		"/>
	<path class="st0" d="M188.48,198.33l-0.14-1.83h1.83c2.48,0,3.7-2.39,4.35-5.15c-9.55-0.09-43.91,0.05-43.91,0.05v35.38
		c2.86-2.11,5.62-3.88,9.22-5.01V214h3.56c0.19-8.56,2.25-14.74,6.23-18.81l1.12-1.22l1.17,1.22c3.98,4.07,6.04,10.25,6.23,18.81
		h3.7v8.28c3.93,1.64,6.55,4.12,8.57,6.74c3.23-6.6,5.62-14.23,6.51-23.07l-0.51,0.05C192.74,206.05,188.81,203.38,188.48,198.33"/>
	<path class="st0" d="M197.05,191.4l-0.7-0.05c-0.84,4.07-2.72,6.83-6.09,6.88c0.28,4.02,3.32,6.08,6.23,6.08l0.7-0.09
		C197.42,200.15,197.47,195.94,197.05,191.4"/>
	<path class="st0" d="M179.31,237.22l-3.14-3.56l-5.29,4.73l2.2,2.48c0,0,2.2-1.03,4.21,1.22c-1.5,1.31-4.07,3.56-5.57,4.82
		c-1.97-2.29-0.61-4.31-0.61-4.31l-2.15-2.48l-6.51,5.8l-2.11-2.43l6.65-5.57l-2.39-2.76l-2.2,1.92c-1.87-2.2-3.37-5.1-2.01-8.75
		c3.79-0.84,6.46,1.03,8.33,3.18l-2.15,1.92l2.39,2.76l5.43-4.54l-3.14-3.56c2.81-0.33,5.24,0.66,6.65,2.25
		C179.4,231.93,180.05,234.5,179.31,237.22L179.31,237.22z M170.78,223.55c-10.39,0-14.42,2.9-20.18,7.25v33.83
		c0,0,24.72-8.47,38.16-32.34C185.72,227.67,181.18,223.55,170.78,223.55"/>
	<path class="st0" d="M109.64,162.39c5.2-2.95,7.87-5.1,10.63-9.45c-2.01-0.98-4.45-2.81-6.27-5.33c9.88,2.76,14.89,4.21,26.54,0.09
		c-1.92,2.99-4.73,4.77-7.12,6.32c2.62,4.35,5.24,9.31,6.18,13.29c-3.46-0.28-7.44,0.56-10.25,3.14c-4.35,0.19-9.88,1.59-12.92-8.28
		c-1.54,0.8-3.14,1.87-3.14,1.87c1.78,6.46,5.06,10.86,13.76,9.92c0.47,2.06,0.84,3.23,1.92,4.96c-3.56,2.06-12.5,7.35-19.34,1.31
		C109.64,180.12,109.64,162.39,109.64,162.39z M142.32,176.94c-0.94,1.31-6.51,3.04-7.87,2.15c-2.34-1.4-3.51-4.49-2.95-5.8
		c0.66-1.68,6.84-3.42,8.8-2.76C142.27,171.19,143.12,175.82,142.32,176.94L142.32,176.94z M158.99,169.5v-1.83l-4.35-0.05
		c1.03-4.59,9.97-10.44,14-11.79c-0.23-5.01,6.37-6.65,11.66-6.79c6.55-0.19,8.1,6.83,8.1,9.03c0,2.9-0.75,9.31-4.4,11.28
		c-5.24,2.81-9.74-1.17-9.74-4.77c0-3.93,2.76-6.27,7.49-5.76s4.4-2.15,0.8-3.04c-1.73-0.42-9.27-0.8-11.75,4.77
		c-1.45,0.05-3-0.51-3.89-1.4c-0.98,1.26-2.48,2.11-4.59,2.71c1.83,3.7,5.52,3.09,7.82,1.31l-0.09,1.59c0,9.13,9.74,11.42,15.73,8
		c-0.98,2.95-0.51,6.69-0.14,9.22h-23.55c0.42-2.53,3.56-5.38,6.18-7.25l-2.11-3.32c-2.57,1.12-4.96,2.15-7.72,2.85
		C151.82,176.01,152.2,171.37,158.99,169.5L158.99,169.5z M102.53,172.96c2.62,2.15,3.6,3.74,2.81,11
		c-0.09,0.89,0.37,2.62,0.89,4.45h88.76c0.09-0.98,0.14-1.92,0.14-2.71c0.09-3.98-0.66-7.16-1.92-8.47
		c-0.42-0.42-0.89-0.66-1.73-0.66h-0.09l-3.56,0.37l1.87-3.04c1.87-2.99,4.49-4.68,7.3-4.91v-26.35h-95.69v29.39l0.98,0.61
		L102.53,172.96"/>
	<path class="st0" d="M101.31,174.18v14.23h3.14c-0.56-1.87-0.98-3.51-0.84-4.68C104.4,176.57,103.32,175.82,101.31,174.18"/>
	<path class="st0" d="M197.05,188.41v-17.64c-2.06,0.19-4.21,1.5-5.85,4.12l0.51-0.05c3.93,0,5.29,5.38,5.2,10.86
		c0,0.94-0.05,1.83-0.14,2.71H197.05"/>
	<path class="st0" d="M124.58,164.21c1.64,0.8,3.65-0.14,5.81,0.14c-0.42-0.94-0.84-1.59-0.61-2.9c0.51-2.57-1.5-3.23-2.48-3.14
		c-2.39,0.14-3.75,0.66-6.27,0C122.75,160,122.28,163.14,124.58,164.21"/>
	<path class="st0" d="M103.74,183.63c0.84-7.35-0.33-7.96-2.43-9.69c-1.83-1.5-4.87-1.97-7.91-4.07c-2.15-1.5-2.76-3.65-5.52-6.55
		c0.56-6.22,4.96-13.76,8.24-15.49c0.47-0.23,0.33-9.83,0.33-9.83s2.15-0.09,1.97-0.23c-2.9-1.78-6.46-0.42-8.99,2.57
		c-2.48,1.97-8.15,5.8-12.03,7.11c-5.29-4.45-13.53-8.38-19.57-14.41c0,0,7.96-0.05,11.66-1.59c0.98-0.61,3.51-4.68,2.48-8.56
		c-1.26-0.42-3.04-1.36-4.78-2.34c-2.2-1.26-4.31-2.57-5.29-3.32c-3.46-2.62-4.87-4.91-10.86-6.41c0.37-2.76,0.98-2.11,3.6-3.88
		c3.37-2.29,5.24-5.01,6.55-7.67c1.03-2.11-0.14-6.46-2.86-0.94c-0.94,1.97-3.56,4.54-6.51,5.33c0.23-1.68,0.33-2.67,0.33-3.6
		c8.75-6.18,7.91-11.65,7.21-16.75c-0.37-2.95-3.32-4.21-3.23-1.12c0.09,2.01,1.92,7.82-4.12,11.23c-0.14-2.57-0.84-3.74-1.36-5.05
		c5.34-7.02,3.09-13.81,0.84-16.89c-1.45-1.97-4.96-2.67-3.37,0.47c1.31,2.57,3.42,9.5-0.51,12.35c-1.36-1.73-2.95-2.39-3.46-4.68
		c0.51-7.72,0.05-12.4-0.94-15.07c-0.94-2.53-3.37-4.12-3.14-0.37c0.19,4.26,0.56,9.59,0.19,9.92s-6.04-4.91-8.33-6.5
		c-2.34-1.59-5.1-0.98-2.39,2.15c2.39,2.76,9.6,8.1,8.66,9.83c-0.56,1.08-5.76-3.18-8.43-4.07c-2.72-0.94-3.56,0.51-1.26,2.39
		c3.7,2.99,6.13,5.01,12.17,7.02c6.04,2.01,9.08,10.39,7.16,22.37c-0.09,0.56-1.12,0.47-1.73,0.28c-0.28-4.54-1.08-10.01-2.15-12.45
		c-1.45-3.18-4.26-3.23-3.23,1.08c0.84,3.37,1.31,7.02,0.7,11.56c-5.01-0.84-6.88-2.2-8.99-3.42c-0.23-2.34,0.98-6.13,1.17-9.55
		c0.19-3.37-1.78-5.48-2.9-1.26c-1.08,4.02-1.78,5.99-2.43,8.89c-1.45-0.47-2.95-1.12-3.65-1.92l-0.37-8.24
		c-0.37-3.74-1.78-3.6-2.86-0.33c-0.51,1.5-0.94,3.51-1.08,5.94c-1.78-1.08-2.95-3.09-3.14-4.73c0.28-3.88,0.94-8,1.4-10.58
		c0.33-1.87-0.94-5.62-2.39-1.08c-1.03,3.28-1.31,5.99-1.97,8.28c-1.26-0.09-2.95-7.49-3.79-12.21c-0.37-2.15-2.2-4.59-2.53,0.19
		C7.54,83.02,8.66,88.36,9.97,90.7c-2.57-0.28-5.01-4.87-6.79-7.58c-1.59-2.39-2.34,0.09-2.15,1.08
		c1.54,9.41,9.04,12.73,12.45,13.43c5.24,7.53,15.31,10.81,23.83,14.46c-11.05-0.14-13.95,4.31-19.01,1.4
		c0.23,4.16,2.29,6.08,4.31,7.07c1.4,0.66,2.81,0.84,3.46,0.98c0.94,5.05,5.71,4.77,9.83,5.05c-1.03,9.87,0.14,22.88,8.8,32.62
		c-0.23,5.01-0.61,11.56-0.51,15.91c-7.12,6.6-13.44,20.4-15.92,28.03c-1.87,5.71-4.68,10.15-9.04,12.26
		c3.56,3.74,8.8,1.87,11.84-0.19c0.19,3.37,0.98,5.71,1.5,7.72c-2.01,2.99-3.42,5.1-3.23,8.8c-2.29,0.66-3.89,2.06-5.1,3.6
		c-0.8,0.98,0.14,5.52,0.98,7.44c2.81,6.32,0.61,20.64,0.14,24.85c1.22,0.05,3.37,0.14,3.84-1.64c0.7,0.66,2.43,1.92,3.23,4.63
		c-0.19,1.17-0.84,5.57,1.4,6.13c1.83,0.47,9.78,0.19,10.86-1.17c-0.8-0.94-2.2-3.04-3.04-5.15c0-2.15-0.19-4.77-0.8-5.9
		c-0.94-1.59-3.23-5.24-4.68-6.74c-0.33-2.62-0.56-14.27,0.66-18.77c2.06-1.4,16.06-11.79,18.96-21.76
		c2.57,0.89,1.78,7.82,1.78,16.8c0,2.43,2.95,3.65,4.68,3.84c3.79,0.47,9.18,4.07,15.22,13.01c1.17-1.26,2.72-2.43,2.72-2.43
		c0.8,1.03,1.69,3.6,2.25,5.29c0.66,1.22,5.52,1.97,9.27,0.84c1.22-0.42,1.97-0.66,2.76-1.97c-4.73-8.28-7.58-13.76-13.67-18.34
		c-2.81-2.11-6.6-3.18-9.74-5.19c2.11-3.98,7.91-22.51,4.4-29.29c-1.17-2.25-5.57-4.45-10.96-3.46
		c4.49-5.38,13.58-16.05,14.79-19.33c1.03,1.26,6.41,0.37,10.44,1.97c1.45,0.61,5.57,5.9,5.76,7.72c0.37,3.28,0.51,7.16-1.73,16.14
		c1.59-0.28,1.36-0.33,2.95-0.98c0.28,2.39-0.47,4.26-2.57,7.86c0.51,3.23,1.97,8.24,3.51,9.13c2.01-6.04,9.55-14.6,9.32-19.65
		C106.55,192.34,103.37,186.58,103.74,183.63"/>
</g>
</svg>
