<?xml version="1.0" encoding="utf-8"?>
<!-- Generator: Adobe Illustrator 28.3.0, SVG Export Plug-In . SVG Version: 6.00 Build 0)  -->
<svg version="1.1" id="Layer_1" xmlns="http://www.w3.org/2000/svg" xmlns:xlink="http://www.w3.org/1999/xlink" x="0px" y="0px"
	 viewBox="0 0 600 316" style="enable-background:new 0 0 600 316;" xml:space="preserve">
<style type="text/css">
	.st0{fill:#495163;}
</style>
<g>
	<path class="st0" d="M460.3,121.8c-1,0.3-3.6,1-5.2,1.2c3.2-3.1,5.1-6.8,5.1-9.9c-1.5,0.5-4.2,1.5-6.7,2.1c4.9-4.1,7.6-9,6.4-15.4
		c-1.5,0.7-3.6,2-5.7,2.8c4.2-6.6,4.2-12.4,2.4-15.7c-1.9,1.8-4.2,3.8-6.7,5.3c1.6-7.6,1.5-12.5-1.7-15.9
		c-3.3,6.1-6.1,10.7-10.6,16.1c0.4-5.1-0.2-11.2-3.5-14.5c0,0-0.9,7-3.4,9.3c-0.6-6.8-2.7-10.6-5.8-14.2c0,0-0.2,7.1-2.2,11.5
		c-1.7-6-4.8-10.6-8.6-15.1c0.3,13.2-3.4,38.1-14,54.8c-1.2,9.9-2.3,24.8-18.5,33.6c-2.3-1.7-6.5-3.7-12.2-3.4
		c-1.5-7.5,8.2-14.2,16.7-19.8c8.5-5.5,12.3-10.2,12.1-17.5c-0.2-8.1-5.6-11.3-11.2-11.5c-8-0.4-14.4,6.8-15.9,9.8
		c-2.2,1.1-9.1,3.2-11.9,3.9c-3.1,0.8-6.6,2.1-8.7,3.9c1.3,0.8,5.1,1.1,6.5,0.8c2.7-0.4,11.2-2,19.5-3c3,1.6,7.9,4.3,2.7,7.9
		c-6.9,4.5-9.9,5.6-19.9,10.8c-15.6,8.2-10.6,28.7-6.7,30.2c0,6.9,6.2,19.5,10.4,23.8c1.9,8.7-0.7,21.6-3.3,27.1
		c-2.2-5.2-5.9-17.5-8.3-24.6c2.5-13.5-1.6-19.5-4.4-21.7c-2.8-2.3-7.4-1.7-10.2,3c4.5-0.5,6,5.2,5.9,11.2c-0.1,7.1-2,12.8-6.9,12.9
		c0.4,6.1,6.9,7.9,10.2,4.9c0.6,1.3,3.2,9.4,5.6,16.6c1.5,4.2,2.9,8.2,3.8,10.1c1,2.2,8.6,2.6,9.6,0c1.2-3.5,2.2-6.1,4-10.1
		c1.4-3.1,3.5-7,6.5-12.8c2.1,3.6,4.8,9.1,6.4,12.8c0.7,1.8,1.2,3.2,1.3,3.7c0.7,5.8,0.3,26.5-1.3,38.9c-17-4.7-21.8,3.7-20.3,9.8
		c2.4-2.7,5.6-2.3,7.6-0.9c-0.5,4.6,0.7,7.8,5.3,9.2c4.9-12.9,22.4-10,24.1-9c0.1-2.5,2.4-8.7-6.6-10c0.4-11.2,1.5-24.8,1.9-27.6
		c0.5-2.8,0.7-4.7-0.7-9.1c-0.4-1.3-0.8-3-1.4-5c-1.1-4.5-2.3-10.4-2.4-16.8c1.6,1.6,5.3,2.8,7.9,2.2c2,8.4,4.9,6,6.4,9.6
		c0.7,1.9,0.9,3.6,1.1,5.1c0.2,1.5,0.5,2.7,1.2,3.8c6,0.2,11.2-1.2,14.8-3.8c1.1-0.7,2.2-1.7,3-2.6c-1.5-9-4-13.4-8.7-18.8
		c-1.2-7.4-4.7-14.1-9.4-20.1c6-2,12-6.7,15.1-10.1c2.8-0.2,6.1-2.5,6.4-7.2c1.7-0.2,3.1-0.3,4.3-0.6c-0.2-1.2-0.5-3.2-0.7-4.3
		c2.2,0,4.2-0.1,6.3-0.3c-0.6-1.7-1.3-3.5-2-4.8c2.2,0,4.9-0.2,7-0.3c-1.1-2.2-2.1-4-2.7-6c2.5-0.3,6.4-0.8,9.6-1.7
		c-1-1-2.2-2.2-3.9-3.8c8.2-2.4,11.9-8.2,12.3-10.8c-1.2,0-3.7,0.6-5.2,0.5C456.6,129.6,459.7,125.8,460.3,121.8"/>
	<path class="st0" d="M344.2,140.4H239.6v38.7c0.5,0.3,0.9,0.7,1.4,1v-38.1h104.2v35.4c0.4,0.4,0.7,0.8,1,1.5v-38.6L344.2,140.4"/>
	<path class="st0" d="M292.7,273.8c-46.2-17.2-52.1-55.1-52.3-72.4l-0.2-0.1l0.2-1.2c0-3.7,0.3-6.3,0.5-7.1
		c-0.2-2.4-0.5-4.4-0.9-5.8l-0.5-0.9v17.9c0,20,7.3,37.2,21.7,51.2c12.7,12.3,26.9,18,30.9,19.4l0.7,0.3l0.7-0.3
		c4-1.4,18.3-7.1,30.9-19.4c14.4-14,21.7-31.2,21.7-51.2v-3.3c-0.4,0.6-0.7,0.9-1.1,1.4c-0.5,9-2.1,22.9-8.1,33.4
		C329.9,250.4,318.9,262.5,292.7,273.8"/>
	<path class="st0" d="M209.8,35.8c6.6,3.2,8.7-2.7,21,5.2c-8.2,2.5-14.4,12.7-23.6,10c6.6-3.3,5.9-8.1,9.7-10.5
		C214.4,40.3,209.7,39.2,209.8,35.8z M233.4,101.3c-3.9-1.6-10-2.6-13.4,2.2c-1.9-3.2,0.8-8.1,2.6-9.5c-8.6,0.2-13.6-2.4-14.8-5.2
		c3.2-1.8,11.2-4.7,17.9,0.2c4.6,3.4,6.8,5,12.3,6.7c2-2,1.2-1,1.9-1.7c-4.4-3.1-6.4-26.6-15.1-27.5c1.2-3,5.7-2.7,9.4-1.8
		c0.3-5.2-2-14-5.2-18.9c5.1-2.6,8.4,0.3,10.2,6.5c1.9,6.7-0.4,23.2,4,38.2l2.7-2.5c-1.3-8.7,8.2-12,10.3-16.3
		c0.8,5.8-0.4,8.4-2.1,10.6c3.5,0.4,5.1,3.8,4.5,6.2c-8.3-1.2-13.2,7.1-11.3,13.8C241.1,103.8,236.8,102.8,233.4,101.3L233.4,101.3z
		 M274.2,106.2c-7.2,0.4-14.2,9.7-11.2,20.4c-1,0.4-4.2,0.4-5.2-1.9c-0.7,3.5-7.9,7.5-12.9,6.9c2.8-3.1,4.8-10,10.3-13.7
		c5.5-3.7,8.1-6.2,10-12.5c-2.5,1.2-16,4.7-19.9,0.6c8.9-1.3,19.3-6.3,24.5-9.6l-2.1-2.2c-5.5,3.2-12.9,5.7-16.8,6.8
		c-1.3-11.1,9.2-10.7,10-7.7c4.3-5.2,1.3-12.6-2-13.4c3.3-8.9,0-14.2-2.8-17.5c-0.7,9.4-11.2,10.9-12.4,18.1
		c-0.4-5.7-0.7-21.2-1.2-28.7c-0.7-13.9-18.4-18.8-21.1-18.8c-11.5,0.6-12.7-0.9-12.4-6.3c-5.8,6.7-3.8,12.6,1.1,15.5
		c-0.7,4-7.1,7.1-11,8c9.4,8.7,20.2,3.6,25.5-1.4l1.1-1c1.9,3.4,3.3,9.4,3.3,12.8c-8.8-0.5-10.4,6.4-10.4,8.8
		c11.2-4.7,12.4,16.8,15.3,20.1c-2.8-0.2-7.9-6.8-15.3-7.2c-9-0.7-12.1,4.1-15.7,3.9c0.7,6.4,8.3,9.8,13.3,10.6
		c-2.5,6.5-0.3,10.9,5,12.5c0-5.9,7.5-7.8,15.5-3.1c9.7,5.6,14.5,6.1,22.3,3.7c-1.2,2.8-4.8,3.1-9.1,7.2c-6,5.9-6.2,13.6-12.8,16.4
		c7.9,3.7,19.7-1.5,21.4-4.5c3.3,2.1,7.5,0.8,8.6-1.2c-5.3-11.8,3.7-18.7,7.2-18.7C274.4,109.6,275.9,106,274.2,106.2"/>
	<path class="st0" d="M355.7,42.2c3.9-2.8,6.5-4,8.5-5.3c3.4,0.2,9.3-0.3,12.7-2.1c-3.7,4.5-4,6.2-10,6.7c7.8,0.7,11.1,7.7,14.9,8.7
		C368.8,54.3,367.5,41.5,355.7,42.2z M371.6,81c3.8,3.2,2.6,7.7,1.7,8.7c-3.4-5.8-14.2-3.8-25,8.2c-0.7,0.9-1.8,2-3,3
		c0.8-14.4-11-14.6-14.4-13.2c0.4-4.1,3-7,4.3-7.4c-3.5-4-4.2-9.1-4.7-12.7c5.7,2.5,14.3,9.3,15.7,20.9L350,86
		c-1.1-20.3-0.8-20.2-1-34.1c0-2,0.1-6.5,6.2-6c0.3,5.2,1,18.7,0.7,37.7h2.2c2-5.2,9-11.5,17.2-11c5.5,0.4,7.5,0.3,10.7-1.1
		C383.6,77.7,374.1,80.5,371.6,81L371.6,81z M359.9,73.9c0-13.1-0.5-23.9-0.7-27.3l1.6,0.5c9.4,3.3,11.5,14.6,31,1.8
		c-10.4,1.2-11-7.6-15.7-7.8c7.2-4,7.7-13.5,7.7-13.5c-6.1,4.9-20.1,5.2-22.9,6.7c-3.7,2.2-8.2,4.9-11.2,6.6
		c-8.1,4.4-2.4,28.4-3.3,37.1c-4.3-13-13.1-11.1-17.8-18.6c-3.5,6.3,0.2,16.7,1.7,19.7c-5.1,4-3.7,11.6-2.4,13.7
		c4.3-3.1,11-2.2,12.9,2.8c-5.6,3.5-15.1,4-21.6-2.2L317,96c4.6,6,15.9,8.3,24.5,3.5c-0.1,1.3-0.4,2.9-0.9,4.6
		c-4.4,2.3-10.1,3.6-16.6,1.3c0.8,6.6,8.4,11.4,15.7,13.5c-2.4,1.9-5.4,2.6-7.6,2.3c1.3,3.7,2.2,8.9-0.7,12.9
		c-3.6-2.3-5.5-4.8-6.8-14c-1.4-9.3-8.1-18.7-13.2-20.6c-0.3,3.3-0.3,1.9,0.3,3.9c13.8,10,6,28.2,20.2,34.8c5.2-6,5.3-8.1,4.5-13.7
		c5.2-1.3,9-5.7,10.4-9.1c-4.9,2.3-12.7-1.8-14.8-5c8.5-0.3,16.4-6.7,24.4-15.1c7.2-7.6,16.8-6.4,16-0.5c5-0.7,6.9-7.6,5.2-11.9
		c7.3-2.2,13-7.7,13.8-16.1C381.5,72,369.1,64,359.9,73.9"/>
	<path class="st0" d="M306.9,118.5c-0.7,0-1.2,0.4-1.7,0.8l-2.3-0.4l0.1-4.2c0.7-0.4,1.2-1,1.2-2c0-1.1-0.9-2.2-2.1-2.2
		c-1.1,0-2.1,0.9-2.1,2.2c0,0.8,0.5,1.5,1,1.9l-0.1,4l-2.2-0.2c-0.3-0.7-1-1.2-1.9-1.2c-1.1,0-2.1,0.9-2.1,2.1s0.9,2.1,2.1,2.1
		c0.7,0,1.4-0.4,1.8-0.9l2.3,0.3l-0.1,6.2c-0.7,0.4-1.1,1-1.1,1.9c0,1.1,0.9,2.2,2.1,2.2c1.1,0,2.2-0.9,2.2-2.2
		c0-0.8-0.6-1.6-1.2-1.9l0.1-5.8l2,0.3c0.3,0.8,1,1.4,2,1.4c1.1,0,2.2-0.9,2.2-2.1C309,119.5,308.2,118.5,306.9,118.5"/>
	<path class="st0" d="M288.8,117.3c-0.8,0-1.6,0.5-2,1.2l-2.2,0.2l-0.1-4c0.7-0.4,1.1-1,1.1-1.9c0-1.1-0.9-2.2-2.1-2.2
		c-1.1,0-2.2,0.9-2.2,2.2c0,0.8,0.6,1.6,1.2,2l0.1,4.2l-2.3,0.4c-0.4-0.5-0.9-0.8-1.7-0.8c-1.1,0-2.1,0.9-2.1,2.2
		c0,1.1,0.9,2.1,2.1,2.1c0.9,0,1.7-0.6,2-1.4l2-0.3l0.1,5.8c-0.7,0.4-1.2,1-1.2,1.9c0,1.1,0.9,2.2,2.1,2.2c1.1,0,2.2-0.9,2.2-2.2
		c0-0.8-0.5-1.5-1.1-1.9l-0.1-6.2l2.3-0.1c0.4,0.6,1,0.9,1.8,0.9c1.1,0,2.2-0.9,2.2-2.1C290.8,118.3,289.9,117.3,288.8,117.3"/>
	<path class="st0" d="M292.9,135.1c-3.2,6-9,5.8-14.1,2.4c-2.1-1.3-4.1-2.2-6.1-2.5c0.8-5.9,2.3-17,3.4-26.3
		c6.6-3,14.6-3.7,16.7,3.9c2-7.6,10.1-6.8,16.7-3.9c1,9.4,2.5,20.4,3.4,26.3c-1.9,0.3-4,1.2-6.1,2.5
		C301.8,140.9,296,141.1,292.9,135.1z M316.7,135.4c-1.2-8.4-4.3-32.1-4.7-40.1l-3.7,0.2c0.1,1.3,0.2,3.2,0.4,5.2
		c-4.3-1.3-10-2.2-15.8-2.2s-11.5,0.8-15.8,2.2c0.2-2.1,0.4-3.8,0.4-5.2l-3.7-0.3c-0.4,8-3.4,31.7-4.7,40.1c-2.2,0.8-3.6,3-3.6,6.8
		c0,0,19.7,0.3,27.4,0.3s27.3-0.3,27.3-0.3C320.3,138.4,318.8,136.2,316.7,135.4"/>
	<path class="st0" d="M399.3,304.6H186.5c-0.9-6.7-2.2-11.2-3.4-14.8h219.5C401.5,293.5,400.2,297.8,399.3,304.6z M255.1,259.1
		c2,2.9,3.8,5.1,4.8,7.4c0.9,2.4,0.4,3.9-1.4,6.4c-4,5.6-11.1,10.5-16.6,13.5h-21.4C233.8,282.5,252,271.1,255.1,259.1L255.1,259.1z
		 M242.2,255c1.8-3.3,6-4.2,8.9-0.5c1.2,1.7,0.7,6-4.3,11.4C242.9,262.8,240.3,258.5,242.2,255L242.2,255z M327.2,272.8
		c-1.8-2.5-2.3-3.9-1.4-6.4c0.9-2.3,2.7-4.5,4.8-7.4c3.1,12,21.2,23.4,34.6,27.3h-21.4C338.2,283.3,331.2,278.5,327.2,272.8
		L327.2,272.8z M334.5,254.7c2.9-3.8,7.1-2.8,8.9,0.5c1.9,3.5-0.8,7.7-4.5,11.1C333.8,260.7,333.3,256.4,334.5,254.7L334.5,254.7z
		 M403.5,285.2c-2.2,0.7-5.1,1-9.2,1h-5.2c-17.7-0.4-35.9-5.6-47-17.1c15.4-15.6-2.7-28.3-12.5-15.2c-3.1,4.1-5.4,7-7.6,11.1
		c-1.7,3.3-0.5,6.5,3.4,11.4c2.1,2.7,7.3,6.9,11.5,9.7h-88.5c4.2-2.7,9.5-6.9,11.5-9.7c3.7-5,5.2-8.2,3.4-11.4
		c-2.2-4-4.6-6.9-7.7-11.1c-9.7-13.1-27.8-0.4-12.5,15.2c-11.2,11.4-29.3,16.7-47,17.1h-4.8c-4.1,0-6.9-0.5-9.2-1
		c-3.7-0.8-4.5,0.7-2.5,7c1.4,4.2,2.4,11.1,2.9,15.7h220.5c0.5-4.8,1.6-11.6,2.9-15.7C408,285.9,407.1,284.4,403.5,285.2"/>
	<path class="st0" d="M211.9,299.1L211.9,299.1l1.6-4.3l0.1-0.1l0.1,0.1l1.6,4.2l-0.1,0.1L211.9,299.1L211.9,299.1z M215.4,299.8
		l0.2,0.1l0.6,1.6l-0.1,0.3l-0.2,0.1l0.4,0.1h2.3l0.6-0.1l-0.2-0.1l-0.5-0.1c-0.3-0.1-0.7-0.3-1.1-1.3c-0.8-2-2.8-7-3.1-7.8
		l-0.4-0.4l-0.4,0.6l-3.2,7.9c-0.3,0.7-0.5,1-1,1.1h-0.4l-0.2,0.1l0.3,0.1h1.5h1.3l0.2-0.1l-0.2-0.1h-0.2c-0.4,0-0.5-0.2-0.5-0.4
		l0.2-0.7l0.3-0.7l0.1-0.1L215.4,299.8"/>
	<path class="st0" d="M221.7,297.9c0,1.9,0.5,2.7,1.1,3.4c0.9,0.8,2.2,0.8,2.8,0.8c0.8,0,1.8-0.1,2.6-0.9c1-0.8,1.2-2.3,1.2-3.7
		v-1.3v-2.6c0.1-0.5,0.1-0.7,0.5-0.7l0.4-0.1l0.3-0.1l-0.3-0.1h-1.5h-1.4l-0.3,0.1l0.3,0.1l0.5,0.1c0.5,0.1,0.6,0.3,0.6,0.7v2.6v1.6
		c0,1.3-0.1,2.4-0.7,3.2c-0.6,0.5-1.2,0.7-1.8,0.7c-0.5,0-1-0.1-1.6-0.6c-0.7-0.6-0.9-1.2-0.9-3.1v-1.8v-2.6
		c0.1-0.5,0.2-0.7,0.5-0.7l0.4-0.1l0.2-0.1l-0.3-0.1h-1.7h-1.9l-0.2,0.1l0.3,0.1l0.5,0.1c0.5,0.1,0.6,0.3,0.6,0.7l0.1,2.6
		L221.7,297.9"/>
	<path class="st0" d="M236.3,295.8v-2.5l0.2-0.3l0.8-0.1c1,0,2.4,0.2,3.6,1.2c0.6,0.6,1.2,1.6,1.2,3.2c0,1.3-0.3,2.4-1,3.2
		c-0.7,0.7-1.6,0.9-2.9,0.9c-1,0-1.5-0.3-1.7-0.5l-0.2-0.9v-2.5V295.8L236.3,295.8z M234.7,298.3c0,1.1,0,2.2-0.1,2.7
		c-0.1,0.4-0.1,0.7-0.4,0.7l-0.5,0.1l-0.2,0.1l0.3,0.1h1.6l2.7,0.2c2.3,0,3.7-0.8,4.2-1.5c0.7-0.7,1.3-2,1.3-3.5
		c0-1.5-0.6-2.5-1.2-3.2c-1.3-1.4-3.5-1.4-5.1-1.4h-2h-1.9l-0.3,0.1l0.2,0.1l0.6,0.1c0.4,0.1,0.5,0.3,0.6,0.7l0.1,2.6L234.7,298.3"
		/>
	<path class="st0" d="M248.7,299.1L248.7,299.1l1.5-4.3l0.1-0.1l0.1,0.1l1.6,4.2l-0.1,0.1C251.7,299.1,248.7,299.1,248.7,299.1z
		 M252,299.8L252,299.8l0.7,1.7l-0.2,0.3l-0.2,0.1l0.4,0.1h2.3l0.6-0.1l-0.2-0.1l-0.6-0.1c-0.3-0.1-0.7-0.3-1-1.3
		c-0.8-2-2.8-7-3.2-7.8l-0.3-0.4l-0.4,0.6l-3.2,7.9c-0.3,0.7-0.5,1-1,1.1h-0.4l-0.2,0.1l0.3,0.1h1.5h1.3l0.2-0.1l-0.2-0.1h-0.2
		c-0.4,0-0.5-0.2-0.5-0.4l0.2-0.7l0.3-0.7l0.2-0.1H252"/>
	<path class="st0" d="M264.4,293.7c0.4-0.6,0.7-0.9,0.9-1l0.5-0.1l0.2-0.1l-0.3-0.1h-1.3h-1.2l-0.3,0.1l0.2,0.1l0.5,0.1l0.2,0.2
		l-0.2,0.5l-1.8,2.6l-1.6-2.8l-0.2-0.4l0.2-0.2l0.4-0.1l0.2-0.1l-0.3-0.1h-1.3h-2l-0.3,0.1l0.1,0.2l0.6,0.1c0.5,0.2,0.7,0.5,1,0.9
		l2.2,3.6l-2.4,3.5c-0.5,0.7-0.7,0.8-1,0.9l-0.4,0.2l-0.2,0.1l0.2,0.1h0.3h1h1.2h0.3l0.3-0.1l-0.2-0.1h-0.3l-0.3-0.2l0.2-0.6l1.9-3
		l2,3.5l-0.1,0.3l-0.2,0.2l0.5,0.2h2.2h0.4l0.2-0.2l-0.2-0.1l-0.5-0.1c-0.4-0.1-0.6-0.3-0.7-0.6c-0.3-0.4-2.3-3.8-2.7-4.4
		L264.4,293.7"/>
	<path class="st0" d="M281.5,299.1L281.5,299.1l1.5-4.3l0.1-0.1l0.1,0.1l1.6,4.2l-0.1,0.1H281.5L281.5,299.1z M284.9,299.8
		L284.9,299.8l0.7,1.7l-0.1,0.3l-0.2,0.1l0.4,0.1h2.3l0.6-0.1l-0.2-0.1l-0.6-0.1c-0.3-0.1-0.7-0.3-1.1-1.3c-0.8-2-2.8-7-3.1-7.8
		l-0.4-0.4l-0.4,0.6l-3.2,7.9c-0.3,0.7-0.5,1-1,1.1h-0.4l-0.2,0.1l0.3,0.1h1.5h1.3l0.2-0.1l-0.2-0.1H281c-0.4,0-0.5-0.2-0.5-0.4
		l0.2-0.7l0.3-0.7l0.1-0.1L284.9,299.8"/>
	<path class="st0" d="M292.7,298.3c0,1.1,0,2.2-0.1,2.7c-0.1,0.4-0.1,0.7-0.4,0.7l-0.5,0.1l-0.2,0.1l0.3,0.1h1.6h2l0.2-0.1l-0.2-0.1
		l-0.7-0.1c-0.3-0.1-0.4-0.4-0.4-0.7c-0.1-0.6-0.1-1.6-0.1-2.7v-5.2l1.6,0.1c1.1,0.1,1.4,0.4,1.5,0.7v0.2l0.2,0.3l0.1-0.2l0.1-1.4
		l-0.1-0.3l-1.2,0.1h-5l-1.2-0.1l-0.6-0.2l-0.2,0.3l-0.3,1.4l0.1,0.2l0.2-0.2l0.2-0.5c0.2-0.3,0.5-0.4,1.2-0.4l1.9-0.1L292.7,298.3"
		/>
	<path class="st0" d="M314.6,297.3L314.6,297.3h2c0.4,0.1,0.6,0.3,0.7,0.5l0.1,0.4l0.1,0.2l0.1-0.3l0.1-0.9l0.1-0.7l-0.1-0.1
		l-0.2,0.2l-0.6,0.2h-0.6h-1.6l-0.1-0.2v-3.2l0.2-0.2l2,0.1c0.5,0,0.7,0.2,0.8,0.4l0.1,0.5l0.2,0.2l0.2-0.2l0.1-1l0.1-0.6l-0.1-0.1
		l-0.2,0.1l-0.6,0.1h-3.4h-1.8l-0.3,0.1l0.2,0.1l0.5,0.1c0.4,0.1,0.5,0.3,0.6,0.7l0.1,2.6v2.2c0,1.2,0,2.2-0.1,2.7
		c-0.1,0.4-0.1,0.7-0.4,0.7l-0.5,0.1l-0.2,0.1l0.3,0.1h1.6h2l0.3-0.1l-0.2-0.1l-0.7-0.1c-0.4-0.1-0.5-0.4-0.5-0.7
		c-0.1-0.6-0.1-1.4-0.1-2.7L314.6,297.3"/>
	<path class="st0" d="M322.7,298.3l-0.1,2.7c-0.1,0.4-0.2,0.6-0.4,0.7l-0.5,0.1l-0.2,0.1l0.3,0.1h1.6h2l0.3-0.1l-0.2-0.1l-0.7-0.1
		c-0.4-0.1-0.5-0.3-0.5-0.7l-0.1-2.7V296v-2.6c0.1-0.5,0.1-0.7,0.5-0.7l0.4-0.1l0.2-0.2l-0.3-0.1h-1.6h-1.6l-0.3,0.1l0.2,0.2
		l0.5,0.1c0.3,0.1,0.4,0.3,0.5,0.7v2.6V298.3"/>
	<path class="st0" d="M331.8,295.8v-2.5l0.2-0.3l0.8-0.1c1,0,2.4,0.2,3.6,1.2c0.6,0.6,1.2,1.6,1.2,3.2c0,1.3-0.3,2.4-1,3.2
		c-0.7,0.7-1.6,0.9-2.9,0.9c-1,0-1.5-0.3-1.7-0.5l-0.1-0.9l-0.1-2.5V295.8L331.8,295.8z M330.3,298.3c0,1.1,0,2.2-0.1,2.7
		c-0.1,0.4-0.1,0.7-0.4,0.7l-0.5,0.1l-0.2,0.1l0.3,0.1h1.6l2.6,0.2c2.3,0,3.7-0.8,4.2-1.5c0.7-0.7,1.4-2,1.4-3.5
		c0-1.5-0.6-2.5-1.2-3.2c-1.3-1.4-3.5-1.4-5.1-1.4h-2h-1.9l-0.3,0.1l0.3,0.1l0.5,0.1c0.4,0.1,0.5,0.3,0.6,0.7l0.1,2.6V298.3"/>
	<path class="st0" d="M343.7,298.3l-0.1,2.7c-0.1,0.4-0.1,0.7-0.4,0.7l-0.5,0.1l-0.2,0.1l0.3,0.1h1.6l3.5,0.1c0.5,0,0.6,0,0.7-0.4
		l0.2-1.4l-0.1-0.3l-0.2,0.2c-0.1,0.5-0.3,0.7-0.6,0.9s-0.8,0.2-1.1,0.2c-1.2,0-1.5-0.2-1.5-1v-3l0.1-0.2l1.8,0.1
		c0.5,0.1,0.7,0.3,0.7,0.5v0.6l0.1,0.1l0.1-0.3l0.1-0.8l0.1-0.9l-0.1-0.1l-0.2,0.2l-0.7,0.2l-2.1,0.1l-0.1-0.2v-3.2l0.1-0.1l1.8,0.1
		c0.7,0.1,0.7,0.2,0.8,0.5l0.1,0.5l0.1,0.2l0.1-0.2l0.1-0.8l0.1-0.8l-0.1-0.1l-0.2,0.1l-0.6,0.1h-3.2h-1.8l-0.3,0.1l0.2,0.1l0.5,0.1
		c0.5,0.1,0.6,0.3,0.6,0.7v2.6L343.7,298.3"/>
	<path class="st0" d="M355.1,296.1v-2.6c0.1-0.5,0.2-0.7,0.5-0.7l0.5-0.1l0.2-0.1l-0.3-0.1h-1.7h-1.7l-0.3,0.1l0.2,0.1l0.5,0.1
		c0.4,0.1,0.5,0.3,0.6,0.7l0.1,2.6v2.2c0,1.1,0,2.2-0.1,2.7c-0.1,0.4-0.1,0.7-0.4,0.7l-0.5,0.1l-0.2,0.1l0.3,0.1h1.6l3.7,0.1
		c0.7,0,0.7-0.1,0.7-0.4l0.2-1.4l-0.1-0.2l-0.2,0.2l-0.4,0.7c-0.3,0.4-0.8,0.4-1.5,0.4c-0.9,0-1.3-0.1-1.5-0.3
		c-0.3-0.3-0.3-1.1-0.3-2.7L355.1,296.1"/>
	<path class="st0" d="M362.9,298.3l-0.1,2.7c-0.1,0.4-0.2,0.6-0.4,0.7l-0.5,0.1l-0.2,0.1l0.3,0.1h1.6h2l0.3-0.1l-0.3-0.1l-0.7-0.1
		c-0.4-0.1-0.5-0.3-0.5-0.7c-0.1-0.6-0.1-1.6-0.1-2.7V296l0.1-2.6c0.1-0.5,0.2-0.7,0.5-0.7l0.4-0.1l0.2-0.2l-0.3-0.1h-1.6H362
		l-0.3,0.1l0.2,0.2l0.5,0.1c0.3,0.1,0.4,0.3,0.5,0.7v2.6L362.9,298.3"/>
	<path class="st0" d="M371.6,302.1c0.7,0,1.4-0.1,2.1-0.6c0.9-0.6,1.1-1.4,1.1-2.2c0-1.1-0.6-2.1-2.1-3.2l-0.4-0.3
		c-1-0.7-1.3-1.2-1.3-1.8c0-0.7,0.6-1.3,1.5-1.3c0.8,0,1.1,0.4,1.3,0.7c0.3,0.4,0.4,0.7,0.4,0.8l0.2,0.2l0.2-0.4l0.1-1.5l-0.2-0.2
		c-0.4-0.1-0.8-0.2-1.7-0.2c-1.8,0-2.9,1-2.9,2.3c0,1,0.5,2,1.9,3l0.6,0.5c1,0.8,1.2,1.4,1.2,2.1s-0.6,1.4-1.7,1.4
		c-0.7,0-1.5-0.4-1.8-1.2l-0.2-0.7l-0.1-0.3l-0.2,0.4l-0.1,1.7l0.3,0.5C370.3,302,370.9,302.1,371.6,302.1"/>
	<path class="st0" d="M292.9,82c-6.6,0-14.1,1.6-19.8,4c0.1-1.2,0.6-2.3,1.3-3.4c3.4-4,12-5.4,18.4-5.4c6.5,0,15.1,1.4,18.4,5.4
		c0.8,0.9,1.2,2.1,1.3,3.4C306.9,83.5,299.5,82,292.9,82z M304.1,91.3l-2.1-4.7c3.1,0.6,6.1,1.5,8.6,2.6l1.2,4.9
		C310,93.3,307.3,92.2,304.1,91.3z M284.8,90.6l-3.6-3.4c2.8-0.7,5.9-1.2,8.9-1.4l2.1,4C289.5,89.9,287.1,90.2,284.8,90.6
		L284.8,90.6z M273.4,94.3l-1,0.5c-1.4,0.5-2.3,0-2.7-0.7c-0.4-0.7-0.2-2,1.6-3l0.7-0.4l3.4,2.7L273.4,94.3L273.4,94.3z M292.9,69.5
		l4.8,3.5c-2.1-0.2-3.7-0.3-4.8-0.3c-1,0-2.7,0.1-4.8,0.3L292.9,69.5z M287.5,56.9c-2-4.2-2.4-9.7,3.5-7.1l0.5,7L287.5,56.9
		L287.5,56.9z M292,41.6l0.8,0.7l0.8-0.7l3.5-2.5l-2,6.7l-0.2,0.1c-0.4-0.8-1.1-1.4-2.2-1.4s-1.8,0.6-2.2,1.4l-0.2-0.1l-2-6.7
		L292,41.6L292,41.6z M297.1,68.9l-3.4-2.4l-0.8-0.7l-0.8,0.7l-3.4,2.4l2.2-7.1h4.1L297.1,68.9z M298.3,56.9h-3.9l0.5-7
		C300.8,47.2,300.2,52.7,298.3,56.9z M278.3,58.5l2.4-3.4l0.7-0.8l-0.7-0.8l-2.4-3.4l5.1,1.6c0.3,2.2,0.7,3.7,1.3,5L278.3,58.5
		L278.3,58.5z M302.4,51.7l5.1-1.6l-2.4,3.4l-0.7,0.8l0.7,0.8l2.4,3.4l-6.4-2C301.7,55.2,302.2,53.8,302.4,51.7L302.4,51.7z
		 M333.8,43c0.1-1.9-3.4-3.4-4.2-3.4c-1.4-0.1-3.4,3-5.2,4.9c-1.7-9-0.8-12.9,0.1-17c3.8,6.9,9,8.4,11.7,8.1
		c-9.2-7.3-7.6-14-10.4-14.3c-1.6-0.2-2.7-0.1-3.6-0.1c-3.3,0-3.7,6.3-4,9.1c-2.1-3.8-4.1-7.1-7.7-11.6c-3.4-8.7-7.6-6.6-11.8-10.5
		c3.3,5,0.7,8.1,8.2,11.6c2,1.9,4.3,4.9,5.8,7.2c-1.2,1.7-2.2,2.6-3.4,3.8c-0.9,1.4-1.4,6.8-4.3,10.9c4.3-1.9,6.1-4.6,7.6-7.1
		c13.8,10.4,2.5,36.8-0.6,42.6c-3-2.1-6.8-3.2-10.4-3.8l-0.4-1.1L298,61.7h1.5c1.7,0,2.2-1.1,1.9-2.1l9.5,3L315,64l-2.5-3.6
		l-4.4-6.1l4.4-6.1l2.5-3.6l-4.2,1.3l-8.5,2.6c-0.6-2-2.2-2.8-3.9-3.1l2.8-9.7l1.2-4.1l-3.5,2.5l-6.1,4.3l-6.1-4.4l-3.5-2.5l1.2,4.1
		l2.8,9.7c-1.7,0.3-3.4,1.1-3.9,3.1l-8.5-2.6l-4-1.2l2.5,3.6l4.4,6.1l-4.4,6.1l-2.5,3.6l4.1-1.3l9.6-3c-0.3,0.9,0.1,2.1,1.9,2.1h1.5
		l-3.3,10.5l-0.4,1.1c-3.7,0.7-7.6,1.9-10.7,3.9c-9.3-18-6.7-36.1,1.1-42.1c-0.2,3.8,3.2,9,4.8,10c-0.9-3.9,0.7-11-1.2-12.7
		c-1.4-1.2-3.6-1.9-5.9-1.8c1.6-2.5,3.7-5.8,7.4-10.7c5.4-2.5,7-8.9,8.3-12.1c-6,2.2-10.2,5.2-11.2,10.2c-2.1,2.8-4.4,6.1-7,9.9
		c0.2-4.7-2.4-6.4-5.8-6.6c-9.9,2.1-9.3,9.3-17.8,14.2c5.8,2.1,15-10.8,18.2-9.4c0.5,7.9-1.3,14.1-1.3,18.4c-1.5-1.7-2.2-2.7-3.6-3
		c-1.2-0.2-4.6,0.1-6.8,2.5c-0.7,3.9-0.5,11.5-4.2,20.4c5.5-5.1,8.2-15.1,9.1-18c1.4,2,3,6.3,3.4,9.9c0.7,7.1,5.1,19.1,8.8,24.8
		c-1,2-1.3,4.2-0.9,6.7c-2.9,2.2-3.3,5.2-2.2,7.2c1,2.2,3.9,3.7,7.3,2.3l1-0.5c3.6-1.4,10.1-4.2,18.1-4.2c8,0,14.5,2.7,18.2,4.2
		l1,0.5c3.4,1.3,6.2-0.2,7.3-2.3c1-2.1,0.7-5.1-2.2-7.2c0.4-2.6-0.1-5.1-1.2-7.2l0.1,0.1c6.8-9.7,7.3-28.3,12.9-33.6
		c0.5,6.6,3.9,11.9,7.4,12.7C333.6,55.9,333.6,47,333.8,43"/>
	<path class="st0" d="M247.4,194.4l-4.2,0.1c-0.7,7.3-0.4,14,0.7,20.1c2.6-4.3,5.2-8.6,5.1-11.6
		C248.8,199.7,248.2,196.8,247.4,194.4"/>
	<path class="st0" d="M262.4,207c1.4,4,3.3,10.4,4.7,14.9c-1.2,0.1-2.4,0.2-3.7,0.4c-0.7-1.6-2.7-6.8-4.9-12
		C256.6,205.5,261.4,204.2,262.4,207L262.4,207z M271.2,202.7c0.4-2.3,7-2.8,5.7,2.3c-1.2,5.2-2.8,11.4-4,16.7h-1.7h-1.7
		c-1.2-5.2-2.8-11.4-4-16.7C264.2,199.8,270.9,200.4,271.2,202.7L271.2,202.7z M283.9,210.2c-2.2,5.2-4.2,10.4-4.9,12
		c-1.1-0.2-2.3-0.3-3.6-0.4c1.4-4.5,3.2-10.9,4.7-14.9C281.1,204.2,286,205.5,283.9,210.2L283.9,210.2z M262.4,225.2
		c1.4-0.6,7.1-0.7,8.8-0.7c1.7,0,7.3,0.3,8.8,0.7c0.2,0.7,0.2,1.9,0.1,2.6c-2.2,0.7-6,0.9-8.9,0.9c-2.8,0-6.7-0.4-8.9-0.9
		C262.3,227,262.3,225.9,262.4,225.2z M278.3,241.7c-1.9,0.5-5,0.7-6.9,0.7c-2.1,0-5.1-0.2-7-0.7l0.7-3.2c-1.4-0.2-2.9-0.7-4-1.1
		c0.6-2.1,1.5-4.1,2.2-6.9c2.6,0.6,5.2,0.8,8.1,0.8c2.9,0,5.4-0.3,8.1-0.8c0.7,2.8,1.7,4.9,2.3,6.9c-1.1,0.4-2.6,0.9-4,1.1
		C277.5,238.6,278.3,241.7,278.3,241.7z M249.3,194.3c0.7,2.5,1.3,5.3,1.5,8.3c0.2,3.6-2.5,8-5.3,12.7l-0.9,1.6
		c8.1,39.9,46.7,53.2,46.7,53.2v-75.8C291.2,194.4,262.1,194.3,249.3,194.3"/>
	<path class="st0" d="M333.6,201.8l-0.2-1.9h1.9c2.5,0,3.8-2.4,4.5-5.3c-9.7-0.1-45.4,0.1-45.4,0.1v36.6c3-2.2,5.8-4,9.6-5.2V218
		h3.7c0.2-8.9,2.3-15.3,6.5-19.5l1.1-1.2l1.2,1.2c4.1,4.2,6.3,10.6,6.5,19.5h3.8v8.5c4,1.7,6.7,4.2,8.9,6.9
		c3.4-6.8,5.8-14.7,6.7-23.9l-0.6,0.1C338,209.8,333.9,207.1,333.6,201.8"/>
	<path class="st0" d="M342.5,194.7l-0.7-0.1c-0.8,4.2-2.8,7-6.3,7.1c0.3,4.1,3.5,6.3,6.5,6.3l0.7-0.1
		C342.8,203.7,342.8,199.4,342.5,194.7"/>
	<path class="st0" d="M324.1,242l-3.3-3.7l-5.4,4.9l2.2,2.5c0,0,2.2-1,4.3,1.2c-1.6,1.3-4.2,3.7-5.7,5c-2.1-2.3-0.7-4.5-0.7-4.5
		l-2.2-2.5l-6.7,6l-2.2-2.5l6.8-5.7l-2.4-2.8l-2.2,2c-2-2.2-3.5-5.2-2.1-9.1c3.9-0.8,6.7,1,8.6,3.3l-2.2,2l2.4,2.8l5.6-4.7l-3.3-3.7
		c2.9-0.4,5.4,0.7,6.8,2.3C324.2,236.6,324.8,239.2,324.1,242L324.1,242z M315.3,228c-10.8,0-14.9,3-20.9,7.5v35
		c0,0,25.6-8.7,39.5-33.5C330.8,232.2,326.1,228,315.3,228"/>
	<path class="st0" d="M252.1,164.6c5.3-3.1,8.2-5.2,11-9.7c-2.1-1-4.6-2.9-6.5-5.5c10.2,2.8,15.4,4.3,27.5,0.1c-2,3.1-4.9,5-7.4,6.6
		c2.7,4.5,5.4,9.7,6.4,13.8c-3.6-0.3-7.7,0.6-10.6,3.3c-4.5,0.2-10.2,1.7-13.4-8.5c-1.6,0.8-3.3,2-3.3,2c1.9,6.7,5.2,11.2,14.2,10.2
		c0.5,2.2,0.8,3.4,2,5.2c-3.7,2.2-12.9,7.6-20,1.3C252.1,183,252.1,164.6,252.1,164.6z M285.9,179.7c-0.9,1.3-6.7,3.2-8.2,2.2
		c-2.4-1.4-3.7-4.7-3.1-6c0.7-1.8,7-3.6,9.1-2.8C285.9,173.8,286.7,178.6,285.9,179.7L285.9,179.7z M303.1,172v-1.9l-4.5-0.1
		c1-4.8,10.3-10.8,14.4-12.2c-0.3-5.2,6.6-6.8,12.1-7c6.7-0.2,8.3,7,8.3,9.4c0,3-0.7,9.7-4.6,11.6c-5.4,2.9-10-1.2-10-5
		c0-4,2.8-6.5,7.8-6c5,0.5,4.6-2.2,0.8-3.2c-1.8-0.5-9.6-0.8-12.2,5c-1.5,0.1-3.1-0.6-4-1.4c-1,1.3-2.5,2.2-4.8,2.8
		c1.9,3.8,5.7,3.2,8.1,1.3l-0.1,1.7c0,9.5,10,11.8,16.3,8.2c-1,3.1-0.6,6.9-0.2,9.6h-24.4c0.5-2.6,3.7-5.5,6.4-7.5l-2.2-3.5
		c-2.6,1.1-5.2,2.2-8,3C295.7,178.8,296.1,174,303.1,172L303.1,172z M244.7,175.6c2.7,2.2,3.7,3.8,2.9,11.3
		c-0.1,0.9,0.4,2.7,0.9,4.6h91.8c0.1-1,0.2-2,0.2-2.8c0.1-4.1-0.7-7.4-2-8.7c-0.5-0.5-0.9-0.7-1.8-0.7h-0.2l-3.7,0.4l2-3.2
		c2-3.1,4.7-4.9,7.6-5.1v-27.3h-99v30.4l1,0.7L244.7,175.6"/>
	<path class="st0" d="M243.5,176.9v14.7h3.3c-0.6-2-1-3.7-0.8-4.9C246.7,179.3,245.6,178.6,243.5,176.9"/>
	<path class="st0" d="M342.5,191.6v-18.3c-2.2,0.2-4.3,1.6-6.1,4.2l0.6-0.1c4,0,5.4,5.5,5.3,11.2c0,0.9-0.1,1.9-0.2,2.8L342.5,191.6
		"/>
	<path class="st0" d="M267.5,166.6c1.7,0.8,3.7-0.2,6,0.2c-0.5-0.9-0.8-1.7-0.7-3c0.6-2.6-1.6-3.4-2.5-3.3c-2.4,0.2-3.8,0.7-6.5,0
		C265.6,162.2,265.1,165.5,267.5,166.6"/>
	<path class="st0" d="M245.9,186.6c0.8-7.6-0.4-8.2-2.5-10c-1.9-1.6-5.1-2.1-8.2-4.2c-2.2-1.6-2.8-3.7-5.7-6.7
		c0.6-6.5,5.2-14.2,8.5-16c0.5-0.3,0.4-10.1,0.4-10.1s2.2-0.1,2.1-0.3c-3-1.9-6.7-0.5-9.3,2.6c-2.5,2.1-8.4,6-12.5,7.4
		c-5.4-4.6-14-8.6-20.2-14.9c0,0,8.2-0.1,12.1-1.7c1-0.7,3.7-4.9,2.5-8.9c-1.3-0.4-3.2-1.3-5-2.3c-2.2-1.3-4.5-2.6-5.4-3.5
		c-3.6-2.7-5.1-5.1-11.2-6.7c0.4-2.8,1-2.2,3.7-4c3.5-2.3,5.4-5.2,6.7-7.9c1-2.2-0.2-6.7-3-0.9c-0.9,2.1-3.7,4.7-6.7,5.5
		c0.3-1.8,0.4-2.7,0.4-3.7c9.1-6.4,8.2-12.1,7.5-17.3c-0.4-3.1-3.5-4.4-3.4-1.2c0.1,2.1,2,8.1-4.2,11.6c-0.2-2.6-0.9-3.8-1.4-5.2
		c5.5-7.2,3.2-14.2,0.8-17.4c-1.5-2.1-5.2-2.7-3.5,0.5c1.3,2.6,3.6,9.8-0.6,12.7c-1.4-1.8-3-2.4-3.6-4.8c0.6-8,0.1-12.8-0.9-15.6
		c-0.9-2.6-3.5-4.2-3.3-0.4c0.2,4.4,0.6,9.9,0.2,10.2c-0.4,0.4-6.3-5.1-8.6-6.7c-2.4-1.6-5.2-1-2.4,2.2c2.4,2.8,9.9,8.3,9,10.1
		c-0.7,1.1-6-3.3-8.8-4.2c-2.8-0.9-3.7,0.6-1.3,2.4c3.8,3.1,6.4,5.2,12.6,7.2c6.2,2.1,9.4,10.8,7.4,23.1c-0.1,0.6-1.1,0.5-1.8,0.3
		c-0.3-4.7-1.1-10.4-2.2-12.8c-1.4-3.2-4.3-3.3-3.3,1.2c0.8,3.5,1.3,7.2,0.7,12c-5.2-0.8-7.1-2.2-9.3-3.6c-0.3-2.4,1-6.4,1.2-9.9
		c0.2-3.5-1.9-5.6-3-1.3c-1.1,4.1-1.9,6.2-2.5,9.2c-1.5-0.5-3.1-1.1-3.7-2l-0.5-8.5c-0.4-3.8-1.9-3.7-3-0.4
		c-0.6,1.6-0.9,3.7-1.1,6.2c-1.9-1.1-3.1-3.2-3.3-4.9c0.3-4,0.9-8.2,1.4-11c0.4-2-0.9-5.8-2.4-1.1c-0.9,3.5-1.2,6.3-1.9,8.6
		c-1.3-0.1-3.1-7.8-3.9-12.7c-0.4-2.2-2.2-4.7-2.6,0.2c-0.4,5.5,0.7,11,2.2,13.4c-2.6-0.3-5.2-5-7-7.8c-1.6-2.5-2.4,0.1-2.2,1
		c1.6,9.7,9.4,13.1,12.8,13.9c5.4,7.8,15.8,11.2,24.6,15c-11.4-0.2-14.4,4.5-19.7,1.4c0.3,4.3,2.3,6.3,4.5,7.3
		c1.4,0.7,2.9,0.8,3.6,1c0.9,5.2,5.9,5,10.1,5.2c-1,10.2,0.2,23.7,9.1,33.7c-0.3,5.2-0.7,12-0.6,16.5c-7.4,6.8-13.9,21.1-16.5,29
		c-2,5.9-4.9,10.5-9.4,12.7c3.7,3.8,9.1,2,12.3-0.2c0.2,3.5,1,5.9,1.6,8c-2.1,3.1-3.6,5.2-3.4,9.1c-2.3,0.7-4,2.2-5.2,3.7
		c-0.8,1,0.2,5.7,1,7.7c2.9,6.6,0.7,21.4,0.2,25.7c1.2,0.1,3.5,0.2,3.9-1.7c0.7,0.7,2.5,2,3.4,4.8c-0.2,1.2-0.8,5.7,1.4,6.4
		c1.9,0.5,10.1,0.2,11.2-1.2c-0.8-0.9-2.2-3.2-3.2-5.3c0-2.2-0.2-5-0.8-6.1c-0.9-1.7-3.4-5.4-4.9-6.9c-0.4-2.7-0.6-14.8,0.7-19.4
		c2.2-1.4,16.6-12.2,19.6-22.5c2.6,0.9,1.9,8.1,1.9,17.3c0,2.5,3.1,3.7,4.9,3.9c3.9,0.5,9.5,4.2,15.7,13.5c1.2-1.3,2.8-2.5,2.8-2.5
		c0.8,1,1.8,3.7,2.3,5.4c0.7,1.2,5.7,2.1,9.6,0.8c1.2-0.5,2.1-0.7,2.8-2.1c-4.9-8.5-7.9-14.2-14.2-18.9c-2.9-2.2-6.8-3.3-10-5.3
		c2.2-4.1,8.2-23.2,4.6-30.3c-1.2-2.3-5.7-4.6-11.3-3.6c4.8-5.5,14.2-16.6,15.5-20c1,1.3,6.7,0.4,10.8,2.1c1.5,0.7,5.7,6.1,6,8
		c0.4,3.4,0.6,7.4-1.8,16.7c1.7-0.3,1.4-0.4,3.1-1c0.3,2.4-0.5,4.4-2.6,8.2c0.6,3.4,2.1,8.5,3.7,9.5c2.1-6.3,9.8-15.1,9.7-20.3
		C248.8,195.6,245.6,189.7,245.9,186.6"/>
</g>
</svg>
