<svg xmlns="http://www.w3.org/2000/svg" width="183.012" height="31.661" viewBox="0 0 183.012 31.661"><defs><style>.a{fill:#495163;}</style></defs><path class="a" d="M100.977,296.89a2.449,2.449,0,0,1-.549.122,1.6,1.6,0,0,0,.519-1.037,6.673,6.673,0,0,1-.7.214,1.619,1.619,0,0,0,.671-1.617,3.764,3.764,0,0,1-.61.3,1.623,1.623,0,0,0,.244-1.678c-.214.183-.458.4-.7.579.153-.793.153-1.312-.183-1.678a8.71,8.71,0,0,1-1.129,1.708,2.128,2.128,0,0,0-.366-1.525,2.034,2.034,0,0,1-.366.976,2.262,2.262,0,0,0-.61-1.495,4.636,4.636,0,0,1-.214,1.22,3.747,3.747,0,0,0-.915-1.586,11.972,11.972,0,0,1-1.464,5.8,4.059,4.059,0,0,1-1.952,3.569,1.942,1.942,0,0,0-1.281-.366c-.153-.793.885-1.495,1.769-2.074.915-.58,1.281-1.068,1.281-1.861a1.176,1.176,0,0,0-1.19-1.22,2.06,2.06,0,0,0-1.678,1.037,11.987,11.987,0,0,1-1.251.427,2.122,2.122,0,0,0-.915.427,1.247,1.247,0,0,0,.671.091c.275-.031,1.19-.214,2.074-.305.305.183.824.458.275.824a16.114,16.114,0,0,1-2.1,1.129,2.2,2.2,0,0,0-.7,3.2,4.8,4.8,0,0,0,1.1,2.5,5.375,5.375,0,0,1-.336,2.867c-.244-.549-.641-1.861-.885-2.593.275-1.434-.153-2.044-.458-2.288s-.763-.183-1.1.305c.488-.061.641.549.61,1.19,0,.763-.214,1.372-.732,1.372a.66.66,0,0,0,1.068.519c.061.153.336.976.61,1.739.153.458.305.854.4,1.068.122.244.915.274,1.007,0a7.058,7.058,0,0,1,.427-1.068c.153-.336.366-.732.7-1.373a14.37,14.37,0,0,1,.671,1.373,1.048,1.048,0,0,1,.122.4,28.916,28.916,0,0,1-.122,4.118c-1.8-.488-2.288.4-2.135,1.037a.582.582,0,0,1,.793-.091.788.788,0,0,0,.58.976c.519-1.373,2.379-1.068,2.532-.946,0-.274.244-.915-.7-1.068a28.811,28.811,0,0,1,.214-2.928,1.854,1.854,0,0,0-.061-.976c-.03-.152-.092-.305-.153-.518a9,9,0,0,1-.275-1.769,1.07,1.07,0,0,0,.824.244c.214.885.519.641.671,1.007a1.808,1.808,0,0,1,.122.519c.031.152.031.3.122.4a2.414,2.414,0,0,0,1.556-.4,2.759,2.759,0,0,0,.305-.275,3.542,3.542,0,0,0-.915-1.983,4.6,4.6,0,0,0-.976-2.1,4.143,4.143,0,0,0,1.586-1.068.765.765,0,0,0,.671-.763c.183-.031.336-.031.458-.061a2.356,2.356,0,0,1-.061-.458,4.72,4.72,0,0,0,.671-.031,3.854,3.854,0,0,0-.214-.488c.244,0,.519-.03.732-.03a3.669,3.669,0,0,1-.275-.641,7.089,7.089,0,0,0,1.007-.183,2.8,2.8,0,0,0-.427-.4,1.778,1.778,0,0,0,1.312-1.129,3.138,3.138,0,0,1-.549.031,2.125,2.125,0,0,0,.885-1.22" transform="translate(-67.181 -284.903)"/><path class="a" d="M65.672,315.9H54.6v4.087a.536.536,0,0,1,.153.122v-4.026H65.764v3.752a.664.664,0,0,1,.122.152V315.9h-.214" transform="translate(-44.107 -301.93)"/><path class="a" d="M60.143,341.012a7.966,7.966,0,0,1-5.521-7.625h-.031l.031-.122c0-.4.031-.671.031-.762a2.584,2.584,0,0,0-.092-.61L54.5,331.8v1.891a7.239,7.239,0,0,0,2.288,5.4,9.848,9.848,0,0,0,3.264,2.044l.061.03.061-.03a9.848,9.848,0,0,0,3.264-2.044,7.238,7.238,0,0,0,2.288-5.4v-.336c-.031.061-.092.091-.122.152a8.1,8.1,0,0,1-.854,3.538c-.671,1.495-1.83,2.776-4.606,3.965" transform="translate(-44.038 -312.98)"/><path class="a" d="M41.8,277.685c.7.336.915-.275,2.227.549-.854.275-1.525,1.342-2.5,1.068.7-.336.61-.854,1.037-1.1C42.286,278.142,41.8,278.051,41.8,277.685Zm2.5,6.893a1.118,1.118,0,0,0-1.4.214.977.977,0,0,1,.275-1.007c-.915,0-1.434-.274-1.556-.549a1.812,1.812,0,0,1,1.891.03,3.781,3.781,0,0,0,1.281.7l.183-.183c-.458-.335-.671-2.806-1.586-2.9.122-.305.61-.274.976-.183a4.172,4.172,0,0,0-.549-2.013c.519-.275.885.031,1.068.671a29.584,29.584,0,0,0,.427,4.026l.275-.275c-.153-.915.854-1.251,1.1-1.708a1.318,1.318,0,0,1-.214,1.129.568.568,0,0,1,.488.641,1.122,1.122,0,0,0-1.19,1.464,1.924,1.924,0,0,1-1.464-.061Zm4.3.519a1.647,1.647,0,0,0-1.19,2.166c-.122.03-.458.03-.549-.183a1.462,1.462,0,0,1-1.373.732c.305-.336.519-1.068,1.1-1.434a2.171,2.171,0,0,0,1.068-1.312c-.275.122-1.708.488-2.1.061a7.545,7.545,0,0,0,2.593-1.007l-.214-.244a9.526,9.526,0,0,1-1.769.732c-.153-1.159.976-1.129,1.068-.793.458-.549.122-1.342-.214-1.4a1.721,1.721,0,0,0-.305-1.861c-.061.976-1.19,1.159-1.312,1.922-.03-.61-.092-2.227-.122-3.02-.092-1.464-1.952-1.983-2.227-1.983-1.22.061-1.342-.092-1.312-.671-.61.7-.4,1.342.122,1.617-.061.427-.763.763-1.159.854a1.917,1.917,0,0,0,2.684-.152l.122-.092a3.013,3.013,0,0,1,.336,1.342.945.945,0,0,0-1.1.915c1.19-.488,1.312,1.769,1.617,2.135-.305-.03-.824-.732-1.617-.763-.946-.061-1.281.458-1.647.427.061.671.885,1.037,1.4,1.129-.275.671-.031,1.159.519,1.312,0-.61.793-.824,1.647-.336a2.545,2.545,0,0,0,2.349.4c-.122.305-.488.336-.946.763-.641.61-.641,1.434-1.373,1.739a2.207,2.207,0,0,0,2.257-.488.706.706,0,0,0,.915-.122,1.335,1.335,0,0,1,.763-1.983c0-.031.153-.4-.031-.4" transform="translate(-34.447 -274.756)"/><path class="a" d="M84.191,278.356a8.091,8.091,0,0,1,.885-.549,3.439,3.439,0,0,0,1.342-.214c-.4.488-.427.641-1.068.7.824.061,1.159.793,1.556.915C85.563,279.637,85.441,278.264,84.191,278.356Zm1.678,4.087a.717.717,0,0,1,.183.915c-.366-.61-1.495-.4-2.623.854a2.872,2.872,0,0,1-.305.305c.091-1.525-1.159-1.556-1.525-1.4a.984.984,0,0,1,.458-.793,2.275,2.275,0,0,1-.488-1.342,2.852,2.852,0,0,1,1.678,2.2l.4-.274c-.122-2.135-.092-2.135-.122-3.6,0-.214,0-.671.671-.641.031.549.122,1.983.092,4h.244a1.93,1.93,0,0,1,1.8-1.159,2.06,2.06,0,0,0,1.129-.122,2.308,2.308,0,0,1-1.586,1.068Zm-1.22-.763c0-1.373-.061-2.532-.061-2.867l.153.061c1.007.336,1.22,1.556,3.264.183-1.1.122-1.159-.793-1.647-.824a1.9,1.9,0,0,0,.824-1.434c-.641.519-2.1.549-2.41.7-.4.244-.854.519-1.19.7-.854.458-.244,2.989-.336,3.935-.458-1.373-1.4-1.159-1.891-1.952a2.7,2.7,0,0,0,.183,2.074,1.219,1.219,0,0,0-.244,1.434.891.891,0,0,1,1.373.3,1.865,1.865,0,0,1-2.257-.244l-.244.275a2.111,2.111,0,0,0,2.593.366,1.517,1.517,0,0,1-.092.488,2.218,2.218,0,0,1-1.739.152c.091.7.885,1.22,1.647,1.434a1.058,1.058,0,0,1-.793.244,1.472,1.472,0,0,1-.092,1.373c-.366-.244-.58-.488-.732-1.464a3,3,0,0,0-1.4-2.166c-.031.335-.031.183.03.427,1.464,1.068.641,2.989,2.135,3.66a1.456,1.456,0,0,0,.488-1.434,1.821,1.821,0,0,0,1.1-.946,1.505,1.505,0,0,1-1.556-.519,4.1,4.1,0,0,0,2.562-1.586c.763-.793,1.769-.671,1.708-.061a.935.935,0,0,0,.549-1.251,1.994,1.994,0,0,0,1.464-1.708c-1.129.458-2.41-.4-3.386.641" transform="translate(-61.436 -274.756)"/><path class="a" d="M74.981,306.423a.264.264,0,0,0-.183.092l-.244-.031v-.458a.2.2,0,0,0,.122-.214.214.214,0,1,0-.427,0,.167.167,0,0,0,.122.183v.427l-.244-.031a.2.2,0,0,0-.214-.122.214.214,0,1,0,0,.427.184.184,0,0,0,.183-.091l.244.03v.641a.251.251,0,0,0-.122.183.214.214,0,0,0,.427,0,.309.309,0,0,0-.122-.214v-.61l.214.03a.229.229,0,0,0,.214.153.209.209,0,0,0,.214-.214c.061-.092-.061-.183-.183-.183" transform="translate(-57.381 -294.772)"/><path class="a" d="M68.681,306.371a.257.257,0,0,0-.214.122l-.244.03V306.1a.251.251,0,0,0,.122-.183.214.214,0,0,0-.427,0,.257.257,0,0,0,.122.214v.457l-.244.031a.184.184,0,0,0-.183-.091.214.214,0,1,0,0,.427.229.229,0,0,0,.214-.153l.214-.03v.61a.2.2,0,0,0-.122.214.214.214,0,0,0,.427,0,.206.206,0,0,0-.122-.183v-.641l.275-.061a.217.217,0,0,0,.183.092.208.208,0,0,0,.214-.214c.031-.122-.091-.214-.214-.214" transform="translate(-53.003 -294.841)"/><path class="a" d="M66.5,304.409c-.336.641-.946.61-1.495.244a1.461,1.461,0,0,0-.641-.275c.092-.61.244-1.8.366-2.776.7-.305,1.556-.4,1.769.4.214-.793,1.068-.732,1.769-.4.122.976.275,2.166.366,2.776a1.461,1.461,0,0,0-.641.275C67.443,305.05,66.833,305.05,66.5,304.409Zm2.5.031c-.122-.885-.458-3.386-.488-4.24l-.366.031c0,.153.03.336.03.549a6.716,6.716,0,0,0-1.678-.244,5.556,5.556,0,0,0-1.678.244,3.7,3.7,0,0,0,.031-.549l-.4-.031c-.031.824-.366,3.355-.488,4.24-.214.091-.366.305-.366.732,0,0,2.074.031,2.9.031.793,0,2.9-.031,2.9-.031a.8.8,0,0,0-.4-.732" transform="translate(-50.362 -291.019)"/><path class="a" d="M56.826,359.268H34.377a8.411,8.411,0,0,0-.366-1.556H57.192A7.319,7.319,0,0,0,56.826,359.268Zm-15.22-4.819a3.887,3.887,0,0,1,.488.763.638.638,0,0,1-.153.671,5.537,5.537,0,0,1-1.739,1.434H37.945c1.4-.4,3.325-1.586,3.66-2.867Zm-1.373-.4a.532.532,0,0,1,.946-.03c.122.183.061.641-.458,1.22-.4-.4-.671-.824-.488-1.19Zm8.968,1.861c-.183-.275-.244-.427-.153-.671a6.151,6.151,0,0,1,.488-.763c.336,1.281,2.227,2.471,3.66,2.867H50.939a6.415,6.415,0,0,1-1.739-1.434Zm.793-1.922a.542.542,0,0,1,.946.031c.183.366-.092.824-.488,1.159-.549-.549-.58-1.007-.458-1.19Zm7.259,3.233a3.632,3.632,0,0,1-.976.122h-.549a7.165,7.165,0,0,1-4.972-1.8c1.617-1.647-.275-2.989-1.312-1.586a6.54,6.54,0,0,0-.793,1.159c-.183.336-.031.671.366,1.22a6.308,6.308,0,0,0,1.22,1.037H40.9a5.4,5.4,0,0,0,1.22-1.037c.4-.518.549-.854.366-1.22a8.714,8.714,0,0,0-.793-1.159c-1.037-1.4-2.928-.03-1.312,1.586a7.165,7.165,0,0,1-4.972,1.8H34.9a2.816,2.816,0,0,1-.976-.122c-.4-.091-.488.061-.275.732a9.616,9.616,0,0,1,.305,1.678H57.223a10.167,10.167,0,0,1,.305-1.678c.214-.671.122-.823-.275-.732" transform="translate(-29.466 -327.973)"/><path class="a" d="M44.2,369.132h0l.153-.458h0l.153.458H44.2Zm.336.061h0l.061.183v.03h.244c-.03,0-.061-.03-.122-.152-.092-.214-.305-.732-.336-.824l-.031-.03-.03.061-.336.824c-.031.061-.061.122-.122.122h.305a.107.107,0,0,1-.061-.03l.03-.091.031-.061h.366" transform="translate(-36.602 -338.417)"/><path class="a" d="M48.331,369.08a.516.516,0,0,0,.122.366.4.4,0,0,0,.305.091.336.336,0,0,0,.275-.091c.122-.091.122-.244.122-.4v-.427c0-.061,0-.061.061-.092H49c.031,0,.061.031.061.092v.427a.554.554,0,0,1-.061.336.224.224,0,0,1-.183.061.2.2,0,0,1-.153-.061c-.061-.061-.091-.122-.091-.336v-.457c0-.061.031-.061.061-.092h-.244c.031,0,.061.03.061.092v.274l-.122.214" transform="translate(-39.729 -338.486)"/><path class="a" d="M52.805,368.727v-.274l.03-.031h.092a.65.65,0,0,1,.366.122.433.433,0,0,1,.122.336.417.417,0,0,1-.122.336.515.515,0,0,1-.305.091.258.258,0,0,1-.183-.061v-.519Zm-.183.244v.275c0,.031,0,.061-.031.061h.366a.655.655,0,0,0,.458-.153.583.583,0,0,0,.153-.366.488.488,0,0,0-.122-.335.691.691,0,0,0-.519-.153h-.336c.031,0,.061.03.061.091v.275l-.031.3" transform="translate(-42.648 -338.347)"/><path class="a" d="M56.827,369.132h0l.153-.458h0l.153.458h-.305Zm.336.061h0l.061.183v.03h.214c-.031,0-.061-.03-.122-.152-.092-.214-.305-.732-.336-.824l-.03-.03-.031.061-.336.824c-.031.061-.061.122-.122.122h.244a.107.107,0,0,1-.061-.03l.03-.091.031-.061h.458" transform="translate(-45.358 -338.417)"/><path class="a" d="M61.393,368.692q.046-.092.092-.092H61.3l.031.03v.061l-.183.274-.183-.3v-.031L61,368.6h-.305c.061,0,.091.03.122.092l.244.366-.244.366c-.031.061-.061.091-.122.091h.214l-.03-.031.03-.061.183-.3.214.366v.031h-.031l.061.03h.214c-.03,0-.061-.03-.092-.061s-.244-.4-.305-.458l.244-.335" transform="translate(-48.277 -338.556)"/><path class="a" d="M68.227,369.132h0l.153-.458h0l.183.458h-.336Zm.336.061h0l.061.183v.03h.214c-.031,0-.061-.03-.122-.152-.092-.214-.305-.732-.336-.824l-.031-.03-.031.061-.336.824c-.031.061-.061.122-.122.122h.305a.107.107,0,0,1-.061-.03l.031-.091.03-.061h.4" transform="translate(-53.281 -338.417)"/><path class="a" d="M72.1,368.9v.275c0,.03,0,.061-.031.061h.275a.066.066,0,0,1-.061-.061v-.824h.152c.122,0,.153.03.153.061h0v-.183h-.763l-.061-.03-.031.03-.031.153v.031h0l.031-.061c.031-.031.061-.031.122-.031h.183l.061.58" transform="translate(-55.991 -338.278)"/><path class="a" d="M79.7,369.019h.214a.066.066,0,0,1,.061.061v-.153h-.031l-.061.03h-.244v-.366h.214a.133.133,0,0,1,.091.031V368.5h-.549c.03,0,.061.031.061.092v.793c0,.031,0,.061-.031.061h.244a.066.066,0,0,1-.061-.061v-.275l.092-.092" transform="translate(-61.273 -338.486)"/><path class="a" d="M83.122,369.11v.305c0,.03,0,.061-.031.061h.244a.066.066,0,0,1-.061-.061v-.824c0-.061,0-.061.061-.092h-.244c.031,0,.031.03.061.092v.274l-.03.244" transform="translate(-63.845 -338.486)"/><path class="a" d="M85.875,368.727v-.274l.031-.031H86a.65.65,0,0,1,.366.122.433.433,0,0,1,.122.336.417.417,0,0,1-.122.336.515.515,0,0,1-.305.091.258.258,0,0,1-.183-.061l-.03-.092v-.274l.03-.153Zm-.153.244v.275c0,.031,0,.061-.03.061h.4a.655.655,0,0,0,.458-.153.583.583,0,0,0,.153-.366.488.488,0,0,0-.122-.335.691.691,0,0,0-.519-.153h-.336c.031,0,.061.03.061.091v.275l-.061.3" transform="translate(-65.652 -338.347)"/><path class="a" d="M90.144,369.18v.275c0,.03,0,.061-.031.061h.458c.061,0,.061,0,.061-.03l.031-.153v0c0,.061-.031.092-.061.092a.183.183,0,0,1-.122.031c-.122,0-.153-.031-.153-.122v-.3h.183c.061,0,.061.031.061.061v.061h0v-.214h0l-.031.031L90.48,369h-.214v-.336h.183c.061,0,.091.031.091.061V368.6h-.549c.031,0,.061.031.061.091v.275l.092.213" transform="translate(-68.64 -338.556)"/><path class="a" d="M93.975,368.866v-.274c0-.061,0-.061.061-.092h-.275c.031,0,.061.03.061.092v.793c0,.031,0,.061-.031.061h.488c.061,0,.061,0,.091-.03l.031-.153v0l-.031.091a.228.228,0,0,1-.153.031c-.091,0-.122,0-.153-.031s-.03-.122-.03-.274l-.061-.214" transform="translate(-71.281 -338.486)"/><path class="a" d="M97.022,369.11v.305c0,.03,0,.061-.031.061h.275a.066.066,0,0,1-.061-.061v-.824c0-.061,0-.061.061-.092h-.244c.031,0,.031.03.031.092v.518" transform="translate(-73.505 -338.486)"/><path class="a" d="M99.675,369.437a.29.29,0,0,0,.214-.061.277.277,0,0,0,.122-.244c0-.122-.061-.214-.214-.336l-.031-.031c-.122-.091-.153-.122-.153-.183,0-.091.061-.122.153-.122a.179.179,0,0,1,.153.061.112.112,0,0,1,.031.091v-.153l-.031-.031a1.08,1.08,0,0,0-.183-.03c-.183,0-.305.091-.305.244a.371.371,0,0,0,.183.305l.061.061c.122.091.122.153.122.214a.172.172,0,0,1-.183.153.167.167,0,0,1-.183-.122v-.091l-.031.03v.183l.031.061h.244" transform="translate(-75.242 -338.417)"/><path class="a" d="M61.633,277.908a5.146,5.146,0,0,0-2.074.427.634.634,0,0,1,.153-.366,2.819,2.819,0,0,1,1.952-.58,2.869,2.869,0,0,1,1.952.58.669.669,0,0,1,.153.366A5.8,5.8,0,0,0,61.633,277.908Zm1.19.976-.214-.488a4.017,4.017,0,0,1,.915.275l.122.519A6.016,6.016,0,0,0,62.822,278.885Zm-2.044-.092-.366-.366a8.751,8.751,0,0,1,.946-.153l.214.427c-.305.03-.549.061-.793.091Zm-1.22.4-.092.031c-.153.061-.244,0-.275-.061-.031-.091,0-.214.183-.3l.061-.03.366.275-.244.092Zm2.074-2.623.488.366a3.365,3.365,0,0,0-.488-.031,3.156,3.156,0,0,0-.488.031Zm-.58-1.312c-.214-.457-.275-1.037.366-.732l.061.732Zm.488-1.617.092.061.092-.061.366-.275-.214.7h-.031a.226.226,0,0,0-.427,0h-.031l-.214-.7.366.275Zm.519,2.867-.366-.244L61.6,276.2l-.092.061-.366.244.244-.763h.427Zm.122-1.251h-.427l.061-.732C62.456,274.218,62.4,274.8,62.182,275.255Zm-2.1.153.244-.366.061-.091-.061-.091-.244-.366.519.152a1.508,1.508,0,0,0,.153.519l-.671.244Zm2.562-.732.519-.153-.275.366-.061.092.061.092.275.366-.671-.214a2,2,0,0,0,.153-.549Zm3.294-.915c0-.183-.366-.336-.458-.366-.153,0-.366.305-.549.518a3.8,3.8,0,0,1,0-1.8,1.361,1.361,0,0,0,1.251.854c-.976-.763-.793-1.464-1.1-1.525a1.419,1.419,0,0,0-.366,0c-.336,0-.4.671-.427.976a6.129,6.129,0,0,0-.824-1.22c-.366-.915-.793-.7-1.251-1.1.336.519.061.854.854,1.22a4.775,4.775,0,0,1,.61.763,1.532,1.532,0,0,1-.366.4,5.1,5.1,0,0,1-.458,1.159,1.606,1.606,0,0,0,.793-.763c1.464,1.1.275,3.9-.061,4.514a2.8,2.8,0,0,0-1.1-.4l-.031-.122-.336-1.1h.153c.183,0,.214-.122.183-.214l1.007.305.458.122-.275-.366-.458-.641.458-.641.275-.366-.458.122-.915.274a.457.457,0,0,0-.427-.335l.305-1.007.122-.427-.366.275-.641.458-.641-.458-.366-.275.122.427.305,1.007a.489.489,0,0,0-.427.335l-.915-.274-.427-.122.275.366.458.641-.458.641-.275.366.427-.122,1.007-.305c-.031.091,0,.214.183.214h.153l-.336,1.1-.031.122a2.553,2.553,0,0,0-1.129.427c-.976-1.891-.7-3.813.122-4.453a1.84,1.84,0,0,0,.488,1.068c-.122-.427.092-1.159-.122-1.342a.968.968,0,0,0-.61-.183,10.334,10.334,0,0,1,.793-1.129c.58-.275.732-.946.885-1.281-.641.244-1.1.549-1.19,1.068-.214.3-.458.641-.732,1.037a.592.592,0,0,0-.61-.7c-1.068.214-.976.976-1.891,1.495.61.214,1.586-1.129,1.922-.976a14.956,14.956,0,0,1-.122,1.952c-.153-.183-.244-.3-.366-.3a.851.851,0,0,0-.732.275,7.149,7.149,0,0,1-.458,2.166,5.065,5.065,0,0,0,.976-1.891,2.911,2.911,0,0,1,.366,1.068,7.124,7.124,0,0,0,.946,2.623.935.935,0,0,0-.092.7.64.64,0,0,0-.244.763.564.564,0,0,0,.763.244l.122-.031a4.89,4.89,0,0,1,1.922-.457,4.528,4.528,0,0,1,1.922.457l.122.031a.58.58,0,0,0,.763-.244.6.6,0,0,0-.244-.763,1.269,1.269,0,0,0-.122-.763h0c.732-1.037.763-2.989,1.373-3.538a1.525,1.525,0,0,0,.763,1.342,4.162,4.162,0,0,1-.244-1.891" transform="translate(-45.497 -270.1)"/><path class="a" d="M56.285,334.5h-.458a9.487,9.487,0,0,0,.061,2.1,3.151,3.151,0,0,0,.549-1.22,7.621,7.621,0,0,0-.153-.885" transform="translate(-44.938 -314.857)"/><path class="a" d="M58.191,335.842c.153.427.336,1.1.488,1.556-.122,0-.275.031-.366.031-.061-.183-.275-.732-.519-1.251-.214-.488.305-.61.4-.336Zm.946-.458c.031-.244.732-.305.61.244s-.305,1.19-.427,1.769h-.366c-.122-.549-.305-1.19-.427-1.769-.122-.518.58-.488.61-.244Zm1.342.793c-.214.549-.458,1.1-.519,1.251a1.481,1.481,0,0,0-.366-.031c.153-.488.336-1.159.488-1.556.091-.275.61-.153.4.336Zm-2.288,1.586a4.658,4.658,0,0,1,.915-.091,4.435,4.435,0,0,1,.915.091.423.423,0,0,1,0,.275,4.932,4.932,0,0,1-1.891,0A.453.453,0,0,0,58.191,337.764Zm1.678,1.739a5.92,5.92,0,0,1-.732.061,5.462,5.462,0,0,1-.732-.061l.092-.336a.993.993,0,0,1-.427-.122c.061-.214.153-.427.244-.732a4.032,4.032,0,0,0,1.708,0c.092.3.183.519.244.732-.122.03-.275.091-.427.122C59.808,339.2,59.869,339.5,59.869,339.5Zm-3.05-5a3.817,3.817,0,0,1,.153.885,3.076,3.076,0,0,1-.58,1.342l-.092.183a8.017,8.017,0,0,0,4.941,5.612V334.53s-3.081-.03-4.423-.03" transform="translate(-45.289 -314.857)"/><path class="a" d="M77.887,335.363v-.214H78.1c.275,0,.4-.275.488-.549H73.8v3.874a2.93,2.93,0,0,1,1.007-.549v-.854h.4a2.921,2.921,0,0,1,.671-2.044l.122-.122.122.122a2.886,2.886,0,0,1,.671,2.044h.4v.915a2.611,2.611,0,0,1,.946.732,7.024,7.024,0,0,0,.7-2.532h-.061a.829.829,0,0,1-.885-.824" transform="translate(-57.451 -314.926)"/><path class="a" d="M88.463,334.6h-.092c-.092.458-.305.763-.671.763a.7.7,0,0,0,.671.671h.061a4.482,4.482,0,0,0,.031-1.434" transform="translate(-67.111 -314.926)"/><path class="a" d="M76.742,347.664l-.336-.4-.58.519.244.274a.386.386,0,0,1,.458.122c-.153.153-.458.4-.61.518a.367.367,0,0,1-.061-.458l-.244-.274-.7.641-.244-.274.732-.61-.275-.305-.244.214a.873.873,0,0,1-.214-.945.943.943,0,0,1,.915.335l-.244.214.275.305.58-.488-.336-.4a.834.834,0,0,1,.732.244.952.952,0,0,1,.153.762ZM75.8,346.2a2.952,2.952,0,0,0-2.2.793v3.691a8.451,8.451,0,0,0,4.179-3.538A2.057,2.057,0,0,0,75.8,346.2" transform="translate(-57.312 -322.988)"/><path class="a" d="M56.915,319.3a2.767,2.767,0,0,0,1.159-1.037,1.954,1.954,0,0,1-.671-.58,3.8,3.8,0,0,0,2.9,0,2.709,2.709,0,0,1-.763.7,5.642,5.642,0,0,1,.671,1.464,1.549,1.549,0,0,0-1.129.336c-.488.031-1.068.183-1.4-.915a2.14,2.14,0,0,0-.336.214,1.217,1.217,0,0,0,1.495,1.068,1.716,1.716,0,0,0,.214.549c-.4.214-1.373.793-2.1.152C56.915,321.218,56.915,319.3,56.915,319.3Zm3.538,1.586a1.093,1.093,0,0,1-.854.244.684.684,0,0,1-.336-.641c.061-.183.732-.366.946-.305.244.061.336.58.244.7Zm1.83-.824v-.214H61.8c.122-.488,1.1-1.129,1.525-1.281-.031-.549.7-.732,1.281-.732.7-.03.885.763.885.976,0,.305-.091,1.007-.488,1.22a.692.692,0,0,1-1.068-.519c0-.427.305-.671.824-.641.519.061.488-.244.092-.336a1.164,1.164,0,0,0-1.281.519.661.661,0,0,1-.427-.153.8.8,0,0,1-.488.305.54.54,0,0,0,.854.152v.183a1.1,1.1,0,0,0,1.708.884,1.876,1.876,0,0,0,0,1.007H62.649c.03-.275.4-.58.671-.793l-.214-.366a4.06,4.06,0,0,1-.854.3c-.763.183-.7-.3.03-.518Zm-6.161.366c.275.244.4.4.305,1.19a2.114,2.114,0,0,0,.091.488h9.7c0-.091.031-.214.031-.305a1.336,1.336,0,0,0-.214-.915c-.061-.061-.092-.061-.183-.061h0l-.4.03.214-.336a1.075,1.075,0,0,1,.793-.549V317.1H56v3.2l.122.122h0" transform="translate(-45.08 -302.764)"/><path class="a" d="M56,328.5v1.556h.336a1.232,1.232,0,0,1-.091-.519c.091-.793-.031-.854-.244-1.037" transform="translate(-45.08 -310.687)"/><path class="a" d="M88.741,329.222V327.3a.889.889,0,0,0-.641.458h.061c.427,0,.58.58.58,1.19v.275" transform="translate(-67.389 -309.853)"/><path class="a" d="M63.466,323.5c.183.092.4,0,.641.031a.5.5,0,0,1-.061-.3c.061-.275-.153-.366-.275-.336a1.655,1.655,0,0,1-.671,0c.153.153.122.488.366.61" transform="translate(-50.015 -306.782)"/><path class="a" d="M31.364,301.438c.092-.793-.031-.854-.275-1.068-.214-.152-.519-.214-.854-.458-.244-.153-.305-.4-.61-.732a2.6,2.6,0,0,1,.885-1.678,6.333,6.333,0,0,0,.031-1.068s.244,0,.214-.031a.767.767,0,0,0-.976.275,4.945,4.945,0,0,1-1.312.763,25.468,25.468,0,0,1-2.135-1.586,4.228,4.228,0,0,0,1.281-.183.985.985,0,0,0,.275-.946c-.122-.061-.336-.153-.519-.244a3.92,3.92,0,0,1-.58-.366,2.466,2.466,0,0,0-1.19-.7c.031-.3.122-.244.4-.427a2.27,2.27,0,0,0,.732-.824c.122-.244,0-.7-.305-.091a1.237,1.237,0,0,1-.7.579,2.187,2.187,0,0,0,.031-.4,1.635,1.635,0,0,0,.793-1.83c-.031-.336-.366-.458-.336-.122a1.055,1.055,0,0,1-.458,1.22,1.181,1.181,0,0,0-.153-.549,1.555,1.555,0,0,0,.092-1.861c-.153-.214-.549-.305-.366.061.153.274.366,1.037-.061,1.342-.153-.183-.336-.275-.366-.518a4.564,4.564,0,0,0-.122-1.647c-.092-.275-.366-.458-.336-.03a7.1,7.1,0,0,1,.031,1.068c-.031.03-.671-.549-.915-.7-.244-.183-.549-.122-.244.244.275.3,1.037.885.946,1.068-.061.122-.641-.336-.915-.458-.305-.092-.4.061-.153.274a3.307,3.307,0,0,0,1.342.763c.671.214.976,1.129.793,2.44,0,.061-.122.061-.183.03a4.6,4.6,0,0,0-.244-1.342c-.153-.336-.458-.366-.366.122a3.272,3.272,0,0,1,.092,1.251,2.387,2.387,0,0,1-.976-.366c-.03-.244.122-.671.122-1.037.031-.366-.183-.61-.305-.122-.122.427-.183.641-.275.976a.965.965,0,0,1-.4-.214l-.031-.885c-.031-.4-.183-.4-.305-.031a2.991,2.991,0,0,0-.122.641.713.713,0,0,1-.336-.518,9.016,9.016,0,0,1,.153-1.159c.031-.214-.092-.61-.275-.122a7.583,7.583,0,0,0-.214.915c-.153,0-.336-.823-.427-1.342-.03-.244-.244-.488-.275.031a3.288,3.288,0,0,0,.214,1.4c-.275-.03-.549-.519-.732-.824-.183-.274-.244,0-.244.122a1.693,1.693,0,0,0,1.373,1.464,5.808,5.808,0,0,0,2.593,1.586c-1.22,0-1.525.458-2.074.153a.806.806,0,0,0,.458.763,1.237,1.237,0,0,0,.366.091c.092.549.641.519,1.068.549a4.493,4.493,0,0,0,.976,3.569c-.03.549-.061,1.251-.061,1.739a8.833,8.833,0,0,0-1.739,3.05,2.292,2.292,0,0,1-.976,1.342.971.971,0,0,0,1.281-.031c.03.366.122.61.153.854a1.6,1.6,0,0,0-.366.976.929.929,0,0,0-.549.4c-.092.092,0,.61.122.824a6.75,6.75,0,0,1,0,2.715c.122,0,.366,0,.427-.183a1.108,1.108,0,0,1,.366.519c-.031.122-.092.61.153.671a2.187,2.187,0,0,0,1.19-.122,2.151,2.151,0,0,1-.336-.549,1.782,1.782,0,0,0-.092-.641,3.992,3.992,0,0,0-.519-.732,9.505,9.505,0,0,1,.061-2.044,6.157,6.157,0,0,0,2.074-2.379c.275.091.183.854.183,1.83,0,.275.336.4.519.427.427.061,1.007.458,1.647,1.434a1.559,1.559,0,0,1,.305-.275,2.55,2.55,0,0,1,.244.58c.061.122.61.214,1.007.091.122-.061.214-.061.305-.214a5.881,5.881,0,0,0-1.495-2.013c-.305-.244-.732-.336-1.068-.58.244-.427.854-2.44.488-3.2a1.121,1.121,0,0,0-1.19-.366,14.5,14.5,0,0,0,1.617-2.1c.122.122.7.031,1.129.214a2.042,2.042,0,0,1,.641.854,4.7,4.7,0,0,1-.183,1.769.749.749,0,0,0,.336-.122,1.379,1.379,0,0,1-.275.854,1.931,1.931,0,0,0,.4,1.007c.214-.671,1.037-1.586,1.007-2.135-.092-.793-.427-1.434-.4-1.739" transform="translate(-20.2 -282.588)"/><path class="a" d="M146.809,311.606a1.784,1.784,0,0,0-1.739-1.251,1.7,1.7,0,0,0-1.525.854,5.775,5.775,0,0,0-.488,2.684c0,1.708.275,2.776.885,3.2a2.034,2.034,0,0,0,1.19.336c1.373,0,1.952-1.037,1.952-3.569a9.6,9.6,0,0,0-.274-2.257Zm3.05,8.876a1.7,1.7,0,0,1-.885.183,3.6,3.6,0,0,1-1.83-.7,8.224,8.224,0,0,0-2.013-1.007,3.6,3.6,0,0,1-3.2-1.4,5.816,5.816,0,0,1-1.129-3.66c0-2.135.793-3.843,2.227-4.606a4.49,4.49,0,0,1,2.044-.488c2.623,0,4.24,1.922,4.24,5,0,2.135-.763,3.752-1.952,4.514a8.209,8.209,0,0,1,.885.488,2.514,2.514,0,0,0,1.22.4,7.764,7.764,0,0,0,.885-.061l-.488,1.342" transform="translate(-104.015 -296.996)"/><path class="a" d="M178.989,324.756a1.889,1.889,0,0,1-.58-.7,2.705,2.705,0,0,1-1.922.7,2.162,2.162,0,0,1-2.135-1.19,4.11,4.11,0,0,1-.152-1.434v-4.667l1.861-.366v4.667a3.005,3.005,0,0,0,.153,1.19.736.736,0,0,0,.671.336,1.438,1.438,0,0,0,1.19-.7V317.5l1.83-.4v5.551a2.113,2.113,0,0,0,.427,1.312l-1.342.793" transform="translate(-127.227 -302.764)"/><path class="a" d="M202.731,320.2a2.05,2.05,0,0,0-.214-1.1.936.936,0,0,0-.824-.427c-.732,0-1.129.579-1.129,1.586v.03h2.2l-.031-.091Zm-2.227,1.464v.061c0,1.129.549,1.769,1.525,1.769a2.806,2.806,0,0,0,1.83-.732l.732,1.129a4.182,4.182,0,0,1-2.745,1.007c-2.074,0-3.447-1.464-3.447-3.752a3.911,3.911,0,0,1,.915-2.867,2.852,2.852,0,0,1,2.288-.976,3.015,3.015,0,0,1,2.1.763,4.207,4.207,0,0,1,.976,3.172v.427H200.5" transform="translate(-144.045 -302.903)"/><path class="a" d="M226.831,320.2a2.05,2.05,0,0,0-.214-1.1.936.936,0,0,0-.824-.427c-.732,0-1.129.579-1.129,1.586v.03h2.2l-.03-.091Zm-2.227,1.464v.061c0,1.129.549,1.769,1.525,1.769a2.806,2.806,0,0,0,1.83-.732l.732,1.129a4.182,4.182,0,0,1-2.745,1.007c-2.074,0-3.447-1.464-3.447-3.752a3.911,3.911,0,0,1,.915-2.867,2.852,2.852,0,0,1,2.288-.976,3.015,3.015,0,0,1,2.1.763,4.207,4.207,0,0,1,.976,3.172v.427H224.6" transform="translate(-160.794 -302.903)"/><path class="a" d="M251.487,324.5v-4.728c0-.824-.153-1.068-.641-1.068a2.115,2.115,0,0,0-1.312.641v5.124h-1.891V319.2a5.92,5.92,0,0,0-.244-1.708l1.678-.488a1.766,1.766,0,0,1,.275.915,7.71,7.71,0,0,1,.824-.549,3.3,3.3,0,0,1,1.312-.305,1.782,1.782,0,0,1,1.739,1.037,3.1,3.1,0,0,1,.152,1.037v5.307l-1.891.061" transform="translate(-178.1 -302.695)"/><path class="a" d="M274.328,324.786a6.489,6.489,0,0,1-2.928-.824l.671-1.4a5.156,5.156,0,0,0,2.41.824.9.9,0,0,0,.976-.824c0-.488-.366-.763-1.129-.885l-.854-.152a2.739,2.739,0,0,1-1.342-.732,2.232,2.232,0,0,1-.4-1.312c0-1.434,1.129-2.379,2.806-2.379a5.735,5.735,0,0,1,2.593.671l-.641,1.281a3.894,3.894,0,0,0-1.8-.518c-.549,0-.915.274-.915.7,0,.366.244.58.915.732l.885.214a2.124,2.124,0,0,1,1.434.824,1.891,1.891,0,0,1,.4,1.22c.031,1.556-1.22,2.562-3.081,2.562" transform="translate(-194.779 -302.764)"/><path class="a" d="M297.852,317.776a1.673,1.673,0,0,1-1.678-1.007,3.673,3.673,0,0,1-.183-1.617v-5.429c0-.946-.031-1.525-.092-2.2l1.952-.427a12.191,12.191,0,0,1,.091,1.891v5.673c0,1.251,0,1.4.122,1.617a.438.438,0,0,0,.4.214.6.6,0,0,0,.214-.031l.336,1.128a3.685,3.685,0,0,1-1.159.183" transform="translate(-211.806 -295.814)"/><path class="a" d="M311.782,321.47c-1.312,0-1.769.244-1.769,1.1a.855.855,0,0,0,.824.946,1.438,1.438,0,0,0,1.007-.488l.031-1.556Zm1.617,3.538a2.059,2.059,0,0,1-1.007-.885c-.152.152-.3.275-.427.4a2.6,2.6,0,0,1-1.464.4c-1.617,0-2.5-.824-2.5-2.257,0-1.708,1.19-2.5,3.477-2.5h.427v-.305c0-.824-.152-1.068-.854-1.068a4.113,4.113,0,0,0-2.1.824l-.824-1.373a7.19,7.19,0,0,1,1.19-.61,4.747,4.747,0,0,1,1.983-.427,2.275,2.275,0,0,1,2.349,1.251,3.252,3.252,0,0,1,.122,1.312l-.03,2.44c0,.793.03,1.129.671,1.617l-1.007,1.19" transform="translate(-220.215 -302.834)"/><path class="a" d="M337.287,324.5v-4.728c0-.824-.152-1.068-.641-1.068a2.114,2.114,0,0,0-1.312.641v5.124h-1.891V319.2a5.918,5.918,0,0,0-.244-1.708l1.678-.488a1.766,1.766,0,0,1,.275.915,7.7,7.7,0,0,1,.824-.549,3.3,3.3,0,0,1,1.312-.305,1.812,1.812,0,0,1,1.739,1.037,3.1,3.1,0,0,1,.153,1.037v5.307l-1.891.061" transform="translate(-237.729 -302.695)"/><path class="a" d="M362.692,312.255a1.64,1.64,0,0,0-1.037-.458c-.854,0-1.22.7-1.22,2.318,0,1.556.336,2.074,1.312,2.074a1.4,1.4,0,0,0,.946-.457v-3.477Zm.427,5.368A1.2,1.2,0,0,1,363,317.2a2.377,2.377,0,0,1-1.678.61c-1.83,0-3.02-1.434-3.02-3.691s1.251-3.843,3.111-3.843a1.949,1.949,0,0,1,1.281.4,7.979,7.979,0,0,1-.061-1.068v-2.5l1.891.305v7.534a7.073,7.073,0,0,0,.275,2.654h-1.678" transform="translate(-255.173 -295.814)"/><path class="a" d="M398.509,319.3a3.95,3.95,0,0,1-2.989-1.22,5.275,5.275,0,0,1-1.22-3.782,5.169,5.169,0,0,1,1.495-4.087,3.691,3.691,0,0,1,2.532-.915,3.9,3.9,0,0,1,2.654.976l-.518.732a3.443,3.443,0,0,0-2.1-.763,2.4,2.4,0,0,0-2.44,1.647,7.769,7.769,0,0,0-.4,2.471,5.511,5.511,0,0,0,.671,2.959,2.945,2.945,0,0,0,2.349,1.037,2.812,2.812,0,0,0,1.556-.4V315h-1.952l-.214-.976h3.264v4.545a4.956,4.956,0,0,1-2.684.732" transform="translate(-280.192 -297.343)"/><path class="a" d="M426.684,319.6a1.665,1.665,0,0,0-1.495-.915,1.6,1.6,0,0,0-1.434.763,4.07,4.07,0,0,0-.336,1.83,5.388,5.388,0,0,0,.427,2.318,1.656,1.656,0,0,0,1.434.7,1.548,1.548,0,0,0,1.525-1.068,4.154,4.154,0,0,0,.214-1.525,4.626,4.626,0,0,0-.336-2.1Zm-1.434,5.643c-1.952,0-3.05-1.434-3.05-3.752,0-2.288,1.159-3.691,3.02-3.691a2.867,2.867,0,0,1,2.44,1.22,4.566,4.566,0,0,1,.641,2.623c-.031,2.349-1.281,3.6-3.05,3.6" transform="translate(-299.582 -303.251)"/><path class="a" d="M447.13,325.12h-1.1l-2.532-7.076,1.129-.244,1.647,4.85a8.866,8.866,0,0,1,.336,1.22h.031s.122-.549.336-1.19l1.617-4.7h1.19l-2.654,7.137" transform="translate(-314.385 -303.251)"/><path class="a" d="M470.179,319.364a1.46,1.46,0,0,0-1.281-.61c-1.007,0-1.586.732-1.617,2.2h3.233A3.228,3.228,0,0,0,470.179,319.364Zm-2.928,2.41v.183a2.809,2.809,0,0,0,.335,1.556,1.981,1.981,0,0,0,1.769.854,2.493,2.493,0,0,0,1.739-.671l.427.7a3.426,3.426,0,0,1-2.379.884c-1.952,0-3.142-1.434-3.142-3.752a3.666,3.666,0,0,1,.854-2.654,2.613,2.613,0,0,1,2.1-.976,2.67,2.67,0,0,1,1.922.763c.61.61.824,1.281.824,2.989v.152h-4.453" transform="translate(-330.022 -303.32)"/><path class="a" d="M492.364,318.981a.766.766,0,0,0-.3-.061,1.7,1.7,0,0,0-1.19.519,1.283,1.283,0,0,0-.427,1.129v4.423h-1.1v-5.46a3.452,3.452,0,0,0-.244-1.495l1.1-.305a2.378,2.378,0,0,1,.214,1.159,2.546,2.546,0,0,1,1.983-1.19,1.715,1.715,0,0,1,.4.061l-.427,1.22" transform="translate(-346.076 -303.181)"/><path class="a" d="M506.831,325.059v-4.789c0-.763-.061-.946-.244-1.19a1.054,1.054,0,0,0-.793-.3,3.2,3.2,0,0,0-1.952,1.007v5.277h-1.068V319.6a3.278,3.278,0,0,0-.274-1.495l1.068-.305a2.909,2.909,0,0,1,.244,1.1,3.169,3.169,0,0,1,2.227-1.1,1.888,1.888,0,0,1,1.739,1.037,1.91,1.91,0,0,1,.183.824v5.368l-1.129.03" transform="translate(-355.389 -303.251)"/><path class="a" d="M534.661,325.129v-5.216c0-.671-.3-1.037-.915-1.037-.641,0-1.129.4-1.861,1.1v5.155h-1.129V320.1a1.319,1.319,0,0,0-.214-.915.848.848,0,0,0-.732-.274,2.725,2.725,0,0,0-1.8.945v5.277h-1.068v-5.46a3.452,3.452,0,0,0-.244-1.495l1.068-.244a3.033,3.033,0,0,1,.244,1.037,3.2,3.2,0,0,1,2.044-1.068,1.718,1.718,0,0,1,1.647,1.19,3.377,3.377,0,0,1,2.257-1.19,1.774,1.774,0,0,1,1.769,1.922v5.338l-1.068-.031" transform="translate(-372.208 -303.32)"/><path class="a" d="M566.579,319.364a1.46,1.46,0,0,0-1.281-.61c-1.007,0-1.586.732-1.647,2.2h3.233A2.959,2.959,0,0,0,566.579,319.364Zm-2.928,2.41v.183a2.807,2.807,0,0,0,.336,1.556,1.98,1.98,0,0,0,1.769.854,2.493,2.493,0,0,0,1.739-.671l.427.7a3.426,3.426,0,0,1-2.379.884c-1.952,0-3.142-1.434-3.142-3.752a3.666,3.666,0,0,1,.854-2.654,2.613,2.613,0,0,1,2.1-.976,2.67,2.67,0,0,1,1.922.763c.61.61.824,1.281.824,2.989v.152h-4.453" transform="translate(-397.018 -303.32)"/><path class="a" d="M589.831,325.059v-4.789c0-.763-.061-.946-.244-1.19a1.054,1.054,0,0,0-.793-.3,3.2,3.2,0,0,0-1.952,1.007v5.277h-1.068V319.6a3.278,3.278,0,0,0-.274-1.495l1.068-.305a2.908,2.908,0,0,1,.244,1.1,3.169,3.169,0,0,1,2.227-1.1,1.888,1.888,0,0,1,1.739,1.037,1.91,1.91,0,0,1,.183.824v5.368l-1.129.03" transform="translate(-413.072 -303.251)"/><path class="a" d="M611.147,314.6h-1.464v4.545c0,.793.214,1.037.915,1.037a1.259,1.259,0,0,0,.7-.153l.153.7A2.7,2.7,0,0,1,610.2,321a2.131,2.131,0,0,1-.915-.183,1.374,1.374,0,0,1-.671-1.4v-4.85H607.7v-.824h.915c0-.671.122-1.8.122-1.8l1.159-.244a17.546,17.546,0,0,0-.152,2.044h1.769l-.366.854" transform="translate(-428.501 -299.011)"/></svg>