<?xml version="1.0" encoding="utf-8"?>
<!-- Generator: Adobe Illustrator 26.0.2, SVG Export Plug-In . SVG Version: 6.00 Build 0)  -->
<svg version="1.1" id="Layer_1" xmlns="http://www.w3.org/2000/svg" xmlns:xlink="http://www.w3.org/1999/xlink" x="0px" y="0px"
	 viewBox="0 0 186 32" style="enable-background:new 0 0 186 32;" xml:space="preserve">
<style type="text/css">
	.st0{fill:#495163;}
</style>
<g>
	<g>
		<path class="st0" d="M34.7,12.13c-0.11,0.03-0.38,0.11-0.56,0.13c0.34-0.33,0.54-0.73,0.54-1.06c-0.16,0.05-0.45,0.16-0.71,0.22
			c0.52-0.44,0.81-0.96,0.68-1.64c-0.16,0.08-0.38,0.21-0.61,0.3c0.45-0.7,0.45-1.32,0.26-1.68c-0.2,0.19-0.45,0.41-0.71,0.57
			c0.17-0.81,0.16-1.33-0.18-1.7c-0.35,0.65-0.65,1.14-1.13,1.72c0.04-0.54-0.02-1.2-0.37-1.55c0,0-0.1,0.75-0.36,0.99
			c-0.06-0.73-0.29-1.13-0.62-1.52c0,0-0.02,0.76-0.23,1.23c-0.18-0.64-0.51-1.13-0.92-1.61c0.03,1.41-0.36,4.06-1.49,5.85
			c-0.13,1.06-0.25,2.65-1.97,3.59c-0.25-0.18-0.69-0.4-1.3-0.36c-0.16-0.8,0.88-1.52,1.78-2.11c0.91-0.59,1.31-1.09,1.29-1.87
			c-0.02-0.86-0.6-1.21-1.2-1.23c-0.85-0.04-1.54,0.73-1.7,1.05c-0.24,0.12-0.97,0.34-1.27,0.42c-0.33,0.09-0.7,0.22-0.93,0.42
			c0.14,0.09,0.54,0.12,0.69,0.09c0.29-0.04,1.2-0.21,2.08-0.32c0.32,0.17,0.84,0.46,0.29,0.84c-0.74,0.48-1.06,0.6-2.12,1.15
			c-1.66,0.87-1.13,3.06-0.72,3.22c0,0.74,0.66,2.08,1.11,2.54c0.2,0.93-0.07,2.31-0.35,2.89c-0.23-0.56-0.63-1.87-0.89-2.63
			c0.27-1.44-0.17-2.08-0.47-2.32c-0.3-0.25-0.79-0.18-1.09,0.32c0.48-0.05,0.64,0.56,0.63,1.2c-0.01,0.76-0.21,1.37-0.74,1.38
			c0.04,0.65,0.74,0.84,1.09,0.52c0.06,0.14,0.34,1,0.6,1.77c0.16,0.45,0.31,0.87,0.41,1.08c0.11,0.24,0.92,0.28,1.02,0
			c0.13-0.37,0.23-0.65,0.43-1.08c0.15-0.33,0.37-0.75,0.69-1.37c0.22,0.38,0.51,0.97,0.68,1.37c0.08,0.19,0.13,0.34,0.14,0.4
			c0.07,0.62,0.03,2.83-0.14,4.15c-1.81-0.5-2.33,0.39-2.17,1.05c0.26-0.29,0.6-0.25,0.81-0.1c-0.05,0.49,0.08,0.83,0.57,0.98
			c0.52-1.38,2.39-1.07,2.57-0.96c0.01-0.27,0.26-0.93-0.7-1.07c0.04-1.19,0.16-2.65,0.2-2.95c0.05-0.3,0.08-0.5-0.07-0.97
			c-0.04-0.14-0.09-0.32-0.15-0.53c-0.12-0.48-0.25-1.11-0.26-1.79c0.17,0.17,0.57,0.3,0.84,0.24c0.21,0.9,0.52,0.64,0.68,1.02
			c0.08,0.2,0.1,0.38,0.12,0.54c0.02,0.16,0.05,0.29,0.13,0.41c0.64,0.02,1.19-0.13,1.58-0.41c0.12-0.08,0.23-0.18,0.32-0.28
			c-0.16-0.96-0.43-1.43-0.93-2.01c-0.13-0.79-0.5-1.5-1-2.14c0.64-0.21,1.28-0.72,1.61-1.08c0.3-0.02,0.65-0.27,0.68-0.77
			c0.18-0.02,0.33-0.03,0.46-0.06c-0.02-0.13-0.05-0.34-0.07-0.46c0.23,0,0.45-0.01,0.67-0.03c-0.06-0.18-0.14-0.37-0.21-0.51
			c0.23,0,0.52-0.02,0.75-0.03c-0.12-0.23-0.22-0.43-0.29-0.64c0.27-0.03,0.68-0.09,1.02-0.18c-0.11-0.11-0.23-0.23-0.42-0.41
			c0.88-0.26,1.27-0.88,1.31-1.15c-0.13,0-0.4,0.06-0.56,0.05C34.31,12.96,34.64,12.56,34.7,12.13"/>
		<path class="st0" d="M22.32,14.12H11.15v4.13c0.05,0.03,0.1,0.07,0.15,0.11v-4.06h11.12v3.78c0.04,0.04,0.08,0.09,0.11,0.16v-4.12
			L22.32,14.12"/>
		<path class="st0" d="M16.82,28.35c-4.93-1.84-5.56-5.88-5.58-7.72l-0.02-0.01l0.02-0.13c0-0.4,0.03-0.67,0.05-0.76
			c-0.02-0.26-0.05-0.47-0.1-0.62l-0.05-0.1v1.91c0,2.13,0.78,3.97,2.32,5.46c1.35,1.31,2.87,1.92,3.3,2.07l0.07,0.03l0.07-0.03
			c0.43-0.15,1.95-0.76,3.3-2.07c1.54-1.49,2.32-3.33,2.32-5.46v-0.35c-0.04,0.06-0.08,0.1-0.12,0.15
			c-0.05,0.96-0.22,2.44-0.86,3.56C20.79,25.85,19.62,27.14,16.82,28.35"/>
		<path class="st0" d="M7.97,2.96c0.7,0.34,0.93-0.29,2.24,0.56C9.34,3.79,8.67,4.87,7.69,4.59c0.7-0.35,0.63-0.86,1.04-1.12
			C8.47,3.44,7.96,3.32,7.97,2.96z M10.49,9.95c-0.42-0.17-1.07-0.28-1.43,0.23c-0.2-0.34,0.09-0.86,0.28-1.01
			C8.42,9.19,7.89,8.91,7.76,8.62c0.34-0.19,1.2-0.5,1.91,0.02c0.49,0.36,0.73,0.53,1.31,0.72c0.21-0.21,0.13-0.11,0.2-0.18
			c-0.47-0.33-0.68-2.84-1.61-2.93c0.13-0.32,0.61-0.29,1-0.19c0.03-0.56-0.21-1.49-0.55-2.02c0.54-0.28,0.9,0.03,1.09,0.69
			c0.2,0.71-0.04,2.48,0.43,4.08l0.29-0.27c-0.14-0.93,0.88-1.28,1.1-1.74c0.09,0.62-0.04,0.9-0.22,1.13
			c0.37,0.04,0.54,0.41,0.48,0.66c-0.89-0.13-1.41,0.76-1.21,1.47C11.31,10.21,10.85,10.1,10.49,9.95L10.49,9.95z M14.85,10.47
			c-0.77,0.04-1.52,1.04-1.2,2.18c-0.11,0.04-0.45,0.04-0.56-0.2c-0.08,0.37-0.84,0.8-1.38,0.74c0.3-0.33,0.51-1.07,1.1-1.46
			c0.59-0.39,0.86-0.66,1.07-1.33c-0.27,0.13-1.71,0.5-2.12,0.06c0.95-0.14,2.06-0.67,2.61-1.02l-0.22-0.23
			c-0.59,0.34-1.38,0.61-1.79,0.73c-0.14-1.18,0.98-1.14,1.07-0.82c0.46-0.55,0.14-1.34-0.21-1.43c0.35-0.95,0-1.52-0.3-1.87
			c-0.07,1-1.19,1.16-1.32,1.93c-0.04-0.61-0.08-2.26-0.13-3.06C11.4,3.21,9.51,2.68,9.22,2.68C7.99,2.74,7.87,2.58,7.9,2.01
			C7.28,2.72,7.49,3.35,8.02,3.66C7.95,4.09,7.26,4.42,6.85,4.51c1,0.93,2.16,0.38,2.72-0.15l0.12-0.11c0.2,0.36,0.35,1,0.35,1.37
			C9.1,5.57,8.93,6.3,8.93,6.56c1.19-0.5,1.32,1.79,1.63,2.15c-0.3-0.02-0.84-0.73-1.63-0.77C7.97,7.87,7.64,8.38,7.25,8.36
			c0.07,0.68,0.89,1.05,1.42,1.13c-0.27,0.69-0.03,1.16,0.53,1.33c0-0.63,0.8-0.83,1.65-0.33c1.03,0.6,1.55,0.65,2.38,0.4
			c-0.13,0.3-0.51,0.33-0.97,0.77c-0.64,0.63-0.66,1.45-1.37,1.75c0.84,0.4,2.1-0.16,2.28-0.48c0.35,0.22,0.8,0.09,0.92-0.13
			c-0.57-1.26,0.39-2,0.77-1.99C14.87,10.83,15.03,10.45,14.85,10.47"/>
		<path class="st0" d="M23.54,3.64c0.42-0.3,0.69-0.43,0.91-0.57c0.36,0.02,0.99-0.03,1.36-0.22c-0.39,0.48-0.43,0.66-1.07,0.72
			c0.83,0.07,1.18,0.82,1.59,0.93C24.94,4.93,24.8,3.56,23.54,3.64z M25.24,7.78c0.41,0.34,0.28,0.82,0.18,0.93
			c-0.36-0.62-1.52-0.41-2.67,0.88c-0.08,0.1-0.19,0.21-0.32,0.32c0.09-1.54-1.17-1.56-1.54-1.41c0.04-0.44,0.32-0.75,0.46-0.79
			c-0.37-0.43-0.45-0.97-0.5-1.36c0.61,0.27,1.53,0.99,1.68,2.23l0.4-0.27c-0.12-2.17-0.09-2.16-0.11-3.64
			c0-0.21,0.01-0.69,0.66-0.64c0.03,0.55,0.11,2,0.08,4.02h0.23c0.21-0.56,0.96-1.23,1.83-1.17c0.59,0.04,0.8,0.03,1.14-0.12
			C26.52,7.43,25.51,7.73,25.24,7.78L25.24,7.78z M23.99,7.02c0-1.4-0.05-2.55-0.07-2.91l0.17,0.05c1,0.35,1.23,1.56,3.31,0.19
			c-1.11,0.13-1.17-0.81-1.67-0.83c0.77-0.43,0.82-1.44,0.82-1.44C25.9,2.6,24.41,2.63,24.11,2.8c-0.39,0.23-0.87,0.52-1.2,0.7
			c-0.86,0.47-0.26,3.03-0.35,3.96c-0.46-1.39-1.4-1.18-1.9-1.98c-0.37,0.67,0.02,1.78,0.18,2.1c-0.54,0.43-0.39,1.24-0.26,1.46
			c0.46-0.33,1.17-0.24,1.38,0.3c-0.6,0.37-1.61,0.43-2.3-0.23l-0.25,0.27c0.49,0.64,1.7,0.89,2.61,0.37
			c-0.01,0.14-0.04,0.31-0.1,0.49c-0.47,0.25-1.08,0.38-1.77,0.14c0.09,0.7,0.9,1.22,1.67,1.44c-0.26,0.2-0.58,0.28-0.81,0.25
			c0.14,0.4,0.23,0.95-0.08,1.38c-0.38-0.25-0.59-0.51-0.73-1.49c-0.15-0.99-0.86-1.99-1.41-2.2c-0.03,0.35-0.03,0.2,0.03,0.42
			c1.47,1.07,0.64,3.01,2.16,3.71c0.56-0.64,0.57-0.86,0.48-1.46c0.55-0.14,0.96-0.61,1.11-0.97c-0.52,0.25-1.35-0.19-1.58-0.53
			c0.91-0.03,1.75-0.71,2.6-1.61c0.77-0.81,1.79-0.68,1.71-0.05c0.53-0.08,0.74-0.81,0.56-1.27c0.78-0.24,1.39-0.82,1.47-1.72
			C26.3,6.82,24.97,5.96,23.99,7.02"/>
		<path class="st0" d="M18.34,11.78c-0.07,0-0.13,0.04-0.18,0.09l-0.25-0.04l0.01-0.45c0.08-0.04,0.13-0.11,0.13-0.21
			c0-0.12-0.1-0.23-0.22-0.23c-0.12,0-0.22,0.1-0.22,0.23c0,0.09,0.05,0.16,0.11,0.2l-0.01,0.43l-0.24-0.02
			c-0.03-0.08-0.11-0.13-0.2-0.13c-0.12,0-0.22,0.1-0.22,0.22c0,0.12,0.1,0.22,0.22,0.22c0.08,0,0.15-0.04,0.19-0.1l0.25,0.03
			l-0.01,0.66c-0.07,0.04-0.12,0.11-0.12,0.2c0,0.12,0.1,0.23,0.22,0.23c0.12,0,0.23-0.1,0.23-0.23c0-0.09-0.06-0.17-0.13-0.2
			l0.01-0.62l0.21,0.03c0.03,0.09,0.11,0.15,0.21,0.15c0.12,0,0.23-0.1,0.23-0.22C18.56,11.89,18.47,11.78,18.34,11.78"/>
		<path class="st0" d="M16.4,11.65c-0.09,0-0.17,0.05-0.21,0.13l-0.23,0.02l-0.01-0.43c0.07-0.04,0.12-0.11,0.12-0.2
			c0-0.12-0.1-0.23-0.22-0.23c-0.12,0-0.23,0.1-0.23,0.23c0,0.09,0.06,0.17,0.13,0.21l0.01,0.45l-0.25,0.04
			c-0.04-0.05-0.1-0.09-0.18-0.09c-0.12,0-0.22,0.1-0.22,0.23c0,0.12,0.1,0.22,0.22,0.22c0.1,0,0.18-0.06,0.21-0.15l0.21-0.03
			l0.01,0.62c-0.08,0.04-0.13,0.11-0.13,0.2c0,0.12,0.1,0.23,0.22,0.23c0.12,0,0.23-0.1,0.23-0.23c0-0.09-0.05-0.16-0.12-0.2
			l-0.01-0.66L16.2,12c0.04,0.06,0.11,0.1,0.19,0.1c0.12,0,0.23-0.1,0.23-0.22C16.62,11.76,16.52,11.65,16.4,11.65"/>
		<path class="st0" d="M16.84,13.55c-0.34,0.64-0.96,0.62-1.5,0.26c-0.22-0.14-0.44-0.24-0.65-0.27c0.09-0.63,0.25-1.81,0.36-2.81
			c0.7-0.32,1.56-0.39,1.78,0.42c0.21-0.81,1.08-0.73,1.78-0.42c0.11,1,0.27,2.18,0.36,2.81c-0.2,0.03-0.43,0.13-0.65,0.27
			C17.79,14.17,17.17,14.19,16.84,13.55z M19.38,13.58c-0.13-0.9-0.46-3.43-0.5-4.28l-0.39,0.02c0.01,0.14,0.02,0.34,0.04,0.56
			c-0.46-0.14-1.07-0.23-1.69-0.23c-0.62,0-1.23,0.09-1.69,0.23c0.02-0.22,0.04-0.41,0.04-0.56L14.8,9.29
			c-0.04,0.85-0.36,3.38-0.5,4.28c-0.23,0.09-0.38,0.32-0.38,0.73c0,0,2.1,0.03,2.92,0.03s2.91-0.03,2.91-0.03
			C19.76,13.9,19.6,13.67,19.38,13.58"/>
		<path class="st0" d="M28.19,31.64H5.49c-0.1-0.72-0.24-1.19-0.36-1.58h23.42C28.43,30.45,28.29,30.91,28.19,31.64z M12.81,26.78
			c0.21,0.31,0.41,0.54,0.51,0.79c0.1,0.26,0.04,0.42-0.15,0.68c-0.43,0.6-1.18,1.12-1.77,1.44H9.12
			C10.54,29.28,12.48,28.06,12.81,26.78L12.81,26.78z M11.43,26.35c0.19-0.35,0.64-0.45,0.95-0.05c0.13,0.18,0.07,0.64-0.46,1.22
			C11.51,27.18,11.23,26.72,11.43,26.35L11.43,26.35z M20.5,28.24c-0.19-0.27-0.25-0.42-0.15-0.68c0.1-0.25,0.29-0.48,0.51-0.79
			c0.33,1.28,2.26,2.5,3.69,2.91h-2.28C21.67,29.36,20.93,28.85,20.5,28.24L20.5,28.24z M21.28,26.31c0.31-0.41,0.76-0.3,0.95,0.05
			c0.2,0.37-0.09,0.82-0.48,1.18C21.21,26.95,21.15,26.49,21.28,26.31L21.28,26.31z M28.64,29.57c-0.24,0.07-0.54,0.11-0.98,0.11
			h-0.55c-1.89-0.04-3.83-0.6-5.02-1.82c1.64-1.66-0.29-3.02-1.33-1.62c-0.33,0.44-0.58,0.75-0.81,1.18
			c-0.18,0.35-0.05,0.69,0.36,1.22c0.22,0.29,0.78,0.74,1.23,1.04h-9.44c0.45-0.29,1.01-0.74,1.23-1.04
			c0.4-0.53,0.55-0.87,0.36-1.22c-0.23-0.43-0.49-0.74-0.82-1.18c-1.04-1.4-2.97-0.04-1.33,1.62c-1.19,1.22-3.13,1.78-5.02,1.82
			H6.01c-0.44,0-0.74-0.05-0.98-0.11c-0.39-0.09-0.48,0.07-0.27,0.75C4.91,30.77,5.02,31.5,5.07,32H28.6
			c0.05-0.51,0.17-1.24,0.31-1.68C29.12,29.64,29.03,29.48,28.64,29.57"/>
		<path class="st0" d="M8.2,31.05L8.2,31.04l0.17-0.45l0.01-0.01l0.01,0.01l0.17,0.45l-0.01,0.01H8.2L8.2,31.05z M8.57,31.12
			l0.02,0.01l0.06,0.17l-0.01,0.03l-0.02,0.01l0.04,0.01h0.25l0.06-0.01l-0.02-0.01L8.9,31.32c-0.03-0.01-0.07-0.03-0.12-0.14
			c-0.09-0.21-0.3-0.75-0.33-0.83l-0.04-0.04l-0.04,0.06l-0.34,0.84c-0.03,0.07-0.05,0.11-0.11,0.12H7.88l-0.02,0.01l0.03,0.01h0.16
			h0.14l0.02-0.01l-0.02-0.01H8.17c-0.04,0-0.05-0.02-0.05-0.04l0.02-0.08l0.03-0.08l0.01-0.01H8.57"/>
		<path class="st0" d="M9.24,30.92c0,0.2,0.05,0.29,0.12,0.36c0.1,0.09,0.23,0.09,0.3,0.09c0.09,0,0.19-0.01,0.28-0.1
			c0.11-0.09,0.13-0.25,0.13-0.4v-0.14v-0.28c0.01-0.05,0.01-0.07,0.05-0.08l0.04-0.01l0.03-0.01l-0.03-0.01H10H9.85l-0.03,0.01
			l0.03,0.01l0.05,0.01c0.05,0.01,0.06,0.03,0.06,0.08v0.28v0.17c0,0.14-0.01,0.26-0.08,0.34c-0.06,0.05-0.13,0.07-0.19,0.07
			c-0.05,0-0.11-0.01-0.17-0.06c-0.07-0.06-0.1-0.13-0.1-0.33v-0.19v-0.28c0.01-0.05,0.02-0.07,0.05-0.08l0.04-0.01l0.02-0.01
			l-0.03-0.01H9.32h-0.2L9.1,30.35l0.03,0.01l0.05,0.01c0.05,0.01,0.06,0.03,0.06,0.08l0.01,0.28L9.24,30.92"/>
		<path class="st0" d="M10.8,30.7v-0.27l0.02-0.03l0.09-0.01c0.11,0,0.26,0.02,0.38,0.13c0.06,0.06,0.13,0.17,0.13,0.34
			c0,0.14-0.03,0.26-0.11,0.34c-0.08,0.07-0.17,0.1-0.31,0.1c-0.11,0-0.16-0.03-0.18-0.05l-0.02-0.1v-0.27V30.7L10.8,30.7z
			 M10.63,30.96c0,0.12,0,0.23-0.01,0.29c-0.01,0.04-0.01,0.07-0.04,0.08l-0.05,0.01l-0.02,0.01l0.03,0.01h0.17l0.29,0.02
			c0.25,0,0.39-0.09,0.45-0.16c0.08-0.08,0.14-0.21,0.14-0.37c0-0.16-0.06-0.27-0.13-0.34c-0.14-0.15-0.37-0.15-0.54-0.15h-0.21
			h-0.2l-0.03,0.01l0.02,0.01l0.06,0.01c0.04,0.01,0.05,0.03,0.06,0.08l0.01,0.28L10.63,30.96"/>
		<path class="st0" d="M12.12,31.05l-0.01-0.01l0.17-0.45l0.01-0.01l0.01,0.01l0.17,0.45l-0.01,0.01
			C12.45,31.05,12.12,31.05,12.12,31.05z M12.48,31.12l0.01,0.01l0.06,0.17l-0.02,0.03l-0.02,0.01l0.04,0.01h0.25l0.06-0.01
			l-0.02-0.01l-0.06-0.01c-0.03-0.01-0.07-0.03-0.11-0.14c-0.09-0.21-0.3-0.75-0.34-0.83l-0.03-0.04l-0.04,0.06l-0.34,0.84
			c-0.03,0.07-0.05,0.11-0.11,0.12h-0.04l-0.02,0.01l0.03,0.01h0.16h0.14l0.02-0.01l-0.02-0.01h-0.02c-0.04,0-0.05-0.02-0.05-0.04
			l0.02-0.08l0.03-0.08l0.02-0.01H12.48"/>
		<path class="st0" d="M13.8,30.47c0.04-0.06,0.07-0.1,0.1-0.11l0.05-0.01l0.02-0.01l-0.03-0.01H13.8h-0.13l-0.03,0.01l0.02,0.01
			l0.05,0.01l0.02,0.02l-0.02,0.05l-0.19,0.28l-0.17-0.3l-0.02-0.04l0.02-0.02l0.04-0.01l0.02-0.01l-0.03-0.01h-0.14h-0.21
			l-0.03,0.01l0.01,0.02l0.06,0.01c0.05,0.02,0.08,0.05,0.11,0.1l0.23,0.38l-0.26,0.37c-0.05,0.07-0.07,0.09-0.11,0.1L13,31.33
			l-0.02,0.01L13,31.35h0.03h0.11h0.13h0.03l0.03-0.01l-0.02-0.01h-0.03l-0.03-0.02l0.02-0.06l0.2-0.32l0.21,0.37l-0.01,0.03
			l-0.02,0.02l0.05,0.02h0.24h0.04L14,31.35l-0.02-0.01l-0.05-0.01c-0.04-0.01-0.06-0.03-0.08-0.06c-0.03-0.04-0.25-0.41-0.29-0.47
			L13.8,30.47"/>
		<path class="st0" d="M15.63,31.05l-0.01-0.01l0.17-0.45l0.01-0.01l0.01,0.01l0.17,0.45l-0.01,0.01H15.63L15.63,31.05z
			 M15.99,31.12L16,31.13l0.06,0.17l-0.01,0.03l-0.02,0.01l0.04,0.01h0.25l0.06-0.01l-0.02-0.01l-0.06-0.01
			c-0.03-0.01-0.07-0.03-0.12-0.14c-0.09-0.21-0.3-0.75-0.33-0.83l-0.04-0.04l-0.04,0.06l-0.34,0.84c-0.03,0.07-0.05,0.11-0.11,0.12
			h-0.04l-0.02,0.01l0.03,0.01h0.16h0.14l0.02-0.01l-0.02-0.01h-0.02c-0.04,0-0.05-0.02-0.05-0.04l0.02-0.08l0.03-0.08l0.01-0.01
			H15.99"/>
		<path class="st0" d="M16.82,30.96c0,0.12,0,0.23-0.01,0.29c-0.01,0.04-0.01,0.07-0.04,0.08l-0.05,0.01l-0.02,0.01l0.03,0.01h0.17
			h0.21l0.02-0.01l-0.02-0.01l-0.07-0.01C17.01,31.32,17,31.29,17,31.25c-0.01-0.06-0.01-0.17-0.01-0.29v-0.55l0.17,0.01
			c0.12,0.01,0.15,0.04,0.16,0.08v0.02l0.02,0.03l0.01-0.02l0.01-0.15l-0.01-0.03l-0.13,0.01h-0.53l-0.13-0.01l-0.06-0.02
			l-0.02,0.03l-0.03,0.15l0.01,0.02l0.02-0.02l0.02-0.05c0.02-0.03,0.05-0.04,0.13-0.04l0.2-0.01L16.82,30.96"/>
		<path class="st0" d="M19.16,30.86l0.01-0.01l0.2,0.01c0.04,0.01,0.06,0.03,0.07,0.05l0.01,0.04l0.01,0.02l0.01-0.03l0.01-0.1
			l0.01-0.08l-0.01-0.01l-0.02,0.02l-0.06,0.02h-0.06h-0.17l-0.01-0.02v-0.34l0.02-0.02l0.21,0.01c0.05,0,0.08,0.02,0.09,0.04
			l0.01,0.05l0.02,0.02l0.02-0.02l0.01-0.11l0.01-0.06l-0.01-0.01l-0.02,0.01l-0.06,0.01h-0.36h-0.19l-0.03,0.01l0.02,0.01
			l0.05,0.01c0.04,0.01,0.05,0.03,0.06,0.08l0.01,0.28v0.24c0,0.13,0,0.23-0.01,0.29c-0.01,0.04-0.01,0.07-0.04,0.08l-0.05,0.01
			l-0.02,0.01l0.03,0.01h0.17h0.21l0.03-0.01l-0.02-0.01l-0.07-0.01c-0.04-0.01-0.05-0.04-0.05-0.08c-0.01-0.06-0.01-0.15-0.01-0.29
			L19.16,30.86"/>
		<path class="st0" d="M20.02,30.96l-0.01,0.29c-0.01,0.04-0.02,0.06-0.04,0.07l-0.05,0.01l-0.02,0.01l0.03,0.01h0.17h0.21
			l0.03-0.01l-0.02-0.01l-0.07-0.01c-0.04-0.01-0.05-0.03-0.05-0.07l-0.01-0.29v-0.24v-0.28c0.01-0.05,0.01-0.07,0.05-0.08
			l0.04-0.01l0.02-0.02l-0.03-0.01h-0.17h-0.17l-0.03,0.01l0.02,0.02l0.05,0.01c0.03,0.01,0.04,0.03,0.05,0.08v0.28V30.96"/>
		<path class="st0" d="M20.99,30.7v-0.27l0.02-0.03l0.09-0.01c0.11,0,0.26,0.02,0.38,0.13c0.06,0.06,0.13,0.17,0.13,0.34
			c0,0.14-0.03,0.26-0.11,0.34c-0.08,0.07-0.17,0.1-0.31,0.1c-0.11,0-0.16-0.03-0.18-0.05L21,31.15l-0.01-0.27L20.99,30.7
			L20.99,30.7z M20.83,30.96c0,0.12,0,0.23-0.01,0.29c-0.01,0.04-0.01,0.07-0.04,0.08l-0.05,0.01l-0.02,0.01l0.03,0.01h0.17
			l0.28,0.02c0.25,0,0.39-0.09,0.45-0.16c0.08-0.08,0.15-0.21,0.15-0.37c0-0.16-0.06-0.27-0.13-0.34c-0.14-0.15-0.37-0.15-0.54-0.15
			h-0.21h-0.2l-0.03,0.01l0.03,0.01l0.05,0.01c0.04,0.01,0.05,0.03,0.06,0.08l0.01,0.28L20.83,30.96"/>
		<path class="st0" d="M22.26,30.96l-0.01,0.29c-0.01,0.04-0.01,0.07-0.04,0.08l-0.05,0.01l-0.02,0.01l0.03,0.01h0.17l0.37,0.01
			c0.05,0,0.06,0,0.07-0.04l0.02-0.15l-0.01-0.03l-0.02,0.02c-0.01,0.05-0.03,0.08-0.06,0.1s-0.09,0.02-0.12,0.02
			c-0.13,0-0.16-0.02-0.16-0.11v-0.32l0.01-0.02l0.19,0.01c0.05,0.01,0.07,0.03,0.08,0.05v0.06l0.01,0.01l0.01-0.03l0.01-0.09
			l0.01-0.1l-0.01-0.01l-0.02,0.02l-0.07,0.02l-0.22,0.01l-0.01-0.02v-0.34l0.01-0.01l0.19,0.01c0.07,0.01,0.08,0.02,0.09,0.05
			l0.01,0.05l0.01,0.02l0.01-0.02l0.01-0.09l0.01-0.09l-0.01-0.01l-0.02,0.01l-0.06,0.01h-0.34h-0.19l-0.03,0.01l0.02,0.01
			l0.05,0.01c0.05,0.01,0.06,0.03,0.06,0.08v0.28L22.26,30.96"/>
		<path class="st0" d="M23.48,30.73v-0.28c0.01-0.05,0.02-0.07,0.05-0.08l0.05-0.01l0.02-0.01l-0.03-0.01h-0.18h-0.18l-0.03,0.01
			l0.02,0.01l0.05,0.01c0.04,0.01,0.05,0.03,0.06,0.08l0.01,0.28v0.24c0,0.12,0,0.23-0.01,0.29c-0.01,0.04-0.01,0.07-0.04,0.08
			l-0.05,0.01l-0.02,0.01l0.03,0.01h0.17l0.39,0.01c0.07,0,0.08-0.01,0.08-0.04l0.02-0.15l-0.01-0.02l-0.02,0.02l-0.04,0.08
			c-0.03,0.04-0.09,0.04-0.16,0.04c-0.1,0-0.14-0.01-0.16-0.03c-0.03-0.03-0.03-0.12-0.03-0.29L23.48,30.73"/>
		<path class="st0" d="M24.31,30.96l-0.01,0.29c-0.01,0.04-0.02,0.06-0.04,0.07l-0.05,0.01l-0.02,0.01l0.03,0.01h0.17h0.21
			l0.03-0.01l-0.03-0.01l-0.07-0.01c-0.04-0.01-0.05-0.03-0.05-0.07c-0.01-0.06-0.01-0.17-0.01-0.29v-0.24l0.01-0.28
			c0.01-0.05,0.02-0.07,0.05-0.08l0.04-0.01l0.02-0.02l-0.03-0.01h-0.17h-0.18l-0.03,0.01l0.02,0.02l0.05,0.01
			c0.03,0.01,0.04,0.03,0.05,0.08v0.28L24.31,30.96"/>
		<path class="st0" d="M25.24,31.37c0.07,0,0.15-0.01,0.22-0.06c0.1-0.06,0.12-0.15,0.12-0.23c0-0.12-0.06-0.22-0.22-0.34
			l-0.04-0.03c-0.11-0.08-0.14-0.13-0.14-0.19c0-0.08,0.06-0.14,0.16-0.14c0.09,0,0.12,0.04,0.14,0.07
			c0.03,0.04,0.04,0.08,0.04,0.09l0.02,0.02l0.02-0.04l0.01-0.16l-0.02-0.02c-0.04-0.01-0.09-0.02-0.18-0.02
			c-0.19,0-0.31,0.11-0.31,0.25c0,0.11,0.05,0.21,0.2,0.32l0.06,0.05c0.11,0.09,0.13,0.15,0.13,0.22c0,0.07-0.06,0.15-0.18,0.15
			c-0.08,0-0.16-0.04-0.19-0.13l-0.02-0.07l-0.01-0.03l-0.02,0.04l-0.01,0.18l0.03,0.05C25.1,31.36,25.16,31.37,25.24,31.37"/>
		<path class="st0" d="M16.84,7.89c-0.7,0-1.5,0.17-2.11,0.43c0.01-0.13,0.06-0.25,0.14-0.36c0.36-0.43,1.28-0.58,1.96-0.58
			c0.69,0,1.61,0.15,1.96,0.58c0.09,0.1,0.13,0.22,0.14,0.36C18.34,8.05,17.55,7.89,16.84,7.89z M18.04,8.88l-0.22-0.5
			c0.33,0.06,0.65,0.16,0.92,0.28l0.13,0.52C18.67,9.09,18.38,8.97,18.04,8.88z M15.98,8.8L15.6,8.44c0.3-0.08,0.63-0.13,0.95-0.15
			l0.22,0.43C16.48,8.73,16.22,8.76,15.98,8.8L15.98,8.8z M14.76,9.2l-0.11,0.05C14.5,9.3,14.4,9.25,14.36,9.18
			c-0.04-0.08-0.02-0.21,0.17-0.32l0.08-0.04l0.36,0.29L14.76,9.2L14.76,9.2z M16.84,6.55l0.51,0.37c-0.22-0.02-0.4-0.03-0.51-0.03
			s-0.29,0.01-0.51,0.03L16.84,6.55z M16.26,5.21C16.05,4.76,16,4.17,16.63,4.45l0.05,0.75H16.26z M16.75,3.58l0.09,0.07l0.09-0.07
			l0.37-0.27l-0.21,0.71l-0.02,0.01c-0.04-0.09-0.12-0.15-0.23-0.15s-0.19,0.06-0.23,0.15l-0.02-0.01l-0.21-0.71L16.75,3.58
			L16.75,3.58z M17.29,6.49l-0.36-0.26l-0.09-0.07l-0.09,0.07l-0.36,0.26l0.23-0.76h0.44L17.29,6.49z M17.42,5.21h-0.42l0.05-0.75
			C17.68,4.17,17.62,4.76,17.42,5.21z M15.28,5.38l0.26-0.36l0.07-0.09l-0.07-0.09l-0.26-0.36l0.54,0.17
			c0.03,0.23,0.08,0.39,0.14,0.53L15.28,5.38L15.28,5.38z M17.86,4.65l0.54-0.17l-0.26,0.36l-0.07,0.09l0.07,0.09l0.26,0.36
			l-0.68-0.21C17.78,5.03,17.83,4.88,17.86,4.65L17.86,4.65z M21.2,3.72c0.01-0.2-0.36-0.36-0.45-0.36
			c-0.15-0.01-0.36,0.32-0.56,0.52C20.01,2.92,20.1,2.5,20.2,2.07c0.41,0.74,0.96,0.9,1.25,0.86c-0.98-0.78-0.81-1.49-1.11-1.53
			c-0.17-0.02-0.29-0.01-0.38-0.01c-0.35,0-0.39,0.67-0.43,0.97c-0.22-0.41-0.44-0.76-0.82-1.24c-0.36-0.93-0.81-0.7-1.26-1.12
			c0.35,0.53,0.07,0.86,0.88,1.24c0.21,0.2,0.46,0.52,0.62,0.77c-0.13,0.18-0.23,0.28-0.36,0.41c-0.1,0.15-0.15,0.73-0.46,1.16
			c0.46-0.2,0.65-0.49,0.81-0.76c1.47,1.11,0.27,3.93-0.06,4.55c-0.32-0.22-0.73-0.34-1.11-0.41l-0.04-0.12l-0.35-1.12h0.16
			c0.18,0,0.23-0.12,0.2-0.22l1.01,0.32l0.45,0.14l-0.27-0.38l-0.47-0.65l0.47-0.65l0.27-0.38l-0.45,0.14l-0.91,0.28
			c-0.06-0.21-0.23-0.3-0.42-0.33l0.3-1.03l0.13-0.44l-0.37,0.27l-0.65,0.46l-0.65-0.47l-0.37-0.27l0.13,0.44l0.3,1.03
			c-0.18,0.03-0.36,0.12-0.42,0.33l-0.91-0.28L14.48,3.9l0.27,0.38l0.47,0.65l-0.47,0.65l-0.27,0.38l0.44-0.14l1.02-0.32
			c-0.03,0.1,0.01,0.22,0.2,0.22h0.16l-0.35,1.12l-0.04,0.12c-0.39,0.07-0.81,0.2-1.14,0.42c-0.99-1.92-0.71-3.85,0.12-4.49
			c-0.02,0.41,0.34,0.96,0.51,1.07c-0.1-0.42,0.08-1.17-0.13-1.35c-0.15-0.13-0.38-0.2-0.63-0.19c0.17-0.27,0.4-0.62,0.79-1.14
			c0.58-0.27,0.75-0.95,0.89-1.29c-0.64,0.23-1.09,0.56-1.2,1.09c-0.22,0.3-0.47,0.65-0.75,1.06c0.02-0.5-0.26-0.68-0.62-0.7
			c-1.06,0.22-0.99,0.99-1.9,1.52c0.62,0.22,1.6-1.15,1.94-1c0.05,0.84-0.14,1.5-0.14,1.96c-0.16-0.18-0.24-0.29-0.38-0.32
			c-0.13-0.02-0.49,0.01-0.73,0.27c-0.07,0.42-0.05,1.23-0.45,2.18c0.59-0.54,0.88-1.61,0.97-1.92c0.15,0.21,0.32,0.67,0.36,1.06
			c0.07,0.76,0.54,2.04,0.94,2.65c-0.11,0.21-0.14,0.45-0.1,0.72c-0.31,0.23-0.35,0.55-0.24,0.77c0.11,0.23,0.42,0.39,0.78,0.25
			l0.11-0.05c0.38-0.15,1.08-0.45,1.93-0.45c0.85,0,1.55,0.29,1.94,0.45l0.11,0.05c0.36,0.14,0.66-0.02,0.78-0.25
			c0.11-0.22,0.07-0.54-0.24-0.77c0.04-0.28-0.01-0.54-0.13-0.77l0.01,0.01c0.73-1.04,0.78-3.02,1.38-3.58
			c0.05,0.7,0.42,1.27,0.79,1.35C21.18,5.1,21.18,4.15,21.2,3.72"/>
		<path class="st0" d="M11.99,19.88l-0.45,0.01c-0.07,0.78-0.04,1.49,0.07,2.14c0.28-0.46,0.56-0.92,0.54-1.24
			C12.14,20.44,12.07,20.14,11.99,19.88"/>
		<path class="st0" d="M13.59,21.22c0.15,0.43,0.35,1.11,0.5,1.59c-0.13,0.01-0.26,0.02-0.39,0.04c-0.07-0.17-0.29-0.73-0.52-1.28
			C12.97,21.06,13.48,20.92,13.59,21.22L13.59,21.22z M14.53,20.76c0.04-0.25,0.75-0.3,0.61,0.25c-0.13,0.56-0.3,1.22-0.43,1.78
			h-0.18h-0.18c-0.13-0.56-0.3-1.22-0.43-1.78C13.78,20.46,14.49,20.52,14.53,20.76L14.53,20.76z M15.88,21.57
			c-0.23,0.55-0.45,1.11-0.52,1.28c-0.12-0.02-0.25-0.03-0.38-0.04c0.15-0.48,0.34-1.16,0.5-1.59
			C15.58,20.92,16.1,21.06,15.88,21.57L15.88,21.57z M13.59,23.16c0.15-0.06,0.76-0.08,0.94-0.08s0.78,0.03,0.94,0.08
			c0.02,0.08,0.02,0.2,0.01,0.28c-0.23,0.07-0.64,0.1-0.95,0.1c-0.3,0-0.71-0.04-0.95-0.1C13.58,23.36,13.58,23.24,13.59,23.16z
			 M15.28,24.93c-0.2,0.05-0.53,0.07-0.74,0.07c-0.22,0-0.54-0.02-0.75-0.07l0.08-0.34c-0.15-0.02-0.31-0.07-0.43-0.12
			c0.06-0.22,0.16-0.44,0.24-0.74c0.28,0.06,0.55,0.09,0.86,0.09c0.31,0,0.58-0.03,0.86-0.09c0.08,0.3,0.18,0.52,0.25,0.74
			c-0.12,0.04-0.28,0.1-0.43,0.12C15.2,24.6,15.28,24.93,15.28,24.93z M12.19,19.87c0.08,0.27,0.14,0.57,0.16,0.89
			c0.02,0.38-0.27,0.85-0.57,1.35l-0.1,0.17c0.86,4.26,4.98,5.68,4.98,5.68v-8.09C16.66,19.88,13.56,19.87,12.19,19.87"/>
		<path class="st0" d="M21.18,20.67l-0.02-0.2h0.2c0.27,0,0.41-0.26,0.48-0.57C20.8,19.89,17,19.91,17,19.91v3.9
			c0.32-0.23,0.62-0.43,1.02-0.55V22.4h0.39c0.02-0.95,0.25-1.63,0.69-2.08l0.12-0.13l0.13,0.13c0.44,0.45,0.67,1.13,0.69,2.08h0.41
			v0.91c0.43,0.18,0.72,0.45,0.95,0.74c0.36-0.73,0.62-1.57,0.72-2.55l-0.06,0.01C21.65,21.52,21.22,21.23,21.18,20.67"/>
		<path class="st0" d="M22.13,19.91l-0.08-0.01c-0.09,0.45-0.3,0.75-0.67,0.76c0.03,0.44,0.37,0.67,0.69,0.67l0.08-0.01
			C22.17,20.87,22.17,20.41,22.13,19.91"/>
		<path class="st0" d="M20.17,24.96l-0.35-0.39l-0.58,0.52l0.24,0.27c0,0,0.24-0.11,0.46,0.13c-0.17,0.14-0.45,0.39-0.61,0.53
			c-0.22-0.25-0.07-0.48-0.07-0.48l-0.24-0.27l-0.72,0.64l-0.23-0.27l0.73-0.61l-0.26-0.3l-0.24,0.21
			c-0.21-0.24-0.37-0.56-0.22-0.97c0.42-0.09,0.71,0.11,0.92,0.35l-0.24,0.21l0.26,0.3l0.6-0.5l-0.35-0.39
			c0.31-0.04,0.58,0.07,0.73,0.25C20.18,24.38,20.25,24.66,20.17,24.96L20.17,24.96z M19.23,23.46c-1.15,0-1.59,0.32-2.23,0.8v3.73
			c0,0,2.73-0.93,4.21-3.57C20.88,23.91,20.38,23.46,19.23,23.46"/>
		<path class="st0" d="M12.49,16.7c0.57-0.33,0.87-0.56,1.17-1.04c-0.22-0.11-0.49-0.31-0.69-0.59c1.09,0.3,1.64,0.46,2.93,0.01
			c-0.21,0.33-0.52,0.53-0.79,0.7c0.29,0.48,0.58,1.03,0.68,1.47c-0.38-0.03-0.82,0.06-1.13,0.35c-0.48,0.02-1.09,0.18-1.43-0.91
			c-0.17,0.09-0.35,0.21-0.35,0.21c0.2,0.71,0.56,1.2,1.52,1.09c0.05,0.23,0.09,0.36,0.21,0.55c-0.39,0.23-1.38,0.81-2.13,0.14
			C12.49,18.66,12.49,16.7,12.49,16.7z M16.09,18.31c-0.1,0.14-0.72,0.34-0.87,0.24c-0.26-0.15-0.39-0.5-0.33-0.64
			c0.07-0.19,0.75-0.38,0.97-0.3C16.09,17.68,16.18,18.19,16.09,18.31L16.09,18.31z M17.93,17.49v-0.2l-0.48-0.01
			c0.11-0.51,1.1-1.15,1.54-1.3c-0.03-0.55,0.7-0.73,1.29-0.75c0.72-0.02,0.89,0.75,0.89,1c0,0.32-0.08,1.03-0.49,1.24
			c-0.58,0.31-1.07-0.13-1.07-0.53c0-0.43,0.3-0.69,0.83-0.64s0.49-0.24,0.09-0.34c-0.19-0.05-1.02-0.09-1.3,0.53
			c-0.16,0.01-0.33-0.06-0.43-0.15c-0.11,0.14-0.27,0.23-0.51,0.3c0.2,0.41,0.61,0.34,0.86,0.14l-0.01,0.18
			c0,1.01,1.07,1.26,1.74,0.88c-0.11,0.33-0.06,0.74-0.02,1.02h-2.6c0.05-0.28,0.39-0.59,0.68-0.8l-0.23-0.37
			c-0.28,0.12-0.55,0.24-0.85,0.32C17.14,18.21,17.18,17.7,17.93,17.49L17.93,17.49z M11.7,17.87c0.29,0.24,0.4,0.41,0.31,1.21
			c-0.01,0.1,0.04,0.29,0.1,0.49h9.79c0.01-0.11,0.02-0.21,0.02-0.3c0.01-0.44-0.07-0.79-0.21-0.93c-0.05-0.05-0.1-0.07-0.19-0.07
			H21.5l-0.39,0.04l0.21-0.34c0.21-0.33,0.5-0.52,0.81-0.54v-2.91H11.57v3.24l0.11,0.07L11.7,17.87"/>
		<path class="st0" d="M11.57,18.01v1.57h0.35c-0.06-0.21-0.11-0.39-0.09-0.52C11.91,18.27,11.79,18.19,11.57,18.01"/>
		<path class="st0" d="M22.13,19.58v-1.95c-0.23,0.02-0.46,0.17-0.65,0.45l0.06-0.01c0.43,0,0.58,0.59,0.57,1.2
			c0,0.1-0.01,0.2-0.02,0.3H22.13"/>
		<path class="st0" d="M14.13,16.91c0.18,0.09,0.4-0.02,0.64,0.02c-0.05-0.1-0.09-0.18-0.07-0.32c0.06-0.28-0.17-0.36-0.27-0.35
			c-0.26,0.02-0.41,0.07-0.69,0C13.93,16.44,13.88,16.79,14.13,16.91"/>
		<path class="st0" d="M11.83,19.05c0.09-0.81-0.04-0.88-0.27-1.07c-0.2-0.17-0.54-0.22-0.87-0.45c-0.24-0.17-0.3-0.4-0.61-0.72
			c0.06-0.69,0.55-1.52,0.91-1.71c0.05-0.03,0.04-1.08,0.04-1.08s0.24-0.01,0.22-0.03c-0.32-0.2-0.71-0.05-0.99,0.28
			c-0.27,0.22-0.9,0.64-1.33,0.79c-0.58-0.49-1.49-0.92-2.16-1.59c0,0,0.88-0.01,1.29-0.18c0.11-0.07,0.39-0.52,0.27-0.95
			C8.19,12.3,7.99,12.2,7.8,12.09c-0.24-0.14-0.48-0.28-0.58-0.37c-0.38-0.29-0.54-0.54-1.2-0.71c0.04-0.3,0.11-0.23,0.4-0.43
			C6.79,10.33,7,10.03,7.14,9.74c0.11-0.23-0.02-0.71-0.32-0.1c-0.1,0.22-0.39,0.5-0.72,0.59c0.03-0.19,0.04-0.29,0.04-0.4
			c0.97-0.68,0.87-1.29,0.8-1.85C6.9,7.65,6.57,7.51,6.58,7.85c0.01,0.22,0.21,0.86-0.45,1.24C6.11,8.81,6.03,8.68,5.98,8.53
			c0.59-0.77,0.34-1.52,0.09-1.86C5.91,6.45,5.52,6.38,5.7,6.72c0.14,0.28,0.38,1.05-0.06,1.36C5.49,7.89,5.32,7.82,5.26,7.57
			c0.06-0.85,0.01-1.37-0.1-1.66c-0.1-0.28-0.37-0.45-0.35-0.04c0.02,0.47,0.06,1.06,0.02,1.09C4.79,7,4.16,6.42,3.91,6.24
			C3.65,6.07,3.35,6.13,3.65,6.48c0.26,0.3,1.06,0.89,0.96,1.08C4.54,7.68,3.97,7.21,3.67,7.11c-0.3-0.1-0.39,0.06-0.14,0.26
			c0.41,0.33,0.68,0.55,1.34,0.77s1,1.15,0.79,2.47c-0.01,0.06-0.12,0.05-0.19,0.03c-0.03-0.5-0.12-1.11-0.24-1.37
			C5.08,8.93,4.77,8.92,4.88,9.4c0.09,0.37,0.14,0.77,0.08,1.28c-0.55-0.09-0.76-0.24-0.99-0.38C3.94,10.04,4.08,9.62,4.1,9.24
			c0.02-0.37-0.2-0.6-0.32-0.14c-0.12,0.44-0.2,0.66-0.27,0.98c-0.16-0.05-0.33-0.12-0.4-0.21L3.06,8.96
			c-0.04-0.41-0.2-0.4-0.32-0.04c-0.06,0.17-0.1,0.39-0.12,0.66c-0.2-0.12-0.33-0.34-0.35-0.52c0.03-0.43,0.1-0.88,0.15-1.17
			c0.04-0.21-0.1-0.62-0.26-0.12C2.06,8.14,2.03,8.44,1.96,8.69C1.82,8.68,1.63,7.86,1.54,7.34C1.5,7.1,1.3,6.84,1.26,7.36
			C1.22,7.95,1.34,8.53,1.49,8.79C1.21,8.76,0.94,8.26,0.74,7.96C0.57,7.69,0.48,7.97,0.5,8.07c0.17,1.04,1,1.4,1.37,1.48
			c0.58,0.83,1.69,1.19,2.63,1.6c-1.22-0.02-1.54,0.48-2.1,0.15c0.03,0.46,0.25,0.67,0.48,0.78c0.15,0.07,0.31,0.09,0.38,0.11
			c0.1,0.56,0.63,0.53,1.08,0.56c-0.11,1.09,0.02,2.53,0.97,3.6c-0.03,0.55-0.07,1.28-0.06,1.76c-0.79,0.73-1.48,2.25-1.76,3.09
			c-0.21,0.63-0.52,1.12-1,1.35c0.39,0.41,0.97,0.21,1.31-0.02c0.02,0.37,0.11,0.63,0.17,0.85c-0.22,0.33-0.38,0.56-0.36,0.97
			c-0.25,0.07-0.43,0.23-0.56,0.4c-0.09,0.11,0.02,0.61,0.11,0.82c0.31,0.7,0.07,2.28,0.02,2.74c0.13,0.01,0.37,0.02,0.42-0.18
			c0.08,0.07,0.27,0.21,0.36,0.51c-0.02,0.13-0.09,0.61,0.15,0.68c0.2,0.05,1.08,0.02,1.2-0.13c-0.09-0.1-0.24-0.34-0.34-0.57
			c0-0.24-0.02-0.53-0.09-0.65c-0.1-0.18-0.36-0.58-0.52-0.74c-0.04-0.29-0.06-1.58,0.07-2.07c0.23-0.15,1.77-1.3,2.09-2.4
			c0.28,0.1,0.2,0.86,0.2,1.85c0,0.27,0.33,0.4,0.52,0.42c0.42,0.05,1.01,0.45,1.68,1.44c0.13-0.14,0.3-0.27,0.3-0.27
			c0.09,0.11,0.19,0.4,0.25,0.58c0.07,0.13,0.61,0.22,1.02,0.09c0.13-0.05,0.22-0.07,0.3-0.22c-0.52-0.91-0.84-1.52-1.51-2.02
			c-0.31-0.23-0.73-0.35-1.07-0.57c0.23-0.44,0.87-2.48,0.49-3.23c-0.13-0.25-0.61-0.49-1.21-0.38C8,19.86,9,18.68,9.14,18.32
			c0.11,0.14,0.71,0.04,1.15,0.22c0.16,0.07,0.61,0.65,0.64,0.85c0.04,0.36,0.06,0.79-0.19,1.78c0.18-0.03,0.15-0.04,0.33-0.11
			c0.03,0.26-0.05,0.47-0.28,0.87c0.06,0.36,0.22,0.91,0.39,1.01c0.22-0.67,1.05-1.61,1.03-2.17
			C12.14,20.01,11.79,19.38,11.83,19.05"/>
	</g>
	<g>
		<path class="st0" d="M43.78,14.76c-0.16-0.5-0.69-1.26-1.75-1.26c-0.68,0-1.26,0.35-1.55,0.87c-0.35,0.65-0.5,1.52-0.5,2.72
			c0,1.72,0.28,2.8,0.89,3.23c0.32,0.23,0.72,0.35,1.19,0.35c1.39,0,1.98-1.06,1.98-3.6C44.04,16.05,43.95,15.32,43.78,14.76
			L43.78,14.76z M46.87,23.74c0,0-0.29,0.17-0.89,0.17c-0.77,0-1.46-0.46-1.83-0.7c-0.48-0.32-1.25-0.76-2.02-1
			c-1.49,0-2.47-0.41-3.23-1.4c-0.76-0.98-1.15-2.24-1.15-3.7c0-2.15,0.82-3.88,2.25-4.66c0.59-0.32,1.32-0.49,2.07-0.49
			c2.65,0,4.29,1.94,4.29,5.06c0,2.16-0.77,3.79-1.96,4.58c0.27,0.1,0.66,0.36,0.89,0.5c0.36,0.21,0.79,0.41,1.23,0.41
			c0.43,0,0.89-0.07,0.89-0.07L46.87,23.74"/>
		<path class="st0" d="M52.86,22.25c-0.24-0.17-0.44-0.41-0.57-0.72c-0.48,0.46-1.16,0.7-1.94,0.7c-1.03,0-1.92-0.49-2.16-1.19
			c-0.11-0.33-0.16-0.72-0.16-1.46v-4.7l1.9-0.36v4.72c0,0.66,0.06,1,0.16,1.2c0.1,0.2,0.39,0.35,0.68,0.35
			c0.48,0,1.05-0.35,1.19-0.7v-5.16l1.83-0.39v5.6c0,0.49,0.16,0.99,0.44,1.33L52.86,22.25"/>
		<path class="st0" d="M59.85,17.48c0-0.54-0.06-0.83-0.23-1.11c-0.19-0.29-0.46-0.43-0.85-0.43c-0.73,0-1.15,0.57-1.15,1.59v0.03
			h2.22V17.48L59.85,17.48z M57.6,18.98v0.06c0,1.13,0.56,1.78,1.55,1.78c0.66,0,1.28-0.24,1.86-0.73l0.74,1.15
			c-0.85,0.69-1.74,1.02-2.77,1.02c-2.11,0-3.47-1.49-3.47-3.8c0-1.32,0.27-2.2,0.92-2.91c0.6-0.68,1.33-0.99,2.31-0.99
			c0.85,0,1.65,0.29,2.12,0.77c0.68,0.69,0.98,1.68,0.98,3.21v0.44L57.6,18.98"/>
		<path class="st0" d="M67.28,17.48c0-0.54-0.06-0.83-0.23-1.11c-0.19-0.29-0.46-0.43-0.85-0.43c-0.73,0-1.15,0.57-1.15,1.59v0.03
			h2.22L67.28,17.48L67.28,17.48z M65.03,18.98v0.06c0,1.13,0.56,1.78,1.55,1.78c0.66,0,1.28-0.24,1.86-0.73l0.75,1.15
			c-0.85,0.69-1.74,1.02-2.77,1.02c-2.11,0-3.47-1.49-3.47-3.8c0-1.32,0.27-2.2,0.92-2.91c0.6-0.68,1.33-0.99,2.31-0.99
			c0.85,0,1.65,0.29,2.12,0.77c0.67,0.69,0.98,1.68,0.98,3.21v0.44L65.03,18.98"/>
		<path class="st0" d="M74.71,22.05v-4.77c0-0.83-0.14-1.07-0.65-1.07c-0.39,0-0.89,0.26-1.33,0.66v5.19h-1.92v-5.32
			c0-0.63-0.09-1.23-0.26-1.72l1.7-0.49c0.17,0.3,0.27,0.61,0.27,0.92c0.28-0.2,0.53-0.37,0.85-0.55c0.39-0.2,0.89-0.32,1.32-0.32
			c0.82,0,1.53,0.43,1.76,1.06c0.1,0.27,0.14,0.59,0.14,1.05v5.36L74.71,22.05"/>
		<path class="st0" d="M80.95,22.27c-0.9,0-1.89-0.29-2.96-0.85l0.69-1.4c0.59,0.36,1.61,0.83,2.44,0.83c0.54,0,0.98-0.36,0.98-0.83
			c0-0.5-0.36-0.76-1.13-0.9l-0.86-0.16c-0.49-0.09-1.09-0.43-1.35-0.74c-0.26-0.32-0.41-0.85-0.41-1.32c0-1.44,1.13-2.4,2.84-2.4
			c1.18,0,1.95,0.36,2.62,0.69l-0.63,1.29c-0.73-0.37-1.26-0.53-1.81-0.53c-0.56,0-0.93,0.29-0.93,0.72c0,0.37,0.24,0.57,0.92,0.74
			l0.89,0.23c0.9,0.23,1.2,0.5,1.46,0.83c0.27,0.35,0.4,0.76,0.4,1.25C84.09,21.24,82.83,22.27,80.95,22.27"/>
		<path class="st0" d="M87.5,22.22c-0.82,0-1.48-0.39-1.7-1c-0.14-0.37-0.17-0.6-0.17-1.65v-5.47c0-0.96-0.03-1.55-0.1-2.21
			l1.96-0.44c0.07,0.4,0.1,0.87,0.1,1.91v5.72c0,1.26,0.02,1.44,0.13,1.63c0.07,0.13,0.23,0.2,0.39,0.2c0.07,0,0.11,0,0.21-0.03
			l0.33,1.15C88.32,22.15,87.92,22.22,87.5,22.22"/>
		<path class="st0" d="M93.09,18.83c-1.33,0-1.79,0.24-1.79,1.12c0,0.57,0.36,0.96,0.85,0.96c0.36,0,0.72-0.19,1.01-0.5l0.03-1.58
			L93.09,18.83L93.09,18.83z M94.72,22.42c-0.44-0.19-0.85-0.52-1.03-0.89c-0.14,0.14-0.3,0.29-0.44,0.39
			c-0.36,0.26-0.87,0.4-1.48,0.4c-1.63,0-2.53-0.83-2.53-2.29c0-1.72,1.19-2.52,3.53-2.52c0.14,0,0.27,0,0.43,0.02v-0.3
			c0-0.82-0.15-1.09-0.86-1.09c-0.61,0-1.33,0.3-2.12,0.83l-0.82-1.38c0.39-0.24,0.67-0.39,1.19-0.6c0.72-0.3,1.33-0.43,2-0.43
			c1.23,0,2.08,0.46,2.37,1.28c0.1,0.3,0.14,0.53,0.13,1.32l-0.04,2.47c-0.02,0.8,0.04,1.15,0.69,1.64L94.72,22.42"/>
		<path class="st0" d="M101.16,22.05v-4.77c0-0.83-0.14-1.07-0.65-1.07c-0.39,0-0.89,0.26-1.33,0.66v5.19h-1.92v-5.32
			c0-0.63-0.09-1.23-0.26-1.72l1.7-0.49c0.17,0.3,0.27,0.61,0.27,0.92c0.28-0.2,0.53-0.37,0.85-0.55c0.39-0.2,0.89-0.32,1.32-0.32
			c0.82,0,1.53,0.43,1.76,1.06c0.1,0.27,0.14,0.59,0.14,1.05v5.36L101.16,22.05"/>
		<path class="st0" d="M109.22,16.64c-0.36-0.32-0.7-0.48-1.05-0.48c-0.86,0-1.23,0.72-1.23,2.35c0,1.58,0.33,2.09,1.33,2.09
			c0.36,0,0.76-0.24,0.95-0.48L109.22,16.64L109.22,16.64z M109.65,22.05c-0.06-0.11-0.08-0.23-0.11-0.43
			c-0.48,0.42-1.03,0.61-1.69,0.61c-1.86,0-3.04-1.45-3.04-3.73c0-2.29,1.28-3.87,3.14-3.87c0.53,0,0.95,0.13,1.31,0.42
			c-0.03-0.16-0.06-0.66-0.06-1.09v-2.53l1.91,0.3v7.63c0,1.81,0.14,2.39,0.27,2.68L109.65,22.05"/>
	</g>
	<g>
		<path class="st0" d="M120.13,22.21c-1.23,0-2.28-0.43-3.03-1.23c-0.83-0.9-1.22-2.12-1.22-3.82c0-1.88,0.5-3.21,1.52-4.13
			c0.7-0.63,1.55-0.93,2.57-0.93c1.05,0,1.95,0.33,2.7,0.98l-0.53,0.73c-0.8-0.55-1.37-0.76-2.13-0.76c-1.15,0-2.05,0.53-2.45,1.66
			c-0.26,0.73-0.39,1.56-0.39,2.49c0,1.29,0.24,2.33,0.69,2.98c0.44,0.65,1.45,1.05,2.38,1.05c0.61,0,1.15-0.13,1.56-0.39v-3h-1.98
			l-0.23-0.98h3.31v4.59C122.19,21.92,121.13,22.21,120.13,22.21"/>
		<path class="st0" d="M129.01,16.52c-0.3-0.63-0.93-0.92-1.52-0.92c-0.63,0-1.22,0.3-1.46,0.77c-0.23,0.44-0.35,1.02-0.35,1.86
			c0,1,0.18,1.89,0.44,2.34c0.26,0.43,0.83,0.72,1.45,0.72c0.74,0,1.31-0.39,1.55-1.07c0.16-0.44,0.22-0.85,0.22-1.55
			C129.34,17.67,129.25,17,129.01,16.52L129.01,16.52z M127.55,22.23c-1.96,0-3.08-1.45-3.08-3.8c0-2.32,1.16-3.74,3.04-3.74
			c1.19,0,1.96,0.55,2.45,1.24c0.44,0.65,0.66,1.49,0.66,2.65C130.62,20.97,129.34,22.23,127.55,22.23"/>
		<path class="st0" d="M134.72,22.12h-1.11l-2.57-7.15l1.15-0.24l1.66,4.92c0.2,0.59,0.35,1.22,0.35,1.22h0.03
			c0,0,0.11-0.56,0.35-1.2l1.64-4.75h1.19L134.72,22.12"/>
		<path class="st0" d="M142.2,16.22c-0.24-0.39-0.75-0.63-1.29-0.63c-1.02,0-1.59,0.74-1.65,2.22h3.27
			C142.51,17.04,142.42,16.57,142.2,16.22z M139.26,18.66v0.17c0,0.67,0.09,1.19,0.33,1.56c0.4,0.61,1.06,0.87,1.78,0.87
			c0.69,0,1.25-0.22,1.75-0.67l0.43,0.72c-0.63,0.57-1.49,0.89-2.41,0.89c-1.98,0-3.17-1.44-3.17-3.8c0-1.2,0.26-1.98,0.86-2.7
			c0.57-0.68,1.28-0.99,2.14-0.99c0.77,0,1.45,0.27,1.94,0.77c0.61,0.63,0.82,1.31,0.82,3.01v0.16L139.26,18.66"/>
		<path class="st0" d="M148.41,15.98c-0.07-0.03-0.2-0.06-0.32-0.06c-0.43,0-0.86,0.19-1.19,0.52c-0.33,0.33-0.42,0.55-0.42,1.13
			v4.47h-1.12v-5.51c0-1.05-0.24-1.52-0.24-1.52l1.12-0.3c0,0,0.27,0.56,0.23,1.16c0.52-0.73,1.28-1.19,2.01-1.19
			c0.19,0,0.39,0.07,0.39,0.07L148.41,15.98"/>
		<path class="st0" d="M153.63,22.05v-4.83c0-0.76-0.06-0.95-0.26-1.19c-0.15-0.19-0.46-0.3-0.79-0.3c-0.57,0-1.46,0.46-1.98,1v5.32
			h-1.09v-5.51c0-1.02-0.27-1.51-0.27-1.51l1.09-0.3c0,0,0.26,0.53,0.26,1.12c0.74-0.74,1.49-1.11,2.25-1.11
			c0.77,0,1.46,0.42,1.75,1.05c0.11,0.26,0.17,0.55,0.17,0.83v5.42H153.63"/>
		<path class="st0" d="M164.75,22.05v-5.27c0-0.69-0.32-1.05-0.92-1.05c-0.65,0-1.15,0.42-1.89,1.11v5.22h-1.13v-5.08
			c0-0.43-0.05-0.72-0.2-0.92c-0.17-0.2-0.4-0.29-0.73-0.29c-0.54,0-1.07,0.27-1.82,0.95v5.34h-1.07v-5.53
			c0-1.03-0.26-1.52-0.26-1.52l1.09-0.26c0,0,0.26,0.56,0.26,1.06c0.47-0.53,1.35-1.07,2.08-1.07c0.7,0,1.4,0.43,1.66,1.19
			c0.69-0.73,1.56-1.19,2.29-1.19c1.06,0,1.79,0.81,1.79,1.94v5.39L164.75,22.05"/>
		<path class="st0" d="M171.92,16.22c-0.24-0.39-0.74-0.63-1.29-0.63c-1.02,0-1.59,0.74-1.65,2.22h3.27
			C172.23,17.04,172.13,16.57,171.92,16.22z M168.98,18.66v0.17c0,0.67,0.09,1.19,0.33,1.56c0.4,0.61,1.06,0.87,1.78,0.87
			c0.69,0,1.25-0.22,1.75-0.67l0.43,0.72c-0.63,0.57-1.49,0.89-2.41,0.89c-1.98,0-3.17-1.44-3.17-3.8c0-1.2,0.26-1.98,0.86-2.7
			c0.57-0.68,1.28-0.99,2.14-0.99c0.77,0,1.45,0.27,1.94,0.77c0.61,0.63,0.82,1.31,0.82,3.01v0.16L168.98,18.66"/>
		<path class="st0" d="M179.2,22.05v-4.83c0-0.76-0.06-0.95-0.26-1.19c-0.15-0.19-0.46-0.3-0.79-0.3c-0.57,0-1.46,0.46-1.98,1v5.32
			h-1.09v-5.51c0-1.02-0.27-1.51-0.27-1.51l1.09-0.3c0,0,0.26,0.53,0.26,1.12c0.75-0.74,1.49-1.11,2.25-1.11
			c0.77,0,1.46,0.42,1.75,1.05c0.12,0.26,0.17,0.55,0.17,0.83v5.42H179.2"/>
		<path class="st0" d="M185.15,15.75h-1.49v4.6c0,0.79,0.22,1.06,0.92,1.06c0.32,0,0.5-0.04,0.7-0.14l0.16,0.72
			c-0.36,0.19-0.76,0.29-1.26,0.29c-0.37,0-0.66-0.07-0.93-0.2c-0.5-0.24-0.69-0.7-0.69-1.42v-4.9h-0.93v-0.85h0.93
			c0-0.69,0.11-1.81,0.11-1.81l1.18-0.26c0,0-0.14,1.12-0.14,2.07h1.79L185.15,15.75"/>
	</g>
</g>
</svg>
