<?xml version="1.0" encoding="utf-8"?>
<!-- Generator: Adobe Illustrator 26.0.2, SVG Export Plug-In . SVG Version: 6.00 Build 0)  -->
<svg version="1.1" id="Layer_1" xmlns="http://www.w3.org/2000/svg" xmlns:xlink="http://www.w3.org/1999/xlink" x="0px" y="0px"
	 viewBox="0 0 16 16" style="enable-background:new 0 0 16 16;" xml:space="preserve">
<style type="text/css">
	.st0{fill:#CB6526;}
</style>
<path class="st0" d="M8,0c4.4,0,8,3.6,8,8s-3.6,8-8,8s-8-3.6-8-8S3.6,0,8,0z M5.1,8.3l5.1,5.5c0.2,0.2,0.4,0.2,0.6,0
	c0.2-0.2,0.2-0.5,0-0.6L6,8l4.8-5.2c0.2-0.2,0.2-0.5,0-0.6c-0.2-0.2-0.4-0.2-0.6,0c0,0,0,0,0,0L5.1,7.7C5,7.8,5,8.2,5.1,8.3z"/>
</svg>
